<?xml version="1.0" standalone="no"?>
<!DOCTYPE svg PUBLIC "-//W3C//DTD SVG 1.1//EN" "http://www.w3.org/Graphics/SVG/1.1/DTD/svg11.dtd">
<svg version="1.1" xmlns="http://www.w3.org/2000/svg" xmlns:xlink="http://www.w3.org/1999/xlink"><metadata>This SVG WebFont was generated by YouWorkForThem.
</metadata><defs><font horiz-adv-x="300" id="ywftsvg"><font-face ascent="800" bbox="-790 -409 1697 1270" cap-height="844" descent="-200" font-family="" font-stretch="normal" font-weight="400" panose-1="2 0 5 5 0 0 0 2 0 4" underline-position="0" underline-thickness="0" unicode-range="U+000D-2265" units-per-em="1000" x-height="500"/><missing-glyph horiz-adv-x="250"/><glyph d="M682 496q8 8 20 8q20 0 41.5 -22t21.5 -40q0 -8 -4 -12q-58 -58 -121 -144t-63 -120q0 -17 18 -17q11 0 31.5 16.5t38 35t38 41t23.5 25.5q6 6 14 6t14 -7t6 -15q0 -7 -4 -11q-2 -2 -30.5 -43.5t-60 -83t-76.5 -77.5t-80 -36q-70 0 -70 67q0 66 59.5 174.5t134.5 199.5 h-13q-27 0 -64 5q-30 -73 -75 -146.5t-104.5 -143t-133.5 -112.5t-147 -43q-96 0 -96 96q0 73 52 168.5t135.5 166.5t162.5 71q75 0 75 -60q0 -46 -39.5 -97t-75.5 -51q-14 0 -25 13t-11 25q0 11 11 11q21 0 45.5 32t24.5 54q0 15 -14 15q-25 0 -70.5 -43t-83 -102.5 t-37.5 -99.5q0 -50 63 -50q44 0 89 28.5t82.5 75t68 98t51.5 105.5q-72 19 -119.5 54t-47.5 81q0 58 41 94.5t94 36.5q50 0 85 -36t35 -105q0 -25 -13 -72q49 -22 78 -22q17 0 25 8zM449 627q0 -41 81 -91q6 27 6 46q0 39 -16.5 59.5t-37.5 20.5q-14 0 -23.5 -9t-9.5 -26z " glyph-name="c_r.liga" horiz-adv-x="655" unicode="cr"/><glyph d="M682 496q8 8 20 8q20 0 41.5 -22t21.5 -40q0 -8 -4 -12q-58 -58 -121 -144t-63 -120q0 -17 18 -17q11 0 31.5 16.5t38 35t38 41t23.5 25.5q6 6 14 6t14 -7t6 -15q0 -7 -4 -11q-2 -2 -30.5 -43.5t-60 -83t-76.5 -77.5t-80 -36q-70 0 -70 67q0 66 59.5 174.5t134.5 199.5 h-13q-27 0 -64 5q-30 -73 -75 -146.5t-104.5 -143t-133.5 -112.5t-147 -43q-96 0 -96 96q0 73 52 168.5t135.5 166.5t162.5 71q60 0 60 -59q0 -46 -35 -104.5t-97 -103t-127 -45.5q7 -41 62 -41q44 0 89 28.5t82.5 75t68 98t51.5 105.5q-72 19 -119.5 54t-47.5 81 q0 58 41 94.5t94 36.5q50 0 85 -36t35 -105q0 -25 -13 -72q49 -22 78 -22q17 0 25 8zM341 445q-31 0 -90 -63.5t-87 -126.5q62 9 123.5 77.5t61.5 102.5q0 10 -8 10zM449 627q0 -41 81 -91q6 27 6 46q0 39 -16.5 59.5t-37.5 20.5q-14 0 -23.5 -9t-9.5 -26z" glyph-name="e_r.liga" horiz-adv-x="655" unicode="er"/><glyph d="M401 653q0 -12 -18 -12q-15 0 -28 10.5t-13 30.5q0 25 12.5 65t37.5 75t52 35q36 0 57 -25t21 -53q0 -29 -21 -29q-23 0 -61.5 -34t-38.5 -63zM720 582q20 0 32 -9.5t12 -21.5q0 -16 -103 -23q-68 -6 -116 -10q-94 -115 -161.5 -218t-67.5 -137q0 -13 12 -13q9 0 23.5 10 t31 26.5t30.5 31t28.5 31t17.5 19.5q6 6 13 6q9 0 15 -7t6 -16q0 -7 -4 -11q-3 -2 -31 -43t-60 -83t-76.5 -78t-79.5 -36q-63 0 -63 60q0 14 3 31q-80 -91 -137 -91q-65 0 -65 59q0 46 45.5 134t109 161t106.5 73q26 0 26 -13q0 -6 -7 -12q-38 -38 -90.5 -120.5 t-52.5 -116.5q0 -16 15 -16q25 0 117 104q59 107 164 254q-86 -7 -116 -7q-55 0 -94 34t-39 66q0 27 31 27q72 0 292 -22q68 89 94 117t46 28q25 0 48.5 -17.5t23.5 -34.5q0 -7 -15.5 -25t-41 -44t-34.5 -36q106 -11 112 -11z" glyph-name="i_t.liga" horiz-adv-x="384" unicode="it"/><glyph d="M401 655q0 -13 -19 -13q-15 0 -27.5 11t-12.5 30q0 25 12.5 65t37.5 75t52 35q36 0 57 -25t21 -53q0 -29 -21 -29q-23 0 -61.5 -33.5t-38.5 -62.5zM838 584q20 0 32 -9.5t12 -20.5q0 -17 -21 -17q-8 0 -52.5 -3t-128 -9t-138.5 -10q-93 -114 -159.5 -216t-66.5 -135 q0 -13 12 -13q4 0 10 2.5t13 7.5t13.5 10t15.5 13.5t15 14.5t15.5 16.5t14 15t13 14.5t10.5 12q25 37 43 61.5t42.5 52.5t47.5 42t44 14q26 0 26 -13q0 -6 -6 -12q-38 -37 -90.5 -120t-52.5 -117q0 -16 14 -16t40.5 23.5t57.5 58t33 36.5q6 6 13 6q8 0 14.5 -7t6.5 -15 q0 -6 -5 -11q-2 -2 -30.5 -43.5t-60 -83t-76.5 -77.5t-80 -36q-65 0 -65 59q0 6 2 20q-72 -77 -124 -77q-63 0 -63 60q0 14 3 31q-79 -92 -137 -92q-65 0 -65 59q0 63 64.5 167.5t136.5 176.5q24 24 60 24q26 0 26 -13q0 -6 -7 -12q-38 -38 -90.5 -120t-52.5 -116 q0 -16 15 -16q26 0 117 103q60 109 163 253q-85 -5 -115 -5q-55 0 -94 33.5t-39 65.5q0 27 31 27q66 0 295 -17q67 87 92 114t45 27q24 0 48 -18t24 -35q0 -7 -14.5 -23.5t-38 -40.5t-32.5 -34q215 -17 224 -17zM828 857q36 0 57 -25t21 -53q0 -29 -21 -29q-23 0 -61.5 -34 t-38.5 -63q0 -12 -18 -12q-15 0 -28 10.5t-13 30.5q0 25 12.5 65t37.5 75t52 35z" glyph-name="i_t_i.liga" horiz-adv-x="576" unicode="iti"/><glyph d="M745 496q7 8 19 8q20 0 41.5 -21.5t21.5 -40.5q0 -8 -4 -12q-57 -57 -120 -143.5t-63 -120.5q0 -17 18 -17q14 0 40.5 23.5t57.5 58t33 36.5q6 6 14 6t14 -7t6 -15q0 -7 -4 -11q-3 -2 -31 -43t-60 -83t-76.5 -78t-79.5 -36q-70 0 -70 67q0 66 59.5 174.5t134.5 199.5h-12 q-27 0 -62 5q-41 -99 -112 -183t-154 -111q-55 -67 -119.5 -108.5t-126.5 -41.5q-51 0 -75.5 26.5t-24.5 72.5q0 67 45 153.5t119 154.5t146 79q30 16 62 16q92 0 92 -92q0 -70 -51 -162q42 35 81 90.5t64 115.5q-72 19 -120 54.5t-48 81.5q0 58 41 94.5t94 36.5 q50 0 85 -36t35 -105q0 -32 -12 -73q47 -21 77 -21q17 0 25 8zM177 152q19 0 45 13q-34 31 -34 89q0 30 9 62q-51 -77 -51 -128q0 -36 31 -36zM290 224q44 48 75.5 106.5t31.5 91.5q0 27 -23 27q-33 0 -65.5 -60.5t-32.5 -115.5q0 -32 14 -49zM593 536q6 24 6 46 q0 39 -16.5 59.5t-37.5 20.5q-14 0 -23.5 -9t-9.5 -26q0 -41 81 -91z" glyph-name="o_r.liga" horiz-adv-x="717" unicode="or"/><glyph d="M639 857q36 0 57 -25t21 -53q0 -29 -21 -29q-23 0 -61.5 -34t-38.5 -63q0 -12 -18 -12q-15 0 -28 10.5t-13 30.5q0 25 12.5 65t37.5 75t52 35zM649 582q20 0 32 -9.5t12 -20.5q0 -17 -21 -17q-6 0 -56.5 -4.5t-133.5 -12t-135 -11.5q-91 -112 -155.5 -211.5t-64.5 -132.5 q0 -13 12 -13q24 0 116 101q114 176 180 176q26 0 26 -13q0 -6 -6 -12q-38 -38 -90.5 -120.5t-52.5 -116.5q0 -16 15 -16q10 0 30.5 16.5t38 35t38 41t23.5 25.5q6 6 14 6t14 -7t6 -15q0 -7 -4 -11q-2 -2 -30.5 -43.5t-60 -83t-76.5 -77.5t-80 -36q-65 0 -65 60q0 11 1 17 q-72 -77 -123 -77q-63 0 -63 60q0 121 230 441q-53 2 -90.5 35t-37.5 64q0 27 31 27q49 0 183 -11q81 104 102 121q16 13 30 13q25 0 48.5 -17.5t23.5 -34.5q0 -7 -13.5 -23t-36.5 -38.5t-31 -32.5q43 -4 100.5 -10t86 -9t33.5 -3z" glyph-name="t_i.liga" horiz-adv-x="377" unicode="ti"/><glyph d="M749 582q20 0 32 -9.5t12 -21.5t-15 -15t-84 -6q-73 -3 -128 -6q-95 -116 -164.5 -222t-69.5 -141q0 -13 12 -13q14 0 40.5 23.5t57.5 58t33 36.5q6 6 13 6q8 0 14 -7t6 -15q0 -7 -4 -11q-2 -2 -30.5 -43.5t-60 -83t-76.5 -77.5t-80 -36q-63 0 -63 60q0 15 5 38 q-84 -97 -141 -97q-63 0 -63 60q0 121 233 445q-90 -5 -115 -5q-55 0 -94 33.5t-39 65.5q0 27 31 27q84 0 297 -15q66 86 90.5 112.5t43.5 26.5q25 0 49 -17.5t24 -35.5q0 -7 -14 -23t-36.5 -38.5t-31.5 -32.5q11 -1 33 -2.5t32 -1.5q90 116 112 135q18 15 33 15 q24 0 47.5 -17.5t23.5 -34.5q0 -7 -15.5 -25.5t-41.5 -45t-35 -36.5q29 -2 60 -4t47 -3t20 -1zM272 264q65 116 165 252q-15 -1 -42 -2.5t-39 -1.5q-92 -113 -158 -214.5t-66 -134.5q0 -13 12 -13q8 0 22 9t30 24.5t29 29t28 30.5t19 21z" glyph-name="t_t.liga" horiz-adv-x="403" unicode="tt"/><glyph glyph-name=".notdef" horiz-adv-x="250"/><glyph glyph-name="glyph1" horiz-adv-x="0"/><glyph glyph-name="glyph1" horiz-adv-x="0"/><glyph glyph-name="space" horiz-adv-x="250" unicode=" "/><glyph d="M419 738q12 12 31 12q24 0 47.5 -17.5t23.5 -34.5q0 -8 -6 -14q-92 -93 -212 -255t-120 -226q0 -16 -20 -16q-19 0 -35 16.5t-16 46.5q0 81 114.5 245.5t192.5 242.5zM71 142q30 0 50.5 -20.5t20.5 -50.5q0 -29 -20.5 -50t-50.5 -21q-29 0 -50 21t-21 50q0 30 21 50.5 t50 20.5z" glyph-name="exclam" horiz-adv-x="255" unicode="!"/><glyph d="M484 700q26 0 43 -22t17 -42q0 -14 -9 -14q-21 0 -45 -29t-24 -40t-11 -11t-22 9.5t-11 20.5q0 24 6 52q-2 -2 -5 -2q-21 0 -45 -29t-24 -40t-11 -11t-22 9.5t-11 20.5q0 41 16.5 84.5t45.5 43.5q25 0 41.5 -20t18.5 -40q19 60 52 60z" glyph-name="quotedbl" horiz-adv-x="291" unicode="&quot;"/><glyph d="M740 506q20 -4 30.5 -23t10.5 -42q0 -19 -7 -32t-19 -13h-4q-84 15 -167 19q-33 -45 -59 -89q103 -4 125 -13q33 -14 33 -62q0 -19 -7 -32t-19 -13q-1 0 -2 0.5t-2 0.5q-87 15 -186 20q-75 -140 -75 -217q0 -11 -16 -11q-24 0 -50 22.5t-26 56.5q0 44 54 150 q-60 -2 -105 -7q-72 -137 -72 -211q0 -11 -15 -11q-24 0 -50 22.5t-26 56.5q0 36 38 119q-59 -18 -95 -42q-2 -2 -6 -2q-9 0 -16 15t-7 35q0 47 44.5 71.5t142.5 38.5q26 44 48 77q-70 -20 -109 -46q-2 -2 -6 -2q-8 0 -15.5 15t-7.5 35q0 52 52.5 76.5t162.5 36.5 q70 102 109.5 148.5t61.5 46.5q24 0 48 -18t24 -35q0 -7 -6 -13q-47 -47 -105 -119q62 2 90 2q40 56 57.5 80t41.5 53.5t38.5 39.5t26.5 10q24 0 47.5 -17.5t23.5 -34.5q0 -7 -19 -29.5t-49 -55.5t-43 -49q54 -3 82 -8zM309 324q51 3 101 3q11 19 57 91q-51 -2 -99 -6 q-36 -50 -59 -88z" glyph-name="numbersign" horiz-adv-x="699" unicode="#"/><glyph d="M561 710q54 -40 54 -125q0 -95 -59.5 -188t-124.5 -93q-44 0 -75 43q-11 -24 -33 -74q28 -27 42.5 -43t28 -45t13.5 -60q0 -80 -68.5 -145t-156.5 -87q-17 -62 -17 -95q0 -11 -16 -11q-24 0 -49.5 22t-25.5 56q0 11 3 27q-39 12 -58 45t-19 69q0 31 12 54.5t27 23.5 q8 0 15 -7q28 -28 70 -39q33 90 86 208q-52 39 -82.5 82.5t-30.5 103.5q0 70 55 142.5t138.5 118.5t162.5 46q24 41 36.5 53.5t30.5 12.5q25 0 49 -17.5t24 -35.5q0 -5 -4.5 -11.5t-14 -16t-13.5 -14.5zM230 437q0 -47 25 -89q93 199 162 328q-70 -34 -128.5 -105.5 t-58.5 -133.5zM338 130q0 26 -50 62q-33 -79 -59 -153q46 11 77.5 37t31.5 54zM387 412q65 13 108 79.5t43 129.5q0 27 -9 45q-66 -98 -142 -254z" glyph-name="dollar" horiz-adv-x="486" unicode="$"/><glyph d="M367 688q12 12 30 12q25 0 48.5 -17.5t23.5 -34.5q0 -8 -6 -14q-122 -122 -246.5 -320.5t-124.5 -303.5q0 -11 -16 -11q-24 0 -50 22.5t-26 56.5q0 57 78.5 195t164 257t124.5 158zM225 578q-25 0 -43 18t-18 43t18 43t43 18t43 -18t18 -43t-18 -43t-43 -18zM233 671 q-8 0 -14 -5.5t-6 -13.5t6 -14t14 -6t14 6t6 14t-6 13.5t-14 5.5zM192 126q25 0 43 -18t18 -43t-18 -43t-43 -18q-26 0 -43.5 18t-17.5 43t18 43t43 18zM200 58q8 0 13.5 5.5t5.5 13.5t-5.5 14t-13.5 6t-14 -6t-6 -14t6 -13.5t14 -5.5z" glyph-name="percent" horiz-adv-x="305" unicode="%"/><glyph d="M437 97q61 22 92 69t31 98q0 39 -17.5 65t-46.5 26q-14 0 -14 11t14.5 21t37.5 10q57 0 90.5 -46t33.5 -114q0 -79 -48 -153.5t-140 -112.5q44 -86 132 -86q13 0 13 -18q0 -35 -41.5 -76t-108.5 -41q-61 0 -101.5 51t-60.5 139q-123 0 -189 60t-66 152q0 102 80.5 193 t222.5 122q48 128 125 205.5t178 77.5q61 0 94.5 -34.5t33.5 -85.5q0 -79 -74 -144.5t-204 -65.5q-12 0 -36 -2q-34 -133 -34 -254q0 -36 3 -67zM641 693q-41 0 -82 -58.5t-73 -154.5q61 2 107.5 31t67 65t20.5 69q0 48 -40 48zM323 377q-58 -32 -89.5 -80t-31.5 -96 q0 -40 21.5 -70.5t63.5 -42.5q0 152 36 289z" glyph-name="ampersand" horiz-adv-x="691" unicode="&amp;"/><glyph d="M423 622q-21 0 -45 -29t-24 -40t-11 -11t-22 9.5t-11 20.5q0 41 16.5 84.5t45.5 43.5q26 0 43 -22t17 -42q0 -14 -9 -14z" glyph-name="quotesingle" horiz-adv-x="179" unicode="'"/><glyph d="M539 750q27 0 49 -13.5t22 -25.5q0 -10 -18 -10q-65 0 -134.5 -63t-121 -153.5t-85 -191t-33.5 -174.5q0 -114 78 -114q26 0 26 -14q0 -20 -40.5 -46t-81.5 -26q-57 0 -84.5 38.5t-27.5 106.5q0 88 42.5 207.5t106.5 225t146.5 179.5t155.5 74z" glyph-name="parenleft" horiz-adv-x="360" unicode="("/><glyph d="M21 -81q-27 0 -49 14t-22 26q0 10 18 10q65 0 134.5 63.5t121.5 153.5t85.5 191t33.5 174q0 114 -78 114q-27 0 -27 14q0 20 40.5 45.5t81.5 25.5q57 0 84.5 -38.5t27.5 -106.5q0 -88 -42.5 -207.5t-106.5 -225t-147 -179.5t-155 -74z" glyph-name="parenright" horiz-adv-x="373" unicode=")"/><glyph d="M498 662q15 0 29 -10t14 -18q0 -4 -3 -5t-23 -4q-24 -3 -43 -6q18 -28 18 -52q0 -18 -7 -31.5t-16 -13.5q-10 0 -36 52q-8 14 -12 23l-15 -17.5t-12.5 -14t-9 -9.5t-8 -7.5t-7.5 -3.5t-9 -2.5t-10 -0.5q-12 0 -12 7q0 2 35 57q-24 1 -42.5 16.5t-18.5 29.5t18 14 q2 0 21.5 -0.5t34.5 -0.5q-4 8 -9 17t-6.5 12t-4 7.5t-2.5 7t-0.5 5.5t-0.5 9q0 27 12 27q4 0 16 -17q16 -24 33 -46q24 42 68 42q24 0 24 -14q0 -8 -26 -39q-8 -9 -12 -14h22z" glyph-name="asterisk" horiz-adv-x="288" unicode="*"/><glyph d="M483 297q28 0 53 -18.5t25 -33.5q0 -3 -1.5 -4.5t-5.5 -3.5t-9 -3t-14.5 -2.5t-19.5 -3t-25 -3t-31 -3.5t-38.5 -5.5t-45.5 -6.5q-47 -96 -49 -101q-11 -23 -34.5 -39.5t-39.5 -16.5q-13 0 -13 12q0 4 41 132q-4 0 -9.5 -0.5t-6.5 -0.5q-45 0 -80 28.5t-35 55.5 q0 24 32 24q7 0 27 -0.5t50 -1.5t54 -1q22 64 23 66q17 36 49.5 57.5t60.5 21.5q30 0 30 -23q0 -8 -56 -125q34 -1 68 -1z" glyph-name="plus" horiz-adv-x="561" unicode="+"/><glyph d="M163 1q-21 0 -45 -29t-24 -40t-11 -11t-22 9.5t-11 20.5q0 41 16.5 84.5t45.5 43.5q26 0 43 -22t17 -42q0 -14 -9 -14z" glyph-name="comma" horiz-adv-x="232" unicode=","/><glyph d="M483 297q28 0 53 -18.5t25 -33.5q0 -12 -21 -12q-8 0 -135.5 -18.5t-144.5 -18.5q-45 0 -80 28.5t-35 55.5q0 24 32 24q22 0 158.5 -3.5t147.5 -3.5z" glyph-name="hyphen" horiz-adv-x="561" unicode="-"/><glyph d="M132 102q26 0 44.5 -18t18.5 -44t-18.5 -44.5t-44.5 -18.5t-44 18.5t-18 44.5t18 44t44 18z" glyph-name="period" horiz-adv-x="255" unicode="."/><glyph d="M657 788q12 12 30 12q25 0 48.5 -17.5t23.5 -34.5q0 -8 -6 -14q-69 -69 -163.5 -172t-208.5 -235t-191.5 -248.5t-77.5 -168.5q0 -11 -16 -11q-24 0 -50 22.5t-26 56.5q0 56 151 249.5t289.5 348t196.5 212.5z" glyph-name="slash" horiz-adv-x="459" unicode="/"/><glyph d="M400 701q96 0 96 -126q0 -75 -36.5 -175t-92.5 -188.5t-133.5 -150t-150.5 -61.5q-63 0 -93 38.5t-30 104.5q0 100 56.5 225t148 218t179.5 95q20 20 56 20zM144 122q50 0 116.5 92.5t112 206.5t45.5 178q0 29 -9.5 38t-32.5 9q-63 -28 -129.5 -115.5t-107.5 -184.5 t-41 -160q0 -64 46 -64z" glyph-name="zero" horiz-adv-x="456" unicode="0"/><glyph d="M376 700q25 0 49.5 -17t24.5 -35q0 -8 -6 -14q-105 -106 -227 -327t-122 -296q0 -11 -16 -11q-24 0 -50 22t-26 56q0 100 198 408q-8 -2 -13 -2q-36 0 -57 25t-21 53q0 29 21 29q18 0 82 19.5t104 40.5q17 23 22 29t15.5 13t21.5 7z" glyph-name="one" horiz-adv-x="366" unicode="1"/><glyph d="M240 102q45 0 78.5 -27t33.5 -52q0 -23 -32 -23q-28 0 -166 9.5t-156 9.5q-28 0 -53 26t-25 48q0 19 21 19q69 0 156 57.5t156 135.5t117 159.5t48 129.5q0 46 -45 46q-54 0 -108 -80t-54 -157q0 -21 -25 -21q-26 0 -51.5 23.5t-25.5 60.5q0 80 83.5 157t175.5 77 q62 0 101.5 -34.5t39.5 -93.5q0 -99 -93 -238t-215 -230z" glyph-name="two" horiz-adv-x="509" unicode="2"/><glyph d="M485 572q0 -75 -47.5 -141.5t-117.5 -100.5q37 -33 37 -91q0 -54 -30.5 -108t-92.5 -92.5t-139 -38.5q-64 0 -101 36t-37 92q0 83 76 159q21 21 45 21q21 0 21 -13q0 -6 -7 -13q-44 -44 -44 -90q0 -27 17.5 -43.5t52.5 -16.5q56 0 98.5 46.5t42.5 89.5q0 38 -36 38 q-15 0 -33.5 27t-18.5 48q0 16 15 16q47 0 91 21t72.5 52t45.5 65t17 61q0 44 -42 44q-61 0 -110.5 -68t-49.5 -130q0 -22 -25 -22q-26 0 -51 23t-25 60q0 77 79 137t166 60q61 0 96 -34t35 -94z" glyph-name="three" horiz-adv-x="485" unicode="3"/><glyph d="M510 700q26 0 50.5 -16.5t24.5 -35.5q0 -8 -6 -14q-109 -110 -229 -330q12 -16 12 -31q0 -23 -41 -23q-92 -179 -92 -239q0 -11 -16 -11q-24 0 -49.5 22t-25.5 56q0 51 56 163q-158 -13 -173 -13q-28 0 -53.5 26.5t-25.5 48.5q0 18 22 18q18 0 201.5 120t273.5 194 q17 23 22 29.5t15.5 18t17.5 14.5t16 3zM149 338q101 11 101 14h-1q5 0 17.5 19t29 48t18.5 32q-100 -72 -165 -113z" glyph-name="four" horiz-adv-x="495" unicode="4"/><glyph d="M494 688q34 0 34 -25t-34 -51t-81 -26q-46 0 -106 26q-55 -69 -97 -158q9 1 26 1q71 0 111 -52t40 -128q0 -67 -30 -128t-97 -104t-159 -43q-64 0 -101 36t-37 92q0 83 76 159q21 21 45 21q21 0 21 -13q0 -6 -7 -13q-44 -44 -44 -90q0 -27 17.5 -43.5t52.5 -16.5 q72 0 113 60t41 129q0 35 -12 58t-34 23q-18 0 -30 -8.5t-15 -15t-3 -8.5q0 -11 -16 -11q-24 0 -50 22t-26 56q0 54 47 130.5t91 120.5q12 12 32 12l18 -1q19 -1 47 -3t58.5 -4t60.5 -3t48 -1z" glyph-name="five" horiz-adv-x="467" unicode="5"/><glyph d="M378 700q23 0 40.5 -20t17.5 -39q0 -18 -19 -18q-53 0 -118.5 -57.5t-122.5 -142.5q50 32 88 32q53 0 82 -42.5t29 -107.5q0 -51 -18 -103.5t-51.5 -98t-88.5 -74.5t-121 -29q-72 0 -106 38t-34 104q0 101 66.5 233t167.5 228.5t188 96.5zM240 389q-51 0 -103 -66 t-52 -124q0 -61 55 -61q53 0 100 68t47 128q0 55 -47 55z" glyph-name="six" horiz-adv-x="436" unicode="6"/><glyph d="M432 699q2 0 5 0.5t4 0.5q25 0 48.5 -17.5t23.5 -34.5q0 -8 -6 -14q-116 -116 -265.5 -335.5t-149.5 -287.5q0 -11 -16 -11q-24 0 -50 22t-26 56q0 66 108.5 224.5t231.5 305.5q-112 -32 -157 -32q-48 0 -81.5 26t-33.5 51t34 25q28 0 164.5 11t154.5 11q8 0 11 -1z" glyph-name="seven" horiz-adv-x="439" unicode="7"/><glyph d="M437 575q0 -28 -13 -55t-41.5 -56t-50.5 -48t-64 -52q70 -144 70 -208q0 -74 -56 -115.5t-132 -41.5q-78 0 -135 42.5t-57 118.5q0 75 52 133.5t142 116.5q-38 85 -38 150t52.5 102.5t121.5 37.5q62 0 105.5 -32.5t43.5 -92.5zM248 157q0 52 -47 152q-106 -88 -106 -161 q0 -36 20 -55t49 -19q33 0 58.5 22.5t25.5 60.5zM225 456q67 42 100.5 72t33.5 62q0 29 -19 46t-46 17q-36 0 -63.5 -29t-27.5 -82q0 -32 22 -86z" glyph-name="eight" horiz-adv-x="422" unicode="8"/><glyph d="M298 700q70 0 103.5 -40.5t33.5 -110.5q0 -76 -37 -172.5t-92.5 -179.5t-129 -140t-139.5 -57q-39 0 -63.5 30.5t-24.5 61.5q0 28 20 28q120 0 241 142q-36 -18 -61 -18q-60 0 -90.5 41t-30.5 105q0 69 31.5 139t95.5 120.5t143 50.5zM222 386q38 0 66.5 21.5t42.5 54 t21 62.5t7 54q0 60 -45 60q-52 0 -97 -66.5t-45 -126.5q0 -59 50 -59z" glyph-name="nine" horiz-adv-x="435" unicode="9"/><glyph d="M275 427q26 0 44.5 -18t18.5 -44t-18 -44.5t-44 -18.5q-25 0 -44 18t-19 44t18.5 44.5t43.5 18.5zM169 205q25 0 44 -18t19 -44t-18.5 -44.5t-43.5 -18.5q-26 0 -44.5 18t-18.5 44t18 44.5t44 18.5z" glyph-name="colon" horiz-adv-x="292" unicode=":"/><glyph d="M169 222q26 0 43 -22t17 -42q0 -14 -9 -14q-21 0 -45 -29t-24 -41q0 -11 -11 -11q-10 0 -21.5 10t-11.5 21q0 41 16.5 84.5t45.5 43.5zM274 427q26 0 44.5 -18t18.5 -44t-18 -44.5t-44 -18.5q-25 0 -44 18t-19 44t18.5 44.5t43.5 18.5z" glyph-name="semicolon" horiz-adv-x="291" unicode=";"/><glyph d="M162 208q-17 2 -17 27q0 21 16 21q25 13 58 30.5t90.5 50.5t95 63.5t37.5 48.5q0 7 8 7q11 0 22 -11t11 -27q0 -62 -243 -176q64 -19 112 -54.5t48 -79.5q0 -32 -19 -48.5t-41 -16.5q-20 0 -20 12q0 26 -61 89.5t-95 63.5l-1 -1q-1 0 -1 1z" glyph-name="less" horiz-adv-x="483" unicode="&lt;"/><glyph d="M547 366q28 0 53 -18t25 -33q0 -12 -21 -12q-8 0 -135.5 -18.5t-144.5 -18.5q-45 0 -80 28.5t-35 54.5q0 24 32 24q22 0 158.5 -3.5t147.5 -3.5zM483 227q28 0 53 -18t25 -33q0 -12 -21 -12q-8 0 -135.5 -18.5t-144.5 -18.5q-45 0 -80 28.5t-35 54.5q0 24 32 24 q22 0 158.5 -3.5t147.5 -3.5z" glyph-name="equal" horiz-adv-x="625" unicode="="/><glyph d="M467 292q16 -3 16 -26q0 -22 -16 -22q-25 -13 -58 -30.5t-90.5 -50.5t-95 -63.5t-37.5 -48.5q0 -7 -8 -7q-11 0 -22 11t-11 27q0 63 244 176q-65 19 -113 54.5t-48 79.5q0 31 19.5 47.5t41.5 16.5q20 0 20 -11q0 -26 60.5 -89.5t94.5 -63.5l1 1q1 0 1 -0.5t1 -0.5z" glyph-name="greater" horiz-adv-x="483" unicode=">"/><glyph d="M600 750q60 0 93.5 -38.5t33.5 -92.5q0 -44 -33 -97t-80 -100.5t-94 -90.5t-80 -77.5t-33 -50.5t-20 -16q-19 0 -35 16.5t-16 46.5q0 28 48 78t105 96.5t105 103.5t48 98q0 32 -15.5 53t-44.5 21q-66 0 -129.5 -70t-63.5 -123q0 -12 8.5 -24.5t8.5 -16.5q0 -11 -14 -17.5 t-35 -6.5q-36 0 -64 20t-28 61q0 71 105 149t230 78zM295 143q30 0 50.5 -21t20.5 -51q0 -29 -20.5 -50t-50.5 -21q-29 0 -50 21t-21 50q0 30 21 51t50 21z" glyph-name="question" horiz-adv-x="546" unicode="?"/><glyph d="M580 607q105 0 158.5 -70.5t53.5 -177.5q0 -94 -36.5 -185t-108.5 -153.5t-160 -62.5q-80 0 -80 74q0 28 13 69q-99 -101 -167 -101q-69 0 -69 75q0 69 53.5 170t135 178t150.5 77q48 0 74.5 -24.5t35.5 -57.5q19 9 38 9q26 0 26 -13q0 -6 -6 -12q-42 -41 -101 -130 t-59 -134q0 -30 32 -30q42 0 79 40t57 100t20 122q0 81 -38 134.5t-116 53.5q-61 0 -125 -34.5t-116.5 -90t-95 -120t-66 -128.5t-23.5 -112q0 -89 79 -89q23 0 23 -16q0 -27 -47 -65t-92 -38q-51 0 -76.5 35.5t-25.5 97.5q0 65 26.5 145.5t78.5 161.5t120.5 149 t161.5 110.5t193 42.5zM339 149q48 0 186 153l8 8q32 43 52 65q-3 24 -19.5 43.5t-37.5 19.5q-30 0 -80 -54t-87.5 -119t-37.5 -97q0 -19 16 -19z" glyph-name="at" horiz-adv-x="792" unicode="@"/><glyph d="M1207 844q21 0 43 -21.5t22 -40.5q0 -8 -4 -12q-134 -134 -275.5 -381.5t-141.5 -354.5q0 -29 15.5 -39.5t31.5 -14t16 -14.5q0 -29 -53 -71t-104 -42q-33 0 -56.5 21t-23.5 65q0 30 11 76q-3 132 -52 250q-47 -65 -79.5 -108t-77 -97t-81.5 -88.5t-79.5 -66t-85 -46.5 t-84.5 -15q-72 0 -110.5 39t-38.5 81q0 34 23 34q70 0 141.5 28.5t145.5 86t132.5 114t137.5 141.5q-66 93 -130 93q-16 0 -40.5 -16t-29.5 -16q-22 0 -22 50q0 49 28 90.5t83 41.5q121 0 200 -147q85 92 138.5 145.5t127.5 115t141 90.5t131 29zM751 184q70 149 180.5 318 t209.5 282q-56 -18 -112 -57t-113 -101t-101 -118t-105 -140q29 -85 41 -184z" glyph-name="A" horiz-adv-x="922" unicode="A"/><glyph d="M721 835q79 -19 118 -69t39 -119q0 -77 -42.5 -162t-119 -156.5t-166.5 -105.5q78 -43 78 -122q0 -84 -86.5 -151t-227.5 -67q-81 0 -146 31q-1 -8 -2 -23.5t-2 -23t-8 -14.5t-20 -7q-40 0 -79.5 34t-39.5 93q0 33 20 81q-37 81 -37 176q0 18 14 35t27 17t13 -20 q0 -59 32 -112q142 241 496 626q-97 -24 -202.5 -96t-178.5 -167.5t-73 -174.5q0 -18 -17 -18q-28 0 -61 43.5t-33 108.5q0 40 30 90t86.5 99.5t129 91t168 67.5t192.5 26q16 0 24 -1q6 6 20.5 22.5t20 22l17.5 17.5t19 16.5t16.5 11t18.5 8.5t18 2q27 0 27 -14 q0 -5 -13.5 -21t-36.5 -39.5t-33 -35.5zM386 330q78 0 154 35t129 87.5t85.5 113t32.5 111.5q0 44 -26.5 72.5t-81.5 34.5q-134 -163 -268 -370.5t-200 -366.5q51 -20 103 -20q91 0 148.5 34.5t57.5 74.5q0 26 -28 43.5t-82 17.5q-23 0 -44 31t-21 61q0 41 41 41z" glyph-name="B" horiz-adv-x="678" unicode="B"/><glyph d="M843 267q7 7 15 7t13.5 -7t5.5 -16q0 -7 -4 -11q-3 -3 -25.5 -37t-52.5 -75t-80.5 -91.5t-107 -91t-135 -68t-161.5 -27.5q-143 0 -227 84.5t-84 216.5q0 86 33 174.5t88 163.5t127.5 141.5t150.5 113t158.5 73.5t150.5 27q111 0 165 -55t54 -145q0 -72 -33.5 -152 t-87.5 -147t-131 -111t-156 -44q-80 0 -128 46.5t-48 119.5q0 74 52.5 152t132.5 128t155 50q20 0 34.5 -12.5t14.5 -24.5q0 -14 -17 -14q-67 0 -149.5 -74t-82.5 -150q0 -29 25 -48t63 -19q68 0 134.5 54t106 129.5t39.5 140.5q0 53 -29.5 84t-91.5 31q-71 0 -167 -50.5 t-183 -129t-148 -187.5t-61 -213q0 -85 56.5 -144t159.5 -59q65 0 135.5 27t119.5 59.5t100.5 78.5t68 64.5t31.5 36.5z" glyph-name="C" horiz-adv-x="767" unicode="C"/><glyph d="M719 832q153 -44 153 -228q0 -70 -24 -152.5t-65.5 -161.5t-100 -153.5t-123.5 -130.5t-139.5 -90t-145.5 -34q-58 0 -107 26q-2 -7 -2.5 -27t-6.5 -28.5t-23 -8.5q-39 0 -79 34.5t-40 93.5q0 34 22 87q-38 86 -38 170q0 18 14.5 36.5t26.5 18.5q13 0 13 -23 q0 -59 26 -121q141 244 509 643q-63 -8 -144.5 -54t-151.5 -109.5t-118 -141t-48 -141.5q0 -19 -17 -19q-28 0 -61 43.5t-33 108.5q0 51 48 115t126.5 122t194.5 97.5t237 39.5h24q7 7 20.5 22.5t20 22l17.5 17.5t18 16t17 11t19 8.5t18 2.5q27 0 27 -14q0 -5 -13.5 -21 t-37 -40.5t-33.5 -36.5zM249 11q108 0 232.5 109t206.5 256.5t82 258.5q0 115 -97 142q-140 -172 -277 -386.5t-197 -372.5q21 -7 50 -7z" glyph-name="D" horiz-adv-x="762" unicode="D"/><glyph d="M600 489q69 0 143 84t74 153q0 67 -81 67q-65 0 -137 -53.5t-117.5 -127.5t-45.5 -132q0 -87 107 -87q39 0 39 -25q0 -14 -13.5 -26t-31.5 -12q-77 0 -145 -24.5t-111.5 -61.5t-68.5 -80.5t-25 -82.5q0 -44 32 -71.5t95 -27.5q58 0 124 27t113.5 59.5t98.5 78.5t67.5 64 t32.5 36l1 1q7 7 15 7t13.5 -6.5t5.5 -15.5q0 -7 -5 -12q-3 -3 -26 -36t-53 -73t-79.5 -89.5t-104 -88.5t-128.5 -66t-150 -27q-115 0 -177 55t-62 138q0 105 95 203.5t264 136.5q-57 41 -57 115q0 56 34 119t89 115t132 86.5t156 34.5q99 0 145.5 -42.5t46.5 -111.5 q0 -96 -74 -188t-160 -92q-34 0 -62.5 23t-28.5 42q0 14 20 14z" glyph-name="E" horiz-adv-x="678" unicode="E"/><glyph d="M1595 848q49 0 75.5 -27.5t26.5 -55.5q0 -19 -11 -19q-4 0 -11.5 6t-25.5 12t-47 6q-89 0 -327 -44q-34 -25 -75 -81.5t-110 -163.5l-21 -33h50q40 72 72 72q38 0 60 -23t22 -47q0 -20 -16 -20q-33 0 -79.5 -78.5t-46.5 -119.5q0 -11 -12 -11q-16 0 -36.5 17t-20.5 41 q0 32 25 97q-44 0 -65 -1q-60 -90 -112.5 -159.5t-129 -149.5t-151.5 -131.5t-172.5 -86.5t-198.5 -35q-111 0 -184.5 58t-73.5 159q0 113 96.5 226t246 184.5t296.5 71.5q128 0 138 -90q84 14 160 19q28 39 67.5 95t68 95.5t49.5 65.5q-157 -31 -224 -44t-168.5 -28.5 t-151.5 -15.5q-79 0 -115.5 48.5t-36.5 105.5q0 50 19 50q5 0 9 -4q54 -54 234 -54q149 0 483 46.5t424 46.5zM309 -56q76 0 155 35t153 99t135.5 131.5t127.5 154.5q-55 -5 -115 -17q-37 -107 -154 -201.5t-239 -94.5q-41 0 -64 20t-23 54q0 72 103.5 153t307.5 128 q-2 41 -57 41q-48 0 -110.5 -21.5t-124.5 -60.5t-114.5 -87t-85 -106t-32.5 -112q0 -56 38 -86t99 -30zM663 323q-124 -36 -190.5 -84t-66.5 -80q0 -20 27 -20q45 0 116 58.5t114 125.5z" glyph-name="F" horiz-adv-x="1117" unicode="F"/><glyph d="M647 399q25 25 60 25q26 0 26 -14q0 -4 -17 -26q-22 -29 -43 -56q-29 -47 -69 -133.5t-74 -156.5t-77 -139.5t-96.5 -109.5t-114.5 -40t-89.5 44t-28.5 99q0 26 6 43.5t15 17.5q5 0 9 -4q36 -36 77 -36q85 0 202 166q-116 -85 -214 -85q-92 0 -155.5 57.5t-63.5 171.5 q0 97 54 208t138.5 202t198.5 151t224 60q72 0 106.5 -35.5t34.5 -96.5q0 -83 -54.5 -183.5t-143 -173.5t-173.5 -73q-41 0 -66.5 32t-25.5 66q0 39 30 39q82 0 169.5 62.5t140 139.5t52.5 128q0 44 -45 44q-60 0 -144.5 -51t-160 -127t-129 -172.5t-53.5 -177.5 q0 -65 32 -102.5t98 -37.5q55 0 120.5 40t107.5 82.5t89 96.5z" glyph-name="G" horiz-adv-x="626" unicode="G"/><glyph d="M1221 926q27 0 49.5 -24.5t22.5 -44.5q0 -13 -13 -13q-63 0 -156 -93t-173.5 -218.5t-138 -260.5t-57.5 -213q0 -81 63 -81q17 0 17 -18q0 -29 -36.5 -62.5t-87.5 -33.5q-108 0 -108 128q0 25 7 69q-9 92 -49 169q-104 -178 -222.5 -299t-203.5 -121q-67 0 -101 43 t-34 91q0 40 20 40q4 0 27 -15t41 -15q71 0 180 110t214 270q-46 40 -87 40q-16 0 -36.5 -14t-25.5 -14q-20 0 -20 40q0 42 28 78t83 36q62 0 121 -64q123 209 123 298q0 41 -31 41q-46 0 -122 -47t-145.5 -112t-120.5 -139t-51 -123q0 -15 11.5 -34.5t11.5 -22.5 q0 -8 -13 -13.5t-31 -5.5q-41 0 -74.5 25t-33.5 77q0 65 58.5 148t142 152t182 116.5t173.5 47.5q112 0 112 -133q0 -144 -123 -385q25 -55 40 -113q59 155 161.5 320t216 279t189.5 114z" glyph-name="H" horiz-adv-x="803" unicode="H"/><glyph d="M625 844q112 0 112 -133q0 -101 -65 -258t-156.5 -298t-198 -243t-182.5 -102q-67 0 -101 43t-34 91q0 40 20 40q4 0 27 -15t41 -15q65 0 167.5 99t192 229.5t155 261t65.5 191.5q0 40 -31 40q-46 0 -122 -47t-145.5 -112t-120.5 -139t-51 -123q0 -15 11.5 -34.5 t11.5 -22.5q0 -8 -13 -13.5t-31 -5.5q-41 0 -74.5 25t-33.5 77q0 65 58.5 148t142 152t182 116.5t173.5 47.5zM140 -40q24 0 41 -17t17 -40q0 -24 -17 -41t-41 -17q-23 0 -40 17t-17 41q0 23 17 40t40 17z" glyph-name="I" horiz-adv-x="577" unicode="I"/><glyph d="M751 400q23 0 37.5 -12t14.5 -24q0 -9 -16 -12.5t-44 -5t-37 -2.5q-55 -101 -124.5 -195t-144.5 -170.5t-153 -122.5t-142 -46q-67 0 -104.5 35.5t-37.5 84.5q0 55 50.5 124.5t131 133.5t191 117.5t222.5 77.5q77 112 126 208.5t49 144.5q0 39 -33 39q-63 0 -169 -76 t-188.5 -178t-82.5 -167q0 -14 11.5 -34t11.5 -22q0 -20 -44 -20q-41 0 -74.5 25t-33.5 77q0 65 58.5 148t142 152t182.5 116.5t174 47.5q109 0 109 -125q0 -123 -99 -319h16zM207 -2q50 0 140 85.5t187 214.5q-142 -56 -253 -143.5t-111 -132.5q0 -24 37 -24z" glyph-name="J" horiz-adv-x="654" unicode="J"/><glyph d="M1093 844q50 0 82 -25.5t32 -49.5q0 -14 -15 -14q-70 0 -201.5 -87t-267 -213t-237.5 -251q61 -97 137 -173t122 -76q10 0 22.5 8.5t15.5 8.5q14 0 14 -34q0 -47 -32 -90.5t-95 -43.5q-62 0 -130.5 92.5t-120.5 219.5q-44 -65 -58 -100q-6 -15 -10 -39.5t-10.5 -33.5 t-25.5 -9q-36 0 -70 28t-34 80q0 61 154 266q0 31 13.5 57t28.5 26q9 0 9 -16q45 59 68.5 90.5t54 75.5t44 72t13.5 45q0 23 -28 23q-46 0 -122 -47t-145.5 -112t-120.5 -139t-51 -123q0 -15 11.5 -34.5t11.5 -22.5q0 -8 -13 -13.5t-32 -5.5q-40 0 -73.5 25t-33.5 76 q0 87 95 198t228 189t233 78q109 0 109 -92q0 -65 -60 -192q142 162 275.5 270t212.5 108z" glyph-name="K" horiz-adv-x="677" unicode="K"/><glyph d="M851 -26q8 8 14 8q12 0 12 -24q0 -43 -36 -87.5t-104 -44.5q-26 0 -61 12.5t-81 40t-79 48.5t-90.5 60.5t-79.5 54.5q-123 -126 -228 -126q-56 0 -87 31.5t-31 76.5q0 62 53.5 110t150.5 48q43 0 90 -11q38 49 98.5 145t115 180t116 167t124 132t117.5 49q83 0 83 -118 q0 -83 -39 -192.5t-97 -189t-106 -79.5q-42 0 -69 30.5t-27 59.5q0 20 15 20q42 0 102 83.5t101 178t41 134.5q0 16 -9 16q-29 0 -93 -105.5t-164.5 -278t-183.5 -277.5q53 -24 138 -72t143 -74.5t97 -26.5q33 0 54 21zM187 83q22 0 49 24q-33 14 -48 14q-10 0 -17.5 -7 t-7.5 -16q0 -15 24 -15z" glyph-name="L" horiz-adv-x="748" unicode="L"/><glyph d="M1268 749q1 0 3 0.5t3 0.5q21 0 42 -22t21 -40q0 -8 -4 -12q-102 -102 -219.5 -320t-117.5 -319q0 -54 41 -54q25 0 25 -17q0 -30 -53 -71.5t-104 -41.5q-34 0 -58 22.5t-24 69.5q0 104 99 298t221 363q-157 -146 -298 -323.5t-141 -266.5q0 -16 -26 -16q-33 0 -64.5 28 t-31.5 80q0 80 81.5 237t189.5 315q-81 -85 -170 -190.5t-172 -215t-137 -204.5t-54 -142q0 -16 -28 -16q-36 0 -70 28t-34 80q0 42 63.5 140.5t140 195.5t140 192t63.5 130q0 23 -27 23q-46 0 -122 -47t-145.5 -112t-120.5 -139t-51 -123q0 -15 11.5 -34.5t11.5 -22.5 q0 -8 -13 -13.5t-31 -5.5q-41 0 -74.5 25t-33.5 77q0 86 95 197t228 189t233 78q106 0 106 -92q0 -55 -39 -148q123 143 232 239t153 96q21 0 42 -22t21 -41q0 -8 -4 -12q-65 -65 -139 -185t-132 -250q113 155 261 284.5t211 129.5z" glyph-name="M" horiz-adv-x="1067" unicode="M"/><glyph d="M1054 844h5q21 0 42.5 -22t21.5 -40q0 -8 -4 -12q-107 -106 -252.5 -369t-145.5 -370q0 -22 9.5 -33.5t21 -13t21 -6t9.5 -13.5q0 -29 -53 -71t-104 -42q-32 0 -55.5 20.5t-23.5 63.5q0 109 117.5 333.5t256.5 417.5q-166 -156 -337.5 -356t-221.5 -317q-6 -15 -10.5 -39 t-11 -33t-24.5 -9q-36 0 -70 28t-34 80q0 42 60 134.5t132.5 182.5t132.5 178t60 121q0 23 -28 23q-46 0 -122 -47t-145.5 -112t-120.5 -139t-51 -123q0 -15 11.5 -34.5t11.5 -22.5q0 -8 -13 -13.5t-31 -5.5q-41 0 -74.5 25t-33.5 77q0 65 58 148t142 152t182.5 116.5 t173.5 47.5q109 0 109 -92q0 -70 -64 -200q143 159 274 273t179 114z" glyph-name="N" horiz-adv-x="803" unicode="N"/><glyph d="M683 844q123 0 184.5 -76t61.5 -200q0 -88 -29.5 -186.5t-87 -192t-132.5 -169.5t-175 -122t-207 -46q-130 0 -214 78t-84 222q0 119 60 245.5t152.5 224t211.5 160t229 62.5q7 0 11 -1q7 1 19 1zM318 -4q86 0 169.5 44.5t147 116t113 156t75 168.5t25.5 151 q0 63 -24.5 99t-73.5 36q-64 0 -132.5 -46.5t-118 -113t-82 -140t-32.5 -126.5q0 -81 71 -81q77 0 153 97t76 175q0 66 -64 66q-18 0 -18 12q0 13 18.5 26.5t45.5 13.5q49 0 74.5 -35t25.5 -93q0 -47 -16 -100.5t-48.5 -105.5t-76 -94.5t-104 -68.5t-127.5 -26 q-81 0 -130 48t-49 125q0 86 46 181t120 177q-110 -93 -180 -218t-70 -234q0 -96 50.5 -153t135.5 -57z" glyph-name="O" horiz-adv-x="829" unicode="O"/><glyph d="M706 836q89 -19 132 -71.5t43 -126.5q0 -76 -42.5 -163.5t-110.5 -160t-161 -120.5t-184 -48q-68 0 -120 44q-117 -221 -117 -328q0 -17 -27 -17q-39 0 -79 34t-40 94q0 98 182 346q-11 39 -11 81q0 18 14.5 36.5t27.5 18.5q8 0 10.5 -9t4.5 -27t7 -31q135 174 330 387 q-97 -24 -202.5 -96t-178.5 -167t-73 -174q0 -19 -17 -19q-28 0 -61 43.5t-33 108.5q0 40 30 90t86.5 99.5t129 91t168 67.5t192.5 26h24q5 5 16.5 18t16 17.5t14.5 15t14.5 14.5t13 11t14.5 10l13 6.5t14 5t14 1.5q27 0 27 -14q0 -5 -13.5 -20.5t-35.5 -38.5t-32 -35z M369 290q91 0 188 66.5t157.5 157t60.5 163.5q0 45 -27.5 73.5t-85.5 33.5q-184 -224 -338 -485q21 -9 45 -9z" glyph-name="P" horiz-adv-x="701" unicode="P"/><glyph d="M754 -33q9 9 16 9q20 0 20 -40q0 -45 -29.5 -84t-86.5 -39q-41 0 -108 23t-128.5 51t-143 51t-147.5 23q-32 0 -59 33.5t-27 64.5q0 34 35 34q115 0 219 36.5t178.5 95t130 130.5t83 144.5t27.5 134.5q0 70 -36 111.5t-106 41.5q-71 0 -151.5 -48t-142.5 -116 t-103.5 -144t-41.5 -129q0 -78 87 -78q77 0 162.5 62.5t139 142.5t53.5 135t-60 55q-20 0 -20 12q0 11 15.5 20.5t40.5 9.5q95 0 95 -100q0 -48 -24 -109t-69.5 -122.5t-104 -113t-134.5 -83.5t-154 -32q-82 0 -131 48t-49 126q0 106 88.5 229t224.5 207.5t260 84.5 q125 0 186.5 -63t61.5 -168t-56.5 -224.5t-163.5 -225.5t-236 -158q31 -6 90.5 -18.5t92 -19t73 -12.5t66.5 -6q49 0 67 18z" glyph-name="Q" horiz-adv-x="681" unicode="Q"/><glyph d="M706 836q89 -19 132 -71t43 -127q0 -101 -68.5 -214t-183.5 -193t-234 -84q78 -89 154.5 -149t118.5 -60q10 0 21 7t13 7q14 0 14 -34q0 -47 -31.5 -90.5t-94.5 -43.5q-50 0 -115.5 59.5t-122 142t-104.5 176.5q-102 -199 -102 -299q0 -17 -27 -17q-40 0 -79.5 34 t-39.5 93q0 99 181 344q-16 48 -16 74q0 30 17.5 47.5t29.5 17.5q8 0 11 -9t5 -27t7 -31q141 181 330 387q-97 -24 -202.5 -96t-178.5 -167.5t-73 -174.5q0 -19 -17 -19q-28 0 -61 43.5t-33 108.5q0 40 30 90t86.5 100t129 91.5t168 67.5t192.5 26q4 0 12 -0.5t12 -0.5 q6 6 20.5 22.5t20 22l17.5 17.5t19 16.5t16.5 11t18.5 8.5t18 2q27 0 27 -14q0 -5 -13 -20.5t-35.5 -39t-32.5 -35.5zM369 290q91 0 188 66.5t157.5 157t60.5 163.5q0 45 -27.5 73.5t-85.5 33.5q-180 -218 -338 -485q25 -9 45 -9z" glyph-name="R" horiz-adv-x="701" unicode="R"/><glyph d="M515 844q94 0 137.5 -48t43.5 -126q0 -107 -67.5 -212.5t-140.5 -105.5q-42 0 -72.5 33t-30.5 63q0 23 22 23q58 0 106 41t72 95t24 104q0 37 -15.5 59.5t-45.5 22.5q-53 0 -121 -46t-117.5 -115.5t-49.5 -129.5q0 -39 15 -73.5t37 -58t48.5 -49t48.5 -48t37 -55 t15 -69.5q0 -72 -53 -136.5t-127 -99.5t-142 -35q-69 0 -104 41t-35 94q0 36 13.5 63t31.5 27q8 0 16 -8q50 -51 134 -51q71 0 129 34t58 76q0 20 -20 41.5t-50.5 40t-66 44.5t-66 54.5t-50.5 70.5t-20 91q0 80 63 162t158 134t185 52z" glyph-name="S" horiz-adv-x="496" unicode="S"/><glyph d="M1221 942q5 5 9 5q9 0 15 -16.5t6 -40.5q0 -53 -30 -96.5t-93 -43.5q-90 0 -316 48t-330 48q-147 0 -234 -65.5t-87 -145.5q0 -58 50 -96.5t143 -38.5q102 0 198.5 38t140.5 80q39 38 71 38q27 0 27 -15q0 -6 -7 -13q-152 -151 -319 -423t-167 -397q0 -14 -16 -14 q-32 0 -70.5 41t-38.5 104q0 136 387 542q-149 -64 -296 -64q-128 0 -196 55t-68 137q0 53 29 105t82.5 95.5t140 70.5t190.5 27q80 0 260 -13.5t260 -13.5q198 0 259 62z" glyph-name="T" horiz-adv-x="511" unicode="T"/><glyph d="M1092 836q8 8 20 8q20 0 41.5 -21.5t21.5 -40.5q0 -8 -4 -12q-71 -71 -180 -222t-196.5 -308t-87.5 -221q0 -17 8.5 -25.5t19.5 -9.5t19.5 -5.5t8.5 -13.5q0 -29 -53 -71t-104 -42q-30 0 -53 18t-23 56q0 55 43 154q-146 -146 -237 -146q-51 0 -88 30.5t-37 86.5 q0 55 61.5 152.5t135.5 184.5t135.5 169.5t61.5 111.5q0 21 -27 21q-40 0 -114.5 -49t-146 -116t-125 -143t-53.5 -125q0 -15 11 -33t11 -21q0 -20 -47 -20q-43 0 -78.5 25t-35.5 77q0 64 63.5 147.5t152 152.5t186.5 116.5t164 47.5q107 0 107 -80q0 -53 -47.5 -145.5 t-104 -174t-104 -159.5t-47.5 -106q0 -21 23 -21q39 0 138 102.5t199 228.5t209.5 262.5t152.5 179.5z" glyph-name="U" horiz-adv-x="805" unicode="U"/><glyph d="M1176 844q50 0 83.5 -25.5t33.5 -48.5q0 -15 -18 -15q-52 0 -118 -48.5t-131.5 -126.5t-135.5 -172t-138.5 -188t-132 -172t-124.5 -126.5t-108 -48.5q-45 0 -85 36t-40 92q0 54 54 156t119 195.5t119 184.5t54 126q0 27 -30 27q-54 0 -159.5 -60.5t-192.5 -145 t-87 -141.5q0 -13 11 -30.5t11 -20.5q0 -9 -13.5 -14.5t-33.5 -5.5q-43 0 -78.5 25t-35.5 76q0 73 104 163.5t238.5 151.5t223.5 61q117 0 117 -105q0 -61 -40 -160.5t-88.5 -186t-88.5 -167.5t-40 -109q0 -19 18 -19q23 0 74 62.5t112 156t136.5 202.5t145.5 202.5 t141.5 156t122.5 62.5z" glyph-name="V" horiz-adv-x="793" unicode="V"/><glyph d="M1460 844q50 0 83.5 -25.5t33.5 -48.5q0 -15 -18 -15q-52 0 -118 -48.5t-131.5 -126.5t-135.5 -172t-138.5 -188t-132 -172t-124.5 -126.5t-108 -48.5q-50 0 -82.5 30.5t-32.5 87.5q0 62 60 190t137 254q-134 -126 -266.5 -276t-132.5 -189q0 -16 -29 -16q-36 0 -70 28 t-34 80q0 41 58.5 131t129 176.5t129 171.5t58.5 117q0 23 -28 23q-46 0 -122 -47t-145.5 -112t-120.5 -139t-51 -123q0 -15 11.5 -34.5t11.5 -22.5q0 -8 -13 -13.5t-31 -5.5q-41 0 -74.5 25t-33.5 77q0 65 58 148t142 152t182.5 116.5t173.5 47.5q110 0 110 -83 q0 -37 -24 -96t-49.5 -105t-76 -132.5t-70.5 -122.5q125 142 256 257.5t181 115.5q27 0 51 -13t24 -28q0 -7 -6 -13q-41 -42 -140 -237t-99 -259q0 -22 15 -22q23 0 74 61.5t112 154t136.5 200.5t145.5 200.5t141.5 154t122.5 61.5z" glyph-name="W" horiz-adv-x="1077" unicode="W"/><glyph d="M977 844q50 0 82 -25.5t32 -49.5q0 -14 -15 -14q-52 0 -112 -34.5t-126 -100.5t-123 -134.5t-129 -163.5q-10 -104 -10 -149q0 -91 28.5 -140.5t100.5 -49.5q22 0 22 -17q0 -29 -51 -72t-101 -43q-60 0 -88.5 65t-28.5 166q0 36 3 73q-132 -176 -214 -264.5t-138 -88.5 q-29 0 -51 18t-22 34q0 14 19 14q26 0 66 34t88 92t103.5 132t115.5 156q38 53 57 79q31 211 31 261q0 79 -36 79q-50 0 -135.5 -74t-152 -175t-66.5 -168q0 -18 13 -41t13 -25q0 -8 -13 -13.5t-31 -5.5q-41 0 -74.5 25t-33.5 77q0 88 70.5 194t179.5 180.5t208 74.5 q81 0 112.5 -54.5t31.5 -154.5v-25q119 153 213 240.5t162 87.5z" glyph-name="X" horiz-adv-x="641" unicode="X"/><glyph d="M1015 836q8 8 20 8q20 0 41.5 -21.5t21.5 -40.5q0 -8 -4 -12q-71 -71 -180 -222t-196.5 -308t-87.5 -221q0 -17 9 -25.5t19 -9.5t19 -5.5t9 -13.5q0 -29 -53 -71t-104 -42q-30 0 -53 18t-23 56q0 99 134 327q-135 -125 -220 -125q-49 0 -82 31t-33 87q0 39 30.5 93.5 t74 106.5t87 100t74 86.5t30.5 54.5q0 13 -20 13q-62 0 -157.5 -64t-166 -147t-70.5 -134q0 -12 9 -26t9 -17q0 -8 -13 -13.5t-31 -5.5q-41 0 -74.5 25t-33.5 77q0 73 91.5 158t213.5 140.5t211 55.5q98 0 98 -65q0 -38 -32.5 -100.5t-72 -117t-72 -109t-32.5 -78.5 q0 -22 29 -22q38 0 121.5 75.5t163.5 167t171.5 197.5t124.5 139z" glyph-name="Y" horiz-adv-x="728" unicode="Y"/><glyph d="M959 740q0 -40 -40 -80t-96.5 -71t-113.5 -57.5t-97 -50.5t-40 -40t26 -35q90 21 167 21q23 0 37 -11.5t14 -24.5q0 -14 -16 -14q-70 0 -149 -19q10 -18 10 -42q0 -62 -48 -149.5t-120 -166.5t-168.5 -134.5t-182.5 -55.5q-67 0 -104.5 35.5t-37.5 84.5q0 98 143 230.5 t335 207.5q-32 13 -50.5 30.5t-18.5 46.5q0 37 49 78t119.5 74t140.5 63.5t119 56.5t49 43q0 14 -40 14q-69 0 -194.5 -33t-233 -88t-107.5 -104q0 -9 12 -26.5t12 -21.5q0 -8 -13 -13.5t-32 -5.5q-40 0 -73.5 25t-33.5 76q0 62 58 113.5t147.5 82.5t188 48t187.5 17 q88 0 141.5 -29t53.5 -75zM565 305q0 15 -10 24q-153 -56 -272.5 -152.5t-119.5 -148.5q0 -29 44 -29q48 0 136 64.5t155 138.5t67 103z" glyph-name="Z" horiz-adv-x="649" unicode="Z"/><glyph d="M513 748q12 12 30 12q5 0 17 -2q10 -2 41.5 -12t62.5 -16.5t59 -6.5q21 0 21 -12q0 -15 -25 -33.5t-53 -18.5q-14 0 -90 -4q-101 -123 -231 -338t-180 -352q78 -4 94 -4q28 0 53 -18.5t25 -33.5q0 -12 -21 -12q-42 0 -106 -18t-72 -19q-30 0 -54 24.5t-24 54.5 q0 57 99.5 244.5t208.5 358t145 206.5z" glyph-name="bracketleft" horiz-adv-x="374" unicode="["/><glyph d="M397 788q12 12 30 12q25 0 48.5 -17.5t23.5 -34.5q0 -4 -6 -14q-58 -99 -125 -394.5t-76 -429.5q0 -11 -16 -11q-24 0 -50 22.5t-26 56.5q0 106 75 434.5t122 375.5z" glyph-name="backslash" horiz-adv-x="379" unicode="\"/><glyph d="M91 -128q-12 -12 -30 -12q-5 0 -17 2q-10 2 -41.5 12t-62.5 16.5t-59 6.5q-21 0 -21 12q0 15 25 33.5t53 18.5q14 0 90 4q101 123 231 338t180 352q-78 4 -94 4q-28 0 -53 18.5t-25 33.5q0 12 21 12q42 0 106 18t72 19q30 0 54 -24.5t24 -54.5q0 -57 -99.5 -244.5 t-208.5 -358t-145 -206.5z" glyph-name="bracketright" horiz-adv-x="374" unicode="]"/><glyph d="M514 558q9 0 9 -17q0 -13 -7.5 -24t-21.5 -11q-40 0 -55 83q-38 -47 -68 -47q-26 0 -43.5 22t-17.5 42q0 14 10 14q21 0 67 30t46 39q0 11 11 11q20 0 28.5 -22t8.5 -49t7.5 -49t25.5 -22z" glyph-name="asciicircum" horiz-adv-x="270" unicode="^"/><glyph d="M509 46q28 0 53 -18t25 -33q0 -12 -21 -12q-8 0 -221 -18.5t-230 -18.5q-45 0 -80 28.5t-35 55.5q0 24 32 24q23 0 244.5 -4t232.5 -4z" glyph-name="underscore" horiz-adv-x="587" unicode="_"/><glyph d="M132 700q29 0 45.5 -43.5t16.5 -84.5q0 -11 -11.5 -20.5t-22.5 -9.5t-11 11q0 12 -23.5 40.5t-44.5 28.5q-10 0 -10 14q0 20 17.5 42t43.5 22z" glyph-name="grave" unicode="`"/><glyph d="M510 267q6 6 13 6q8 0 14 -7t6 -15q0 -7 -4 -11q-2 -2 -30.5 -43.5t-60 -83t-76.5 -77.5t-80 -36q-65 0 -65 59q0 15 5 38q-95 -97 -163 -97q-69 0 -69 75q0 69 53.5 170t135 178t150.5 77q85 0 111 -82q20 9 38 9q26 0 26 -13q0 -6 -7 -12q-38 -38 -90.5 -120.5 t-52.5 -116.5q0 -16 15 -16q14 0 40.5 23.5t57.5 58t33 36.5zM156 149q47 0 185 151q32 43 61 75q-3 24 -20 43.5t-37 19.5q-30 0 -80 -54t-87.5 -119t-37.5 -97q0 -19 16 -19z" glyph-name="a" horiz-adv-x="433" unicode="a"/><glyph d="M409 497q76 0 76 -86q0 -53 -30.5 -124.5t-77.5 -135t-111 -107.5t-125 -44q-121 0 -121 104q0 64 45 163t108 192.5t120.5 168t93.5 110.5q12 12 31 12q24 0 48 -18t24 -35q0 -7 -6 -13q-138 -138 -237 -275q101 88 162 88zM159 144q40 0 100 57.5t102.5 123.5t42.5 95 q0 13 -11 13q-32 0 -125.5 -80t-130.5 -139q-7 -26 -7 -38q0 -32 29 -32z" glyph-name="b" horiz-adv-x="420" unicode="b"/><glyph d="M403 266q6 6 13 6q8 0 14.5 -7t6.5 -15q0 -6 -5 -11l-17 -21q-17 -21 -38 -46t-55 -56.5t-68 -56.5t-76.5 -42.5t-81.5 -17.5q-96 0 -96 96q0 73 52 168.5t135.5 166.5t162.5 71q75 0 75 -60q0 -46 -39.5 -97t-75.5 -51q-14 0 -25 13t-11 25q0 11 11 11q21 0 45.5 32 t24.5 54q0 15 -14 15q-25 0 -70.5 -43t-83 -102.5t-37.5 -99.5q0 -50 63 -50q14 0 29.5 4.5t29.5 11t30 17t27.5 19.5t25 20.5t21 18.5t17 16.5z" glyph-name="c" horiz-adv-x="327" unicode="c"/><glyph d="M662 738q12 12 30 12q24 0 48 -18t24 -35q0 -7 -6 -13q-118 -118 -247.5 -295.5t-129.5 -226.5q0 -13 12 -13q11 0 31.5 16.5t38 35t38 41t23.5 25.5q6 6 14 6t14 -7t6 -15q0 -7 -4 -11q-2 -2 -30.5 -43.5t-60 -83t-76.5 -77.5t-80 -36q-63 0 -63 60q0 26 12 62 q-112 -122 -187 -122q-69 0 -69 75q0 69 53.5 170t135 178t150.5 77q67 0 98 -52q66 96 133.5 181t91.5 109zM156 149q45 0 187 153q23 39 55 88q-6 20 -21 34t-32 14q-30 0 -80 -54t-87.5 -119t-37.5 -97q0 -19 16 -19z" glyph-name="d" horiz-adv-x="444" unicode="d"/><glyph d="M403 266q6 6 13 6q8 0 14.5 -7t6.5 -15q0 -6 -5 -11l-17 -21q-17 -21 -38 -46t-55 -56.5t-68 -56.5t-76.5 -42.5t-81.5 -17.5q-96 0 -96 96q0 73 52 168.5t135.5 166.5t162.5 71q60 0 60 -59q0 -46 -35 -104.5t-97 -103t-127 -45.5q7 -41 62 -41q14 0 29.5 4.5t29.5 11 t30 17t27.5 19.5t25 20.5t21 18.5t17 16.5zM341 443q-31 0 -90 -63.5t-87 -126.5q62 9 123.5 77.5t61.5 102.5q0 10 -8 10z" glyph-name="e" horiz-adv-x="327" unicode="e"/><glyph d="M399 738q12 12 30 12q25 0 48.5 -17.5t23.5 -34.5q0 -8 -6 -14q-120 -120 -257 -324q28 -22 28 -96q0 -50 -12 -108q23 15 51 44.5t47 50.5t26 21q8 0 14.5 -7t6.5 -15q0 -6 -5 -11q-1 -1 -19 -28.5t-40.5 -59t-56 -68.5t-63.5 -58q-44 -118 -110 -196.5t-139 -78.5 q-86 0 -86 86q0 80 72.5 228.5t167 290.5t174 249.5t105.5 133.5zM43 -101q35 0 86 105q-18 9 -37 26t-28 34q-44 -91 -44 -135q0 -30 23 -30zM187 153q20 65 20 110q0 25 -8 39q-36 -56 -66 -108q11 -32 54 -41z" glyph-name="f" horiz-adv-x="291" unicode="f"/><glyph d="M451 421q17 6 32 6q26 0 26 -13q0 -5 -7 -12q-33 -34 -70 -99.5t-67 -135.5t-69 -145.5t-77 -134.5t-90.5 -97t-110.5 -38q-61 0 -89.5 42t-28.5 95q0 25 6 41.5t15 16.5q5 0 9 -4q36 -36 76 -36q81 0 192 156q-72 -63 -126 -63q-69 0 -69 75q0 69 53.5 170t134.5 178 t150 77q84 0 110 -79zM158 149q15 0 38.5 14.5t50.5 39.5t46.5 44.5t42.5 44.5l22 25q29 44 45 63q-5 23 -21 40.5t-35 17.5q-30 0 -80 -54t-87.5 -119t-37.5 -97q0 -19 16 -19z" glyph-name="g" horiz-adv-x="399" unicode="g"/><glyph d="M481 502q20 -2 40 -23t20 -39q0 -7 -5 -12q-57 -57 -120 -143.5t-63 -120.5q0 -17 18 -17q14 0 40.5 23.5t57.5 58t33 36.5q6 6 14 6t14 -7t6 -15q0 -7 -4 -11q-3 -2 -31 -43t-60 -83t-76.5 -78t-79.5 -36q-70 0 -70 67q0 55 42.5 141t104.5 172q-97 -86 -188 -201.5 t-91 -165.5q-3 -11 -17 -11q-24 0 -50 22t-26 56q0 56 93 207.5t191 282t138 170.5q12 12 30 12q24 0 48 -18t24 -35q0 -7 -6 -13q-196 -196 -309 -371q81 81 158.5 135t123.5 54z" glyph-name="h" horiz-adv-x="431" unicode="h"/><glyph d="M370 704q36 0 57 -25t21 -53t-20 -28q-24 0 -62 -34t-38 -63q0 -12 -18 -12q-15 0 -28 10.5t-13 30.5q0 44 31 109t70 65zM263 268q6 6 13 6q8 0 14 -7t6 -15q0 -7 -4 -11q-2 -2 -30.5 -43.5t-60 -83t-76.5 -77.5t-80 -36q-65 0 -65 59q0 46 45.5 134t109 161t106.5 73 q26 0 26 -13q0 -6 -7 -12q-38 -38 -90.5 -120.5t-52.5 -116.5q0 -16 15 -16q14 0 40.5 23.5t57.5 58t33 36.5z" glyph-name="i" horiz-adv-x="188" unicode="i"/><glyph d="M163 402q25 25 60 25q26 0 26 -13q0 -6 -7 -12q-33 -34 -70 -99.5t-67 -135.5t-69 -145.5t-77 -134.5t-90.5 -97t-110.5 -38q-61 0 -89.5 42t-28.5 95q0 25 6 41.5t15 16.5q5 0 9 -4q36 -36 76 -36q53 0 116.5 64.5t111.5 144.5t103 168t86 118zM371 705q36 0 57 -25 t21 -53q0 -29 -21 -29q-23 0 -61.5 -33.5t-38.5 -62.5q0 -13 -19 -13q-15 0 -27.5 11t-12.5 31q0 25 12.5 65t37.5 74.5t52 34.5z" glyph-name="j" horiz-adv-x="139" unicode="j"/><glyph d="M503 269q6 6 13 6q9 0 15 -7.5t6 -16.5q0 -7 -4 -11q-1 -1 -30 -43.5t-60.5 -83.5t-76.5 -77t-80 -36q-48 0 -83.5 52t-46.5 120q-73 -113 -73 -160q-1 0 -1 1q0 -12 -16 -12q-24 0 -50 22.5t-26 56.5q0 56 93 207.5t191 282t138 170.5q12 12 30 12q24 0 48 -18t24 -35 q0 -7 -6 -13q-130 -130 -229 -258q88 76 139 76q42 0 63 -21.5t21 -56.5q0 -66 -61 -139.5t-153 -98.5q15 -39 50 -39q15 0 33.5 8t33.5 18.5t33 26.5t28 26.5t23 25t14 15.5zM407 448q-20 0 -72 -52t-110 -127q63 24 126.5 85.5t63.5 86.5q0 7 -8 7z" glyph-name="k" horiz-adv-x="427" unicode="k"/><glyph d="M408 738q12 12 30 12q24 0 48 -18t24 -35q0 -7 -6 -13q-118 -118 -247.5 -295.5t-129.5 -226.5q0 -13 12 -13q11 0 31.5 16.5t38 35t38 41t23.5 25.5q6 6 14 6t14 -7t6 -15q0 -7 -4 -11q-2 -2 -31 -43.5t-60.5 -83t-76 -77.5t-79.5 -36q-63 0 -63 60q0 58 56.5 167 t132 215t139.5 188t90 108z" glyph-name="l" horiz-adv-x="200" unicode="l"/><glyph d="M666 504q20 -2 40 -23.5t20 -38.5q0 -8 -4 -12q-58 -58 -121 -144t-63 -120q0 -17 18 -17q11 0 31.5 16.5t38 35t38 41t23.5 25.5q6 6 14 6t14 -7t6 -15q0 -7 -4 -11q-2 -2 -30.5 -43.5t-60 -83t-76.5 -77.5t-80 -36q-70 0 -70 67q0 54 41.5 138.5t102.5 169.5 q-83 -76 -161.5 -177t-78.5 -137q0 -12 -15 -12q-23 0 -50 23.5t-27 55.5q0 26 36 97t87 152q-95 -102 -174 -211t-79 -153q0 -13 -16 -13q-24 0 -50 23t-26 57q0 72 86.5 201t156.5 198q25 25 59 25q26 0 26 -13q0 -2 -20 -27t-53.5 -72t-59.5 -91q86 99 166 169t117 70 q20 0 41.5 -21.5t21.5 -40.5q0 -5 -15.5 -25.5t-40 -52.5t-38.5 -54q70 69 133 113.5t96 44.5z" glyph-name="m" horiz-adv-x="616" unicode="m"/><glyph d="M479 506q20 -2 40 -23.5t20 -38.5q0 -8 -4 -12q-58 -58 -120.5 -143.5t-62.5 -120.5q0 -17 18 -17q14 0 40.5 23.5t57.5 58t33 36.5q6 6 13 6q8 0 14 -7t6 -15q0 -7 -4 -11q-2 -2 -30.5 -43.5t-60 -83t-76.5 -77.5t-80 -36q-70 0 -70 67q0 54 42.5 140t104.5 173 q-96 -86 -187 -201.5t-91 -165.5q0 -13 -16 -13q-24 0 -50 23t-26 57q0 72 86.5 201t156.5 198q25 25 59 25q26 0 26 -13q0 -2 -19.5 -27t-53 -71t-59.5 -90q83 85 164.5 143t128.5 58z" glyph-name="n" horiz-adv-x="429" unicode="n"/><glyph d="M483 267q6 6 13 6q8 0 14 -7t6 -15q0 -7 -4 -11q-1 -1 -8.5 -9.5t-15 -16t-22 -19t-30 -20.5t-38 -17.5t-46.5 -13.5q-55 -65 -118.5 -105t-123.5 -40q-51 0 -75.5 26.5t-24.5 72.5q0 67 45 153.5t119 154.5t146 79q30 16 62 16q92 0 92 -92q0 -82 -69 -192q38 13 78 50z M374 446q-33 0 -65.5 -60.5t-32.5 -116.5q0 -32 14 -49q44 48 75.5 106.5t31.5 92.5q0 27 -23 27zM197 313q-51 -77 -51 -128q0 -37 31 -37q20 0 45 14q-34 31 -34 89q0 31 9 62z" glyph-name="o" horiz-adv-x="416" unicode="o"/><glyph d="M393 496q76 0 76 -86q0 -53 -30.5 -124.5t-77.5 -135t-111 -107.5t-125 -44q-66 0 -92 48q-91 -185 -91 -285q0 -13 -20 -13q-28 0 -60 23t-32 57q0 47 53 147t123 201.5t134.5 186t92.5 112.5q25 25 60 25q26 0 26 -13q0 -7 -30 -37q60 45 104 45zM143 143q40 0 100 57 t102.5 123t42.5 95q0 13 -11 13q-26 0 -73.5 -38.5t-80 -73.5t-79.5 -89q0 -2 -3 -3q-25 -33 -25 -56q0 -28 27 -28z" glyph-name="p" horiz-adv-x="409" unicode="p"/><glyph d="M450 418q20 9 38 9q26 0 26 -13q0 -6 -7 -12q-90 -91 -206.5 -307.5t-116.5 -330.5q0 -13 -19 -13q-28 0 -60 23.5t-32 57.5q0 64 80 198q-48 -30 -84 -30q-69 0 -69 75q0 69 53.5 170t135 178t150.5 77q85 0 111 -82zM156 149q47 0 183 149q25 32 63 77 q-3 24 -19.5 43.5t-37.5 19.5q-30 0 -80 -54t-87.5 -119t-37.5 -97q0 -19 16 -19z" glyph-name="q" horiz-adv-x="404" unicode="q"/><glyph d="M373 495q8 8 20 8q20 0 41.5 -21.5t21.5 -40.5q0 -8 -4 -12q-58 -58 -120.5 -143.5t-62.5 -119.5q0 -17 18 -17q11 0 31.5 16.5t37 34t38 41.5t23.5 26q6 6 13 6q9 0 15 -7t6 -16q0 -7 -4 -11q-2 -2 -30.5 -43.5t-60 -83t-76.5 -77.5t-80 -36q-70 0 -70 67q0 59 49 153.5 t117 184.5q-21 -5 -50 -5q-26 0 -46 6q-25 -78 -72 -164.5t-92 -130.5q-6 -6 -14 -6q-15 0 -31 18.5t-16 32.5q0 6 3 9q170 168 170 299q0 16 17 29t34 13q18 0 18 -16t17 -25.5t42 -9.5q56 0 97 41z" glyph-name="r" horiz-adv-x="346" unicode="r"/><glyph d="M432 500q20 0 30 -12.5t10 -28.5q0 -27 -15 -27q-16 0 -32 -44.5t-33 -108t-40 -127t-63.5 -108t-93.5 -44.5q-37 0 -65 22t-42.5 52t-23.5 68.5t-11.5 65t-2.5 48.5q0 17 9.5 27t21.5 10q10 0 15 -8q79 62 193.5 138.5t142.5 76.5zM173 149q20 0 39 15t38 46t32.5 58 t34 71t30.5 65q-181 -117 -242 -174q17 -81 68 -81z" glyph-name="s" horiz-adv-x="382" unicode="s"/><glyph d="M566 612q15 -15 15 -40q0 -29 -15 -29q-6 0 -12 7q-21 21 -69 21q-36 0 -94 -12q-103 -121 -183.5 -240t-80.5 -157q0 -13 12 -13q11 0 31.5 16.5t38 35t38 41t23.5 25.5q6 6 14 6t14 -7t6 -15q0 -7 -4 -11q-2 -2 -31 -43.5t-60.5 -83t-76 -77.5t-79.5 -36q-63 0 -63 60 q0 127 252 471q-13 -2 -37 -2q-51 0 -72.5 26.5t-21.5 66.5q0 20 5.5 33.5t13.5 13.5q4 0 8 -4q32 -32 124 -32q19 0 59 2q72 90 88 103q14 12 29 12q24 0 48 -18t24 -35q0 -5 -7.5 -14.5t-21.5 -23t-18 -18.5q76 -2 103 -29z" glyph-name="t" horiz-adv-x="201" unicode="t"/><glyph d="M463 497q8 8 20 8q20 0 41.5 -21.5t21.5 -40.5q0 -8 -4 -12q-58 -58 -120.5 -143.5t-62.5 -120.5q0 -17 18 -17q14 0 40.5 23.5t57.5 58t33 36.5q6 6 13 6q8 0 14.5 -7t6.5 -15q0 -6 -5 -11q-2 -2 -30.5 -43.5t-60 -83t-76.5 -77.5t-80 -36q-70 0 -70 67q0 24 12 65 q-117 -131 -194 -131q-68 0 -68 55q0 70 92.5 200.5t172.5 211.5q25 25 60 25q26 0 26 -14q-8 -11 -22 -29t-49.5 -66t-62.5 -88t-49 -80t-22 -56q0 -10 8 -10q20 0 91.5 73t154 167.5t93.5 105.5z" glyph-name="u" horiz-adv-x="436" unicode="u"/><glyph d="M384 491q0 24 27 24q23 0 45 -16.5t22 -37.5q0 -19 -22 -70.5t-62 -117t-87.5 -127t-106.5 -103.5t-111 -42q-79 0 -79 78t69.5 202t141.5 196q25 25 60 25q26 0 26 -13q0 -6 -7 -12q-62 -62 -113 -157.5t-51 -143.5q0 -26 19 -26q26 0 82 69.5t101.5 152.5t45.5 119z " glyph-name="v" horiz-adv-x="378" unicode="v"/><glyph d="M571 492q0 24 27 24q23 0 45 -16.5t22 -37.5q0 -19 -22 -70.5t-62 -117t-87.5 -127t-106.5 -103.5t-111 -42q-68 0 -73 69q-55 -70 -114 -70q-79 0 -79 78t69.5 202t141.5 196q25 25 60 25q26 0 26 -13q0 -6 -7 -12q-51 -51 -110.5 -157t-59.5 -150q0 -20 15 -20 q24 0 51 37t70.5 104t87.5 112q27 27 63 27q26 0 26 -13q0 -6 -7 -12q-43 -44 -75 -116t-32 -113q0 -25 14 -25q26 0 81.5 69.5t101 152.5t45.5 119z" glyph-name="w" horiz-adv-x="565" unicode="w"/><glyph d="M498 589q41 0 64 -25t23 -49q0 -13 -8 -13q-40 0 -80.5 -22.5t-81 -68t-71 -87t-71.5 -105.5q12 -69 54 -69q11 0 31.5 16.5t38 34.5t37.5 40.5t24 26.5q6 6 13 6q8 0 14.5 -7.5t6.5 -15.5q0 -6 -5 -11q-2 -2 -28.5 -43t-57 -83t-73.5 -78t-78 -36q-59 0 -72 70 q-93 -135 -151 -135q-26 0 -44 16.5t-18 32.5t18 16q41 0 88 51.5t106 144.5l11.5 92t9.5 107q0 12 -2 30q-11 -82 -62 -176t-96 -138q-6 -6 -13 -6q-15 0 -31.5 18.5t-16.5 33.5q0 5 3 8q78 78 124.5 161t46.5 150q0 24 39 24q44 0 59 -42t17 -117q75 120 129.5 184 t102.5 64z" glyph-name="x" horiz-adv-x="380" unicode="x"/><glyph d="M446 475q25 25 60 25q26 0 26 -13q0 -6 -6 -12q-54 -54 -110 -152t-101.5 -192t-95.5 -183t-111.5 -143.5t-129.5 -54.5q-61 0 -89.5 42t-28.5 95q0 25 6 41.5t15 16.5q5 0 9 -4q34 -35 76 -35q92 0 225 185q-95 -91 -160 -91q-68 0 -68 55q0 70 92.5 200.5t172.5 211.5 q24 24 59 24q27 0 27 -13q-8 -11 -22 -29t-49.5 -66t-62.5 -88t-49 -80t-22 -56q0 -10 8 -10q27 0 89.5 62t141 153t98.5 111z" glyph-name="y" horiz-adv-x="382" unicode="y"/><glyph d="M473 425q-13 -13 -43.5 -42.5t-49 -48.5t-40.5 -42t-33 -38.5t-11 -23.5q0 -6 9 -6q24 0 61.5 31.5t42.5 31.5q8 0 14.5 -7.5t6.5 -15.5q0 -6 -5 -11q-32 -32 -66.5 -98.5t-64.5 -132.5t-66.5 -129.5t-87.5 -103t-112 -39.5t-89.5 42t-28.5 95q0 25 6 41.5t15 16.5 q5 0 9 -4q44 -44 91 -44q55 0 108.5 51t116.5 142q-32 -15 -57 -15q-63 0 -63 48q0 84 172 276q-28 -5 -50 -5q-31 0 -57 8q-24 -78 -71.5 -165t-92.5 -132q-6 -6 -13 -6q-15 0 -31.5 18.5t-16.5 33.5q0 5 3 8q170 170 170 300q0 16 17 29t34 13q18 0 18 -16q0 -15 20 -25 t50 -10q65 0 106 41q8 8 19 8q21 0 42.5 -22t21.5 -40q0 -8 -4 -12z" glyph-name="z" horiz-adv-x="397" unicode="z"/><glyph d="M509 748q12 12 30 12q5 0 17 -2q11 -2 39 -12t57 -16.5t57 -6.5q21 0 21 -12q0 -15 -25 -33.5t-53 -18.5q-14 0 -90 -4q-22 -23 -54.5 -83t-60.5 -110t-75 -90.5t-101 -40.5q79 0 37 -94q-15 -33 -90 -152q-55 -87 -62 -121q58 -3 65 -3q28 0 53 -18.5t25 -33.5 q0 -12 -21 -12q-42 0 -106 -18t-72 -19q-30 0 -54 24.5t-24 54.5q0 24 33.5 65.5t78 99.5t63.5 110q16 50 10.5 61.5t-33.5 11.5h-10q-25 0 -29 2.5t-3 18.5v14q0 24 14.5 48t34.5 24q23 0 42 -3.5t25 -3.5q45 0 79 63q45 84 103 180.5t79 117.5z" glyph-name="braceleft" horiz-adv-x="388" unicode="{"/><glyph d="M599 898q12 12 30 12q25 0 48.5 -17.5t23.5 -34.5q0 -8 -6 -14q-54 -54 -163 -208.5t-217 -326t-189.5 -328.5t-81.5 -210q0 -11 -16 -11q-24 0 -50 22.5t-26 56.5q0 56 148.5 306.5t305 483t193.5 269.5z" glyph-name="bar" horiz-adv-x="321" unicode="|"/><glyph d="M76 -128q-12 -12 -30 -12q-5 0 -17 2q-11 2 -39 12t-57 16.5t-57 6.5q-21 0 -21 12q0 15 25 33.5t53 18.5q14 0 90 4q22 23 54.5 83t60.5 110t75 90.5t101 40.5q-79 0 -37 94q15 33 90 152q55 87 62 121q-59 3 -65 3q-28 0 -53 18.5t-25 33.5q0 12 21 12q42 0 106 18 t72 19q30 0 54 -24.5t24 -54.5q0 -24 -33.5 -65.5t-78 -99.5t-63.5 -110q-16 -50 -10.5 -61.5t33.5 -11.5h10q25 0 29 -2.5t3 -18.5v-14q0 -24 -14.5 -48t-34.5 -24q-24 0 -43 3.5t-24 3.5q-45 0 -79 -63q-45 -84 -103 -180.5t-79 -117.5z" glyph-name="braceright" horiz-adv-x="419" unicode="}"/><glyph d="M400 272q5 5 9 5q10 0 10 -25q0 -26 -14 -48.5t-41 -22.5q-21 0 -85 26.5t-90 26.5q-10 0 -23 -7l-12 -7q-9 0 -9 21q0 27 15.5 52.5t45.5 25.5q35 0 94.5 -27.5t77.5 -27.5q14 0 22 8z" glyph-name="asciitilde" horiz-adv-x="419" unicode="~"/><glyph d="M-9 -148q-12 -12 -31 -12q-24 0 -47.5 17.5t-23.5 34.5q0 8 6 14q92 93 212 255t120 226q0 16 20 16q19 0 35 -16.5t16 -46.5q0 -81 -114.5 -245.5t-192.5 -242.5zM339 448q-30 0 -50.5 20.5t-20.5 50.5q0 29 20.5 50t50.5 21q29 0 50 -21t21 -50q0 -30 -21 -50.5 t-50 -20.5z" glyph-name="exclamdown" horiz-adv-x="283" unicode=""/><glyph d="M403 266q6 6 13 6q8 0 14.5 -7t6.5 -15q0 -6 -5 -11l-17 -21q-17 -21 -38 -46t-55 -56.5t-68 -56.5t-76.5 -42.5t-81.5 -17.5q-96 0 -96 96q0 73 52 168.5t135.5 166.5t162.5 71q75 0 75 -60q0 -46 -39.5 -97t-75.5 -51q-14 0 -25 13t-11 25q0 11 11 11q21 0 45.5 32 t24.5 54q0 15 -14 15q-25 0 -70.5 -43t-83 -102.5t-37.5 -99.5q0 -50 63 -50q14 0 29.5 4.5t29.5 11t30 17t27.5 19.5t25 20.5t21 18.5t17 16.5zM451 738q12 12 30 12q25 0 48.5 -17.5t23.5 -34.5q0 -8 -6 -14q-69 -69 -171 -262t-176 -385.5t-74 -265.5q0 -11 -16 -11 q-24 0 -50 22.5t-26 56.5q0 58 90 266.5t191.5 403.5t135.5 229z" glyph-name="cent" horiz-adv-x="327" unicode=""/><glyph d="M851 -26q8 8 14 8q12 0 12 -24q0 -43 -36 -87.5t-104 -44.5q-26 0 -61 12.5t-81 40t-79 48.5t-90.5 60.5t-79.5 54.5q-123 -126 -228 -126q-56 0 -87 31.5t-31 76.5q0 62 53.5 110t150.5 48q43 0 90 -11q37 48 98.5 145t116.5 180t119.5 166.5t131.5 132.5t128 49 q14 0 30 -2t38 -10.5t39 -22.5t29 -40t12 -61q0 -59 -30.5 -139.5t-81 -142t-98.5 -61.5q-42 0 -69 30.5t-27 59.5q0 20 15 20q42 0 86.5 52.5t70 113.5t25.5 96q0 23 -13.5 36.5t-29.5 13.5q-32 0 -84.5 -69.5t-105 -162t-131.5 -219.5t-144 -210q53 -24 138 -72t143 -74.5 t97 -26.5q33 0 54 21zM187 83q22 0 49 24q-33 14 -48 14q-10 0 -17.5 -7t-7.5 -16q0 -15 24 -15zM624 353q28 0 53 -18.5t25 -33.5q0 -12 -21 -12q-8 0 -135.5 -18.5t-144.5 -18.5q-45 0 -80 28.5t-35 55.5q0 24 32 24q22 0 158.5 -3.5t147.5 -3.5z" glyph-name="sterling" horiz-adv-x="948" unicode=""/><glyph d="M222 260q0 68 41 109t109 41t109 -41t41 -109t-41 -109.5t-109 -41.5t-109 41.5t-41 109.5zM286 260q0 -39 23.5 -63t62.5 -24t62.5 24t23.5 63q0 38 -23.5 62t-62.5 24t-62.5 -24t-23.5 -62zM248 228l59 -34q-2 -1 -29 -12.5t-43 -20.5t-32.5 -25.5t-16.5 -34.5 q0 -7 -8 -7q-11 0 -22 11t-11 27q0 24 28 50t75 46zM504 294l-59 34q2 1 29 12.5t43 20.5t32.5 25.5t16.5 34.5q0 7 8 7q11 0 22 -11t11 -27q0 -24 -28 -50t-75 -46zM343 389l-34 -59q-1 2 -12.5 29t-20.5 43t-25.5 32.5t-34.5 16.5q-7 0 -7 8q0 11 11 22t27 11q24 0 50 -28 t46 -75zM409 133l34 59q1 -2 12.5 -29t20.5 -43t25.5 -32.5t34.5 -16.5q7 0 7 -8q0 -11 -11 -22t-27 -11q-24 0 -50 28t-46 75z" glyph-name="currency" horiz-adv-x="607" unicode=""/><glyph d="M1015 836q8 8 20 8q20 0 41.5 -21.5t21.5 -40.5q0 -8 -4 -12q-69 -69 -204.5 -271.5t-247.5 -409t-112 -270.5q0 -17 9 -25.5t19 -9.5t19 -5.5t9 -13.5q0 -29 -53 -71t-104 -42q-30 0 -53 18t-23 56q0 50 83 230.5t151 296.5q-135 -125 -220 -125q-49 0 -82 31t-33 87 q0 39 30.5 93.5t74 106.5t87 100t74 86.5t30.5 54.5q0 13 -20 13q-62 0 -157.5 -64t-166 -147t-70.5 -134q0 -12 9 -26t9 -17q0 -8 -13 -13.5t-31 -5.5q-41 0 -74.5 25t-33.5 77q0 73 91.5 158t213.5 140.5t211 55.5q98 0 98 -65q0 -38 -32.5 -100.5t-72 -117t-72 -109 t-32.5 -78.5q0 -22 29 -22q38 0 121.5 75.5t163.5 167t171.5 197.5t124.5 139zM696 96q28 0 53 -18t25 -33q0 -12 -21 -12q-8 0 -135.5 -18.5t-144.5 -18.5q-45 0 -80 28.5t-35 54.5q0 24 32 24q22 0 158.5 -3.5t147.5 -3.5zM632 -43q28 0 53 -18t25 -33q0 -12 -21 -12 q-8 0 -135.5 -18.5t-144.5 -18.5q-45 0 -80 28.5t-35 54.5q0 24 32 24q22 0 158.5 -3.5t147.5 -3.5z" glyph-name="yen" horiz-adv-x="728" unicode=""/><glyph d="M519 838q8 12 30 12q25 0 48.5 -17.5t23.5 -34.5q0 -8 -6 -14q-88 -101 -179.5 -236.5t-91.5 -171.5q0 -11 -16 -11q-24 0 -50 22.5t-26 56.5q0 37 57.5 121.5t130.5 173.5t79 99zM159 263q8 12 30 12q25 0 48.5 -17.5t23.5 -34.5q0 -8 -6 -14q-74 -85 -142.5 -238.5 t-68.5 -199.5q0 -11 -16 -11q-24 0 -50 22.5t-26 56.5q0 54 78 200t129 224z" glyph-name="brokenbar" horiz-adv-x="287" unicode=""/><glyph d="M761 844q94 0 137.5 -48t43.5 -126q0 -107 -67.5 -212.5t-140.5 -105.5q-42 0 -72.5 33t-30.5 63q0 23 22 23q58 0 106 41t72 95t24 104q0 37 -15.5 59.5t-45.5 22.5q-53 0 -121 -46t-117.5 -115.5t-49.5 -129.5q0 -37 23 -68.5t55 -55.5t64.5 -49t55.5 -60.5t23 -79.5 q0 -63 -48 -103t-138 -53q11 -27 11 -57q0 -80 -63 -162t-158 -134t-185 -52q-94 0 -137.5 48t-43.5 126q0 107 67.5 212.5t140.5 105.5q42 0 72.5 -33t30.5 -63q0 -23 -22 -23q-58 0 -106 -41t-72 -95t-24 -104q0 -37 15.5 -59.5t45.5 -22.5q53 0 121 46t117.5 115.5 t49.5 129.5q0 37 -23 68.5t-55.5 55.5t-64.5 49t-55 60.5t-23 79.5q0 63 48 103t138 53q-11 27 -11 57q0 80 63 162t158 134t185 52zM507 87q63 9 102 38t39 61q0 25 -28 49t-64.5 42.5t-82.5 48t-73 59.5q-63 -9 -102 -38t-39 -61q0 -25 28 -49t64.5 -42.5t82.5 -48 t73 -59.5z" glyph-name="section" horiz-adv-x="760" unicode=""/><glyph d="M99 700q24 0 41 -17t17 -40q0 -24 -17 -41t-41 -17q-23 0 -40 17t-17 41q0 23 17 40t40 17zM240 680q24 0 41 -17t17 -40q0 -24 -17 -41t-41 -17q-23 0 -40 17t-17 41q0 23 17 40t40 17z" glyph-name="dieresis" unicode=""/><glyph d="M814 874q123 0 184.5 -76t61.5 -200q0 -88 -29.5 -186.5t-87 -192t-132.5 -169.5t-175 -122t-207 -46q-130 0 -214 78t-84 222q0 119 63.5 245.5t160.5 224t221 160t238 62.5zM445 -88q102 0 196.5 47.5t163.5 123.5t121 168t78 184t26 168q0 114 -52.5 177.5 t-155.5 63.5q-116 0 -237 -60t-213.5 -153t-151.5 -211t-59 -229q0 -141 77 -210t207 -69zM827 345q4 4 9 4q11 0 11 -13q0 -5 -2 -7q-1 -1 -19.5 -29t-45.5 -60t-65.5 -66t-93 -56.5t-113.5 -22.5q-86 0 -136.5 50.5t-50.5 130.5q0 76 42.5 154t106.5 134t138.5 91.5 t137.5 35.5q66 0 98.5 -33t32.5 -87q0 -92 -75.5 -182t-169.5 -90q-48 0 -76.5 28t-28.5 72q0 68 67.5 133t136.5 65q12 0 20.5 -7.5t8.5 -15.5t-10 -8q-40 0 -89.5 -44t-49.5 -90q0 -18 15 -29.5t38 -11.5q61 0 114.5 66.5t53.5 128.5q0 31 -18 50t-55 19q-42 0 -100 -30 t-110 -77.5t-88.5 -112.5t-36.5 -128q0 -51 34 -86.5t95 -35.5q39 0 80.5 15t74.5 38t58.5 45t42.5 41t18 20v1z" glyph-name="copyright" horiz-adv-x="986" unicode=""/><glyph d="M466 610q4 4 8 4t8 -4t4 -9q0 -4 -3 -7q-1 -1 -18 -26t-36 -50t-46 -46.5t-48 -21.5q-39 0 -39 35q0 11 3 23q-56 -58 -98 -58q-41 0 -41 45q0 66 70.5 160.5t132.5 94.5q51 0 67 -49q13 5 23 5q15 0 15 -8q0 -3 -4 -7q-23 -23 -54.5 -72.5t-31.5 -69.5q0 -10 9 -10 q7 0 19 10t22.5 21t23 24.5t14.5 15.5zM254 539q27 0 111 91q24 32 36 45q-2 14 -12 26t-22 12q-27 0 -75 -65.5t-48 -96.5q0 -12 10 -12z" glyph-name="ordfeminine" horiz-adv-x="233" unicode=""/><glyph d="M162 208q-17 2 -17 27q0 21 16 21q25 13 58 30.5t90.5 50.5t95 63.5t37.5 48.5q0 7 8 7q11 0 22 -11t11 -27q0 -62 -243 -176q64 -19 112 -54.5t48 -79.5q0 -32 -19 -48.5t-41 -16.5q-20 0 -20 12q0 26 -61 89.5t-95 63.5l-1 -1q-1 0 -1 1zM362 208q-17 2 -17 27 q0 21 16 21q25 13 58 30.5t90.5 50.5t95 63.5t37.5 48.5q0 7 8 7q11 0 22 -11t11 -27q0 -62 -243 -176q64 -19 112 -54.5t48 -79.5q0 -32 -19 -48.5t-41 -16.5q-20 0 -20 12q0 26 -61 89.5t-95 63.5l-1 -1q-1 0 -1 1z" glyph-name="guillemotleft" horiz-adv-x="683" unicode=""/><glyph d="M583 396q28 0 53 -18t25 -33q0 -12 -21 -12q-8 0 -185.5 -18.5t-194.5 -18.5q-45 0 -80 28.5t-35 54.5q0 24 32 24q22 0 208.5 -3.5t197.5 -3.5zM610 177q-10 -23 -42.5 -35t-49.5 -8q-12 3 -6 24q3 15 24 78.5t35 98.5l90 10q0 -17 -16.5 -71t-34.5 -97z" glyph-name="logicalnot" horiz-adv-x="661" unicode=""/><glyph d="M773 689q53 -11 79 -42.5t26 -76.5q0 -95 -92 -192.5t-200 -101.5q47 -53 93 -89.5t71 -36.5q6 0 12.5 4.5t7.5 4.5q9 0 9 -21q0 -28 -19 -54t-57 -26q-44 0 -101.5 68t-103.5 159q-61 -120 -61 -180q0 -10 -17 -10q-23 0 -47 20.5t-24 55.5q0 60 109 207q-10 30 -10 44 q0 18 10.5 28.5t17.5 10.5q5 0 7 -5.5t3 -16t4 -18.5q88 113 198 232q-91 -23 -181.5 -107t-90.5 -156q0 -11 -11 -11q-17 0 -36.5 26t-19.5 65q0 42 47 93.5t134 91.5t183 40h14q4 4 12.5 13.5t12 13l10.5 10.5t11.5 10t10 6.5t11 5t10.5 1.5q16 0 16 -9q0 -3 -8 -12.5 t-21 -23t-19 -21.5zM570 362q83 0 163.5 81t80.5 151q0 58 -68 64q-109 -132 -203 -291q15 -5 27 -5zM814 874q123 0 184.5 -76t61.5 -200q0 -88 -29.5 -186.5t-87 -192t-132.5 -169.5t-175 -122t-207 -46q-130 0 -214 78t-84 222q0 119 63.5 245.5t160.5 224t221 160 t238 62.5zM445 -88q102 0 196.5 47.5t163.5 123.5t121 168t78 184t26 168q0 114 -52.5 177.5t-155.5 63.5q-116 0 -237 -60t-213.5 -153t-151.5 -211t-59 -229q0 -141 77 -210t207 -69z" glyph-name="registered" horiz-adv-x="986" unicode=""/><glyph d="M243 650q18 0 33.5 -11.5t15.5 -20.5q0 -8 -13 -8q-5 0 -86 -11.5t-91 -11.5q-29 0 -51 18t-22 35q0 15 20 15q14 0 100.5 -2.5t93.5 -2.5z" glyph-name="macron" unicode=""/><glyph d="M0 600q0 68 41 109t109 41t109 -41t41 -109t-41 -109.5t-109 -41.5t-109 41.5t-41 109.5zM79 600q0 -32 19.5 -52t51.5 -20t51.5 20t19.5 52t-19.5 51.5t-51.5 19.5t-51.5 -19.5t-19.5 -51.5z" glyph-name="degree" unicode=""/><glyph d="M508 397q28 0 53 -18.5t25 -33.5q0 -3 -1.5 -4.5t-5.5 -3.5t-9 -3t-14.5 -2.5t-19.5 -3t-25 -3t-31 -3.5t-38.5 -5.5t-45.5 -6.5q-47 -96 -49 -101q-11 -23 -34.5 -39.5t-39.5 -16.5q-13 0 -13 12q0 4 41 132q-4 0 -9.5 -0.5t-6.5 -0.5q-45 0 -80 28.5t-35 55.5 q0 24 32 24q7 0 27 -0.5t50 -1.5t54 -1q22 64 23 66q17 36 49.5 57.5t60.5 21.5q30 0 30 -23q0 -8 -56 -125q34 -1 68 -1zM448 87q28 0 53 -18t25 -33q0 -12 -21 -12q-8 0 -135.5 -18.5t-144.5 -18.5q-45 0 -80 28.5t-35 54.5q0 24 32 24q22 0 158.5 -3.5t147.5 -3.5z" glyph-name="plusminus" horiz-adv-x="586" unicode=""/><glyph d="M352 391q27 0 47 -16t20 -31q0 -14 -19 -14q-16 0 -99 5.5t-94 5.5q-17 0 -32 16t-15 29q0 11 13 11q41 0 93.5 34.5t94 81.5t70 96t28.5 77t-27 28q-32 0 -64.5 -48t-32.5 -94q0 -13 -15 -13q-16 0 -31.5 14t-15.5 37q0 48 50.5 94t105.5 46q37 0 60.5 -20.5t23.5 -56.5 q0 -59 -55.5 -142.5t-128.5 -138.5z" glyph-name="uni00B2" horiz-adv-x="360" unicode=""/><glyph d="M477 673q0 -45 -28.5 -85t-70.5 -60q22 -19 22 -55q0 -52 -44 -97.5t-113 -45.5q-38 0 -60.5 22t-22.5 55q0 49 46 95q13 13 27 13q12 0 12 -8q0 -2 -4 -8q-26 -26 -26 -54q0 -36 42 -36q33 0 58.5 28t25.5 54q0 23 -21 23q-10 0 -21 16t-11 29q0 9 9 9q55 0 95.5 41.5 t40.5 78.5q0 26 -25 26q-37 0 -66.5 -41t-29.5 -78q0 -13 -15 -13q-16 0 -31 14t-15 36q0 46 47.5 82t99.5 36q37 0 58 -20t21 -57z" glyph-name="uni00B3" horiz-adv-x="324" unicode=""/><glyph d="M169 700q26 0 43 -22t17 -42q0 -14 -10 -14q-20 0 -44 -29t-24 -40t-11 -11t-22 9.5t-11 20.5q0 41 16 84.5t46 43.5z" glyph-name="acute" unicode=""/><glyph d="M680 738q12 12 30 12q25 0 48.5 -17.5t23.5 -34.5q0 -8 -6 -14q-73 -73 -199.5 -262.5t-229 -385t-102.5 -265.5q0 -11 -16 -11q-24 0 -50 22.5t-26 56.5q0 57 118.5 267t245 402.5t163.5 229.5zM880 738q12 12 30 12q25 0 48.5 -17.5t23.5 -34.5q0 -8 -6 -14 q-73 -73 -199.5 -262.5t-229 -385t-102.5 -265.5q0 -11 -16 -11q-24 0 -50 22.5t-26 56.5q0 57 118.5 267t245 402.5t163.5 229.5zM710 750l-272 -510q-62 0 -123.5 61t-61.5 157q0 131 123.5 211.5t333.5 80.5z" glyph-name="paragraph" horiz-adv-x="724" unicode=""/><glyph d="M281 535q26 0 44.5 -18t18.5 -44t-18.5 -44.5t-44.5 -18.5t-44 18.5t-18 44.5q0 25 18.5 43.5t43.5 18.5z" glyph-name="periodcentered" horiz-adv-x="220" unicode=""/><glyph d="M120 20h60q-2 -47 -37.5 -111t-64.5 -64q-26 0 -43.5 21.5t-17.5 41.5q0 14 10 14q14 0 48.5 34.5t44.5 63.5z" glyph-name="cedilla" unicode=""/><glyph d="M384 750q15 0 29.5 -10t14.5 -21q0 -6 -3 -9q-63 -63 -136.5 -196t-73.5 -177q0 -7 -9 -7q-14 0 -30 13.5t-16 33.5q0 59 119 245q-6 -2 -8 -2q-21 0 -34 15.5t-13 31.5q0 18 13 18q11 0 49 11.5t62 24.5q1 2 5 6.5t5 6t4 5t4 4.5t3.5 3t4.5 2.5t4.5 1t5.5 0.5z" glyph-name="uni00B9" horiz-adv-x="227" unicode=""/><glyph d="M444 610q3 3 8 3t8.5 -4t3.5 -9q0 -4 -3 -7l-5 -5q-4 -6 -8.5 -10.5t-13.5 -11t-18 -12t-22.5 -10.5t-28.5 -8q-73 -87 -145 -87q-60 0 -60 59q0 40 27 92t71.5 93t87.5 47q18 10 37 10q55 0 55 -55q0 -49 -41 -115q25 8 47 30zM378 717q-20 0 -39 -36.5t-19 -69.5 q0 -19 8 -30q26 29 45 64.5t19 55.5q0 16 -14 16zM272 637q-30 -47 -30 -77q0 -22 18 -22q14 0 27 9q-20 17 -20 53q0 17 5 37z" glyph-name="ordmasculine" horiz-adv-x="211" unicode=""/><glyph d="M666 291q17 -2 17 -27q0 -21 -16 -21q-25 -13 -58 -30.5t-90.5 -50.5t-95 -63.5t-37.5 -48.5q0 -7 -8 -7q-11 0 -22 11t-11 27q0 62 243 176q-64 19 -112 54.5t-48 79.5q0 32 19 48.5t41 16.5q20 0 20 -12q0 -26 61 -89.5t95 -63.5l1 1q1 0 1 -1zM466 291q17 -2 17 -27 q0 -21 -16 -21q-25 -13 -58 -30.5t-90.5 -50.5t-95 -63.5t-37.5 -48.5q0 -7 -8 -7q-11 0 -22 11t-11 27q0 62 243 176q-64 19 -112 54.5t-48 79.5q0 32 19 48.5t41 16.5q20 0 20 -12q0 -26 61 -89.5t95 -63.5l1 1q1 0 1 -1z" glyph-name="guillemotright" horiz-adv-x="683" unicode=""/><glyph d="M401 750q15 0 29.5 -10t14.5 -21q0 -6 -3 -9q-63 -63 -136.5 -196t-73.5 -177q0 -7 -9 -7q-14 0 -30 13.5t-16 33.5q0 59 119 245q-6 -2 -8 -2q-21 0 -34 15.5t-13 31.5q0 18 13 18q11 0 49 11.5t62 24.5q1 2 5 6.5t5 6t4 5t4 4.5t3.5 3t4.5 2.5t4.5 1t5.5 0.5zM737 788 q12 12 30 12q25 0 48.5 -17.5t23.5 -34.5q0 -8 -6 -14q-69 -69 -163.5 -172t-208.5 -235t-191.5 -248.5t-77.5 -168.5q0 -11 -16 -11q-24 0 -50 22.5t-26 56.5q0 56 151 249.5t289.5 348t196.5 212.5zM782 420q15 0 30 -10t15 -21q0 -5 -4 -9q-66 -66 -137 -198q7 -8 7 -18 q0 -14 -25 -14q-55 -108 -55 -143q0 -7 -9 -7q-14 0 -29.5 13.5t-15.5 33.5q0 30 33 98q-88 -8 -104 -8t-31.5 16t-15.5 29q0 11 13 11q10 0 120.5 72t164.5 116q12 17 17 23t12 11t14 5zM565 203l61 8h-1q4 0 39 60q-54 -40 -99 -68z" glyph-name="onequarter" horiz-adv-x="789" unicode=""/><glyph d="M401 750q15 0 29.5 -10t14.5 -21q0 -6 -3 -9q-63 -63 -136.5 -196t-73.5 -177q0 -7 -9 -7q-14 0 -30 13.5t-16 33.5q0 59 119 245q-6 -2 -8 -2q-21 0 -34 15.5t-13 31.5q0 18 13 18q11 0 49 11.5t62 24.5q1 2 5 6.5t5 6t4 5t4 4.5t3.5 3t4.5 2.5t4.5 1t5.5 0.5zM737 788 q12 12 30 12q25 0 48.5 -17.5t23.5 -34.5q0 -8 -6 -14q-69 -69 -163.5 -172t-208.5 -235t-191.5 -248.5t-77.5 -168.5q0 -11 -16 -11q-24 0 -50 22.5t-26 56.5q0 56 151 249.5t289.5 348t196.5 212.5zM652 61q27 0 47 -16t20 -31q0 -14 -19 -14q-16 0 -99 5.5t-94 5.5 q-17 0 -32 16t-15 29q0 11 13 11q41 0 93.5 34.5t94 81.5t70 96t28.5 77t-27 28q-32 0 -64.5 -48t-32.5 -94q0 -13 -15 -13q-16 0 -31.5 14t-15.5 37q0 48 50.5 94t105.5 46q37 0 60.5 -20.5t23.5 -56.5q0 -59 -55.5 -142.5t-128.5 -138.5z" glyph-name="onehalf" horiz-adv-x="819" unicode=""/><glyph d="M747 788q12 12 30 12q25 0 48.5 -17.5t23.5 -34.5q0 -8 -6 -14q-69 -69 -163.5 -172t-208.5 -235t-191.5 -248.5t-77.5 -168.5q0 -11 -16 -11q-24 0 -50 22.5t-26 56.5q0 56 151 249.5t289.5 348t196.5 212.5zM792 420q15 0 30 -10t15 -21q0 -5 -4 -9q-66 -66 -137 -198 q7 -8 7 -18q0 -14 -25 -14q-55 -108 -55 -143q0 -7 -9 -7q-14 0 -29.5 13.5t-15.5 33.5q0 30 33 98q-88 -8 -104 -8t-31.5 16t-15.5 29q0 11 13 11q10 0 120.5 72t164.5 116q12 17 17 23t12 11t14 5zM575 203l61 8h-1q4 0 39 60q-54 -40 -99 -68zM417 673q0 -45 -28.5 -85 t-70.5 -60q22 -19 22 -55q0 -52 -44 -97.5t-113 -45.5q-38 0 -60.5 22t-22.5 55q0 49 46 95q13 13 27 13q12 0 12 -8q0 -2 -4 -8q-26 -26 -26 -54q0 -36 42 -36q33 0 58.5 28t25.5 54q0 23 -21 23q-10 0 -21 16t-11 29q0 9 9 9q55 0 95.5 41.5t40.5 78.5q0 26 -25 26 q-37 0 -66.5 -41t-29.5 -78q0 -13 -15 -13q-16 0 -31 14t-15 36q0 46 47.5 82t99.5 36q37 0 58 -20t21 -57z" glyph-name="threequarters" horiz-adv-x="799" unicode=""/><glyph d="M161 -160q-60 0 -93.5 38.5t-33.5 92.5q0 44 33 97t80 100.5t94 90.5t80 77.5t33 50.5t20 16q19 0 35 -16.5t16 -46.5q0 -28 -48 -78t-105 -96.5t-105 -103.5t-48 -98q0 -32 15.5 -53t44.5 -21q66 0 129.5 70t63.5 123q0 13 -8.5 25.5t-8.5 15.5q0 11 14 17.5t35 6.5 q36 0 64 -20t28 -61q0 -71 -105 -149t-230 -78zM466 447q-30 0 -50.5 21t-20.5 51q0 29 20.5 50t50.5 21q29 0 50 -21t21 -50q0 -30 -21 -51t-50 -21z" glyph-name="questiondown" horiz-adv-x="531" unicode=""/><glyph d="M1207 844q21 0 43 -21.5t22 -40.5q0 -8 -4 -12q-134 -134 -275.5 -381.5t-141.5 -354.5q0 -29 15.5 -39.5t31.5 -14t16 -14.5q0 -29 -53 -71t-104 -42q-33 0 -56.5 21t-23.5 65q0 30 11 76q-3 132 -52 250q-47 -65 -79.5 -108t-77 -97t-81.5 -88.5t-79.5 -66t-85 -46.5 t-84.5 -15q-72 0 -110.5 39t-38.5 81q0 34 23 34q70 0 141.5 28.5t145.5 86t132.5 114t137.5 141.5q-66 93 -130 93q-16 0 -40.5 -16t-29.5 -16q-22 0 -22 50q0 49 28 90.5t83 41.5q121 0 200 -147q85 92 138.5 145.5t127.5 115t141 90.5t131 29zM751 184q70 149 180.5 318 t209.5 282q-56 -18 -112 -57t-113 -101t-101 -118t-105 -140q29 -85 41 -184zM1229 1040q29 0 45.5 -43.5t16.5 -84.5q0 -11 -11.5 -20.5t-22.5 -9.5t-11 11q0 12 -23.5 40.5t-44.5 28.5q-10 0 -10 14q0 20 17.5 42t43.5 22z" glyph-name="Agrave" horiz-adv-x="922" unicode=""/><glyph d="M1207 844q21 0 43 -21.5t22 -40.5q0 -8 -4 -12q-134 -134 -275.5 -381.5t-141.5 -354.5q0 -29 15.5 -39.5t31.5 -14t16 -14.5q0 -29 -53 -71t-104 -42q-33 0 -56.5 21t-23.5 65q0 30 11 76q-3 132 -52 250q-47 -65 -79.5 -108t-77 -97t-81.5 -88.5t-79.5 -66t-85 -46.5 t-84.5 -15q-72 0 -110.5 39t-38.5 81q0 34 23 34q70 0 141.5 28.5t145.5 86t132.5 114t137.5 141.5q-66 93 -130 93q-16 0 -40.5 -16t-29.5 -16q-22 0 -22 50q0 49 28 90.5t83 41.5q121 0 200 -147q85 92 138.5 145.5t127.5 115t141 90.5t131 29zM751 184q70 149 180.5 318 t209.5 282q-56 -18 -112 -57t-113 -101t-101 -118t-105 -140q29 -85 41 -184zM1266 1040q26 0 43 -22t17 -42q0 -14 -10 -14q-20 0 -44 -29t-24 -40t-11 -11t-22 9.5t-11 20.5q0 41 16 84.5t46 43.5z" glyph-name="Aacute" horiz-adv-x="922" unicode=""/><glyph d="M1207 844q21 0 43 -21.5t22 -40.5q0 -8 -4 -12q-134 -134 -275.5 -381.5t-141.5 -354.5q0 -29 15.5 -39.5t31.5 -14t16 -14.5q0 -29 -53 -71t-104 -42q-33 0 -56.5 21t-23.5 65q0 30 11 76q-3 132 -52 250q-47 -65 -79.5 -108t-77 -97t-81.5 -88.5t-79.5 -66t-85 -46.5 t-84.5 -15q-72 0 -110.5 39t-38.5 81q0 34 23 34q70 0 141.5 28.5t145.5 86t132.5 114t137.5 141.5q-66 93 -130 93q-16 0 -40.5 -16t-29.5 -16q-22 0 -22 50q0 49 28 90.5t83 41.5q121 0 200 -147q85 92 138.5 145.5t127.5 115t141 90.5t131 29zM751 184q70 149 180.5 318 t209.5 282q-56 -18 -112 -57t-113 -101t-101 -118t-105 -140q29 -85 41 -184zM1365 898q9 0 9 -17q0 -13 -7.5 -24t-21.5 -11q-41 0 -56 83q-38 -47 -68 -47q-26 0 -43.5 22t-17.5 42q0 14 10 14q21 0 67 30t46 39q0 11 11 11q25 0 31.5 -35.5t12 -71t27.5 -35.5z" glyph-name="Acircumflex" horiz-adv-x="922" unicode=""/><glyph d="M1207 844q21 0 43 -21.5t22 -40.5q0 -8 -4 -12q-134 -134 -275.5 -381.5t-141.5 -354.5q0 -29 15.5 -39.5t31.5 -14t16 -14.5q0 -29 -53 -71t-104 -42q-33 0 -56.5 21t-23.5 65q0 30 11 76q-3 132 -52 250q-47 -65 -79.5 -108t-77 -97t-81.5 -88.5t-79.5 -66t-85 -46.5 t-84.5 -15q-72 0 -110.5 39t-38.5 81q0 34 23 34q70 0 141.5 28.5t145.5 86t132.5 114t137.5 141.5q-66 93 -130 93q-16 0 -40.5 -16t-29.5 -16q-22 0 -22 50q0 49 28 90.5t83 41.5q121 0 200 -147q85 92 138.5 145.5t127.5 115t141 90.5t131 29zM751 184q70 149 180.5 318 t209.5 282q-56 -18 -112 -57t-113 -101t-101 -118t-105 -140q29 -85 41 -184zM1146 944q-4 -4 -7 -4q-9 0 -9 21q0 28 15.5 53.5t45.5 25.5q35 0 94.5 -28t77.5 -28q8 0 18.5 7t12.5 7q10 0 10 -25q0 -26 -14 -49t-41 -23q-21 0 -85 26.5t-89 26.5q-19 0 -29 -10z" glyph-name="Atilde" horiz-adv-x="922" unicode=""/><glyph d="M1207 844q21 0 43 -21.5t22 -40.5q0 -8 -4 -12q-134 -134 -275.5 -381.5t-141.5 -354.5q0 -29 15.5 -39.5t31.5 -14t16 -14.5q0 -29 -53 -71t-104 -42q-33 0 -56.5 21t-23.5 65q0 30 11 76q-3 132 -52 250q-47 -65 -79.5 -108t-77 -97t-81.5 -88.5t-79.5 -66t-85 -46.5 t-84.5 -15q-72 0 -110.5 39t-38.5 81q0 34 23 34q70 0 141.5 28.5t145.5 86t132.5 114t137.5 141.5q-66 93 -130 93q-16 0 -40.5 -16t-29.5 -16q-22 0 -22 50q0 49 28 90.5t83 41.5q121 0 200 -147q85 92 138.5 145.5t127.5 115t141 90.5t131 29zM751 184q70 149 180.5 318 t209.5 282q-56 -18 -112 -57t-113 -101t-101 -118t-105 -140q29 -85 41 -184zM1176 1040q24 0 41 -17t17 -40q0 -24 -17 -41t-41 -17q-23 0 -40 17t-17 41q0 23 17 40t40 17zM1317 1020q24 0 41 -17t17 -40q0 -24 -17 -41t-41 -17q-23 0 -40 17t-17 41q0 23 17 40t40 17z " glyph-name="Adieresis" horiz-adv-x="922" unicode=""/><glyph d="M1207 844q21 0 43 -21.5t22 -40.5q0 -8 -4 -12q-134 -134 -275.5 -381.5t-141.5 -354.5q0 -29 15.5 -39.5t31.5 -14t16 -14.5q0 -29 -53 -71t-104 -42q-33 0 -56.5 21t-23.5 65q0 30 11 76q-3 132 -52 250q-47 -65 -79.5 -108t-77 -97t-81.5 -88.5t-79.5 -66t-85 -46.5 t-84.5 -15q-72 0 -110.5 39t-38.5 81q0 34 23 34q70 0 141.5 28.5t145.5 86t132.5 114t137.5 141.5q-66 93 -130 93q-16 0 -40.5 -16t-29.5 -16q-22 0 -22 50q0 49 28 90.5t83 41.5q121 0 200 -147q85 92 138.5 145.5t127.5 115t141 90.5t131 29zM751 184q70 149 180.5 318 t209.5 282q-56 -18 -112 -57t-113 -101t-101 -118t-105 -140q29 -85 41 -184zM1141 958q0 62 48.5 107t115.5 45q48 0 78 -25.5t30 -72.5q0 -62 -48 -107.5t-115 -45.5q-48 0 -78.5 25.5t-30.5 73.5zM1215 967q0 -47 45 -47q32 0 55.5 24.5t23.5 56.5q0 22 -12.5 35 t-33.5 13q-32 0 -55 -24.5t-23 -57.5z" glyph-name="Aring" horiz-adv-x="922" unicode=""/><glyph d="M1360 249q7 7 15 7t13.5 -7t5.5 -16q0 -8 -4 -12q-1 -1 -32.5 -48t-76.5 -100t-107.5 -110t-148.5 -94.5t-177 -37.5q-109 0 -168.5 54t-59.5 136q0 75 48 147q-13 50 -32 97q-47 -65 -79.5 -108t-77 -97t-81.5 -88.5t-79.5 -66t-85 -46.5t-84.5 -15q-72 0 -110.5 39 t-38.5 81q0 34 23 34q57 0 117 22t109 52t112 86t106 99t110 115q-65 89 -127 89q-16 0 -40.5 -16t-29.5 -16q-22 0 -22 50q0 49 28 90.5t83 41.5q120 0 198 -143q82 86 144.5 143.5t142.5 116t162 88t166 29.5q100 0 148 -46.5t48 -119.5q0 -100 -71.5 -194t-156.5 -94 q-34 0 -67 30t-33 53q0 15 19 15q62 0 141.5 89t79.5 156q0 59 -74 59q-62 0 -132.5 -54.5t-117 -131t-46.5 -136.5q0 -97 122 -97q39 0 39 -25q0 -14 -13.5 -26.5t-31.5 -12.5q-142 0 -235 -76.5t-93 -158.5q0 -42 29 -67.5t87 -25.5t123.5 27t113 59.5t98.5 78.5 t67.5 64.5t32.5 36.5zM937 647q-91 -90 -227 -279q20 -60 31 -119q83 68 203 101q-75 43 -75 125q0 81 68 172z" glyph-name="AE" horiz-adv-x="1251" unicode=""/><glyph d="M843 267q7 7 15 7t13.5 -7t5.5 -16q0 -7 -4 -11q-3 -3 -25.5 -37t-52.5 -75t-80.5 -91.5t-107 -91t-135 -68t-161.5 -27.5q-143 0 -227 84.5t-84 216.5q0 86 33 174.5t88 163.5t127.5 141.5t150.5 113t158.5 73.5t150.5 27q111 0 165 -55t54 -145q0 -72 -33.5 -152 t-87.5 -147t-131 -111t-156 -44q-80 0 -128 46.5t-48 119.5q0 74 52.5 152t132.5 128t155 50q20 0 34.5 -12.5t14.5 -24.5q0 -14 -17 -14q-67 0 -149.5 -74t-82.5 -150q0 -29 25 -48t63 -19q68 0 134.5 54t106 129.5t39.5 140.5q0 53 -29.5 84t-91.5 31q-71 0 -167 -50.5 t-183 -129t-148 -187.5t-61 -213q0 -85 56.5 -144t159.5 -59q65 0 135.5 27t119.5 59.5t100.5 78.5t68 64.5t31.5 36.5zM281 -130h60q-2 -47 -37.5 -111t-64.5 -64q-26 0 -43.5 21.5t-17.5 41.5q0 14 10 14q14 0 48.5 34.5t44.5 63.5z" glyph-name="Ccedilla" horiz-adv-x="767" unicode=""/><glyph d="M600 489q69 0 143 84t74 153q0 67 -81 67q-65 0 -137 -53.5t-117.5 -127.5t-45.5 -132q0 -87 107 -87q39 0 39 -25q0 -14 -13.5 -26t-31.5 -12q-77 0 -145 -24.5t-111.5 -61.5t-68.5 -80.5t-25 -82.5q0 -44 32 -71.5t95 -27.5q58 0 124 27t113.5 59.5t98.5 78.5t67.5 64 t32.5 36l1 1q7 7 15 7t13.5 -6.5t5.5 -15.5q0 -7 -5 -12q-3 -3 -26 -36t-53 -73t-79.5 -89.5t-104 -88.5t-128.5 -66t-150 -27q-115 0 -177 55t-62 138q0 105 95 203.5t264 136.5q-57 41 -57 115q0 56 34 119t89 115t132 86.5t156 34.5q99 0 145.5 -42.5t46.5 -111.5 q0 -96 -74 -188t-160 -92q-34 0 -62.5 23t-28.5 42q0 14 20 14zM805 1044q29 0 45.5 -43.5t16.5 -84.5q0 -11 -11.5 -20.5t-22.5 -9.5t-11 11q0 12 -23.5 40.5t-44.5 28.5q-10 0 -10 14q0 20 17.5 42t43.5 22z" glyph-name="Egrave" horiz-adv-x="678" unicode=""/><glyph d="M600 489q69 0 143 84t74 153q0 67 -81 67q-65 0 -137 -53.5t-117.5 -127.5t-45.5 -132q0 -87 107 -87q39 0 39 -25q0 -14 -13.5 -26t-31.5 -12q-77 0 -145 -24.5t-111.5 -61.5t-68.5 -80.5t-25 -82.5q0 -44 32 -71.5t95 -27.5q58 0 124 27t113.5 59.5t98.5 78.5t67.5 64 t32.5 36l1 1q7 7 15 7t13.5 -6.5t5.5 -15.5q0 -7 -5 -12q-3 -3 -26 -36t-53 -73t-79.5 -89.5t-104 -88.5t-128.5 -66t-150 -27q-115 0 -177 55t-62 138q0 105 95 203.5t264 136.5q-57 41 -57 115q0 56 34 119t89 115t132 86.5t156 34.5q99 0 145.5 -42.5t46.5 -111.5 q0 -96 -74 -188t-160 -92q-34 0 -62.5 23t-28.5 42q0 14 20 14zM842 1044q26 0 43 -22t17 -42q0 -14 -10 -14q-20 0 -44 -29t-24 -40t-11 -11t-22 9.5t-11 20.5q0 41 16 84.5t46 43.5z" glyph-name="Eacute" horiz-adv-x="678" unicode=""/><glyph d="M600 489q69 0 143 84t74 153q0 67 -81 67q-65 0 -137 -53.5t-117.5 -127.5t-45.5 -132q0 -87 107 -87q39 0 39 -25q0 -14 -13.5 -26t-31.5 -12q-77 0 -145 -24.5t-111.5 -61.5t-68.5 -80.5t-25 -82.5q0 -44 32 -71.5t95 -27.5q58 0 124 27t113.5 59.5t98.5 78.5t67.5 64 t32.5 36l1 1q7 7 15 7t13.5 -6.5t5.5 -15.5q0 -7 -5 -12q-3 -3 -26 -36t-53 -73t-79.5 -89.5t-104 -88.5t-128.5 -66t-150 -27q-115 0 -177 55t-62 138q0 105 95 203.5t264 136.5q-57 41 -57 115q0 56 34 119t89 115t132 86.5t156 34.5q99 0 145.5 -42.5t46.5 -111.5 q0 -96 -74 -188t-160 -92q-34 0 -62.5 23t-28.5 42q0 14 20 14zM941 902q9 0 9 -17q0 -13 -7.5 -24t-21.5 -11q-41 0 -56 83q-38 -47 -68 -47q-26 0 -43.5 22t-17.5 42q0 14 10 14q21 0 67 30t46 39q0 11 11 11q25 0 31.5 -35.5t12 -71t27.5 -35.5z" glyph-name="Ecircumflex" horiz-adv-x="678" unicode=""/><glyph d="M600 489q69 0 143 84t74 153q0 67 -81 67q-65 0 -137 -53.5t-117.5 -127.5t-45.5 -132q0 -87 107 -87q39 0 39 -25q0 -14 -13.5 -26t-31.5 -12q-77 0 -145 -24.5t-111.5 -61.5t-68.5 -80.5t-25 -82.5q0 -44 32 -71.5t95 -27.5q58 0 124 27t113.5 59.5t98.5 78.5t67.5 64 t32.5 36l1 1q7 7 15 7t13.5 -6.5t5.5 -15.5q0 -7 -5 -12q-3 -3 -26 -36t-53 -73t-79.5 -89.5t-104 -88.5t-128.5 -66t-150 -27q-115 0 -177 55t-62 138q0 105 95 203.5t264 136.5q-57 41 -57 115q0 56 34 119t89 115t132 86.5t156 34.5q99 0 145.5 -42.5t46.5 -111.5 q0 -96 -74 -188t-160 -92q-34 0 -62.5 23t-28.5 42q0 14 20 14zM752 1044q24 0 41 -17t17 -40q0 -24 -17 -41t-41 -17q-23 0 -40 17t-17 41q0 23 17 40t40 17zM893 1024q24 0 41 -17t17 -40q0 -24 -17 -41t-41 -17q-23 0 -40 17t-17 41q0 23 17 40t40 17z" glyph-name="Edieresis" horiz-adv-x="678" unicode=""/><glyph d="M625 844q112 0 112 -133q0 -101 -65 -258t-156.5 -298t-198 -243t-182.5 -102q-67 0 -101 43t-34 91q0 40 20 40q4 0 27 -15t41 -15q65 0 167.5 99t192 229.5t155 261t65.5 191.5q0 40 -31 40q-46 0 -122 -47t-145.5 -112t-120.5 -139t-51 -123q0 -15 11.5 -34.5 t11.5 -22.5q0 -8 -13 -13.5t-31 -5.5q-41 0 -74.5 25t-33.5 77q0 65 58.5 148t142 152t182 116.5t173.5 47.5zM140 -40q24 0 41 -17t17 -40q0 -24 -17 -41t-41 -17q-23 0 -40 17t-17 41q0 23 17 40t40 17zM697 1044q29 0 45.5 -43.5t16.5 -84.5q0 -11 -11.5 -20.5 t-22.5 -9.5t-11 11q0 12 -23.5 40.5t-44.5 28.5q-10 0 -10 14q0 20 17.5 42t43.5 22z" glyph-name="Igrave" horiz-adv-x="577" unicode=""/><glyph d="M625 844q112 0 112 -133q0 -101 -65 -258t-156.5 -298t-198 -243t-182.5 -102q-67 0 -101 43t-34 91q0 40 20 40q4 0 27 -15t41 -15q65 0 167.5 99t192 229.5t155 261t65.5 191.5q0 40 -31 40q-46 0 -122 -47t-145.5 -112t-120.5 -139t-51 -123q0 -15 11.5 -34.5 t11.5 -22.5q0 -8 -13 -13.5t-31 -5.5q-41 0 -74.5 25t-33.5 77q0 65 58.5 148t142 152t182 116.5t173.5 47.5zM140 -40q24 0 41 -17t17 -40q0 -24 -17 -41t-41 -17q-23 0 -40 17t-17 41q0 23 17 40t40 17zM734 1044q26 0 43 -22t17 -42q0 -14 -10 -14q-20 0 -44 -29t-24 -40 t-11 -11t-22 9.5t-11 20.5q0 41 16 84.5t46 43.5z" glyph-name="Iacute" horiz-adv-x="577" unicode=""/><glyph d="M625 844q112 0 112 -133q0 -101 -65 -258t-156.5 -298t-198 -243t-182.5 -102q-67 0 -101 43t-34 91q0 40 20 40q4 0 27 -15t41 -15q65 0 167.5 99t192 229.5t155 261t65.5 191.5q0 40 -31 40q-46 0 -122 -47t-145.5 -112t-120.5 -139t-51 -123q0 -15 11.5 -34.5 t11.5 -22.5q0 -8 -13 -13.5t-31 -5.5q-41 0 -74.5 25t-33.5 77q0 65 58.5 148t142 152t182 116.5t173.5 47.5zM140 -40q24 0 41 -17t17 -40q0 -24 -17 -41t-41 -17q-23 0 -40 17t-17 41q0 23 17 40t40 17zM833 902q9 0 9 -17q0 -13 -7.5 -24t-21.5 -11q-41 0 -56 83 q-38 -47 -68 -47q-26 0 -43.5 22t-17.5 42q0 14 10 14q21 0 67 30t46 39q0 11 11 11q25 0 31.5 -35.5t12 -71t27.5 -35.5z" glyph-name="Icircumflex" horiz-adv-x="577" unicode=""/><glyph d="M625 844q112 0 112 -133q0 -101 -65 -258t-156.5 -298t-198 -243t-182.5 -102q-67 0 -101 43t-34 91q0 40 20 40q4 0 27 -15t41 -15q65 0 167.5 99t192 229.5t155 261t65.5 191.5q0 40 -31 40q-46 0 -122 -47t-145.5 -112t-120.5 -139t-51 -123q0 -15 11.5 -34.5 t11.5 -22.5q0 -8 -13 -13.5t-31 -5.5q-41 0 -74.5 25t-33.5 77q0 65 58.5 148t142 152t182 116.5t173.5 47.5zM140 -40q24 0 41 -17t17 -40q0 -24 -17 -41t-41 -17q-23 0 -40 17t-17 41q0 23 17 40t40 17zM644 1044q24 0 41 -17t17 -40q0 -24 -17 -41t-41 -17q-23 0 -40 17 t-17 41q0 23 17 40t40 17zM785 1024q24 0 41 -17t17 -40q0 -24 -17 -41t-41 -17q-23 0 -40 17t-17 41q0 23 17 40t40 17z" glyph-name="Idieresis" horiz-adv-x="577" unicode=""/><glyph d="M719 833q153 -44 153 -228q0 -70 -24 -152.5t-65.5 -161.5t-100 -153.5t-123.5 -130.5t-139.5 -90t-145.5 -34q-58 0 -107 26q-2 -7 -2.5 -27.5t-6.5 -28.5t-23 -8q-39 0 -79 34.5t-40 93.5q0 34 22 87q-38 86 -38 169q0 18 14.5 37t26.5 19q13 0 13 -23q0 -59 26 -121 q57 99 154 225h-10q-10 0 -19.5 -1.5t-16 -4t-11.5 -4.5t-8 -4l-3 -1q-7 0 -7 18q0 36 20 76.5t54 40.5q25 0 87 -11q116 143 269 309q-63 -8 -144.5 -54t-151.5 -109.5t-118 -141t-48 -141.5q0 -19 -17 -19q-28 0 -61 43.5t-33 108.5q0 40 30 90t86.5 99.5t129 91t168 67.5 t192.5 26h24q5 5 16.5 18t16 17.5t14.5 15t14.5 14.5t13 11t14.5 10l13 6.5t14 5t14 1.5q27 0 27 -14q0 -5 -14 -21t-37 -40t-33 -36zM249 11q108 0 232.5 109t206.5 256.5t82 259.5q0 115 -97 142q-120 -147 -235 -322q39 -6 70 -6q15 0 27 3.5t18 7t7 3.5q8 0 8 -22 q0 -35 -18.5 -72.5t-48.5 -37.5q-10 0 -130 19q-121 -198 -172 -332q24 -8 50 -8z" glyph-name="Eth" horiz-adv-x="762" unicode=""/><glyph d="M1054 844h5q21 0 42.5 -22t21.5 -40q0 -8 -4 -12q-107 -106 -252.5 -369t-145.5 -370q0 -22 9.5 -33.5t21 -13t21 -6t9.5 -13.5q0 -29 -53 -71t-104 -42q-32 0 -55.5 20.5t-23.5 63.5q0 109 117.5 333.5t256.5 417.5q-166 -156 -337.5 -356t-221.5 -317q-6 -15 -10.5 -39 t-11 -33t-24.5 -9q-36 0 -70 28t-34 80q0 42 60 134.5t132.5 182.5t132.5 178t60 121q0 23 -28 23q-46 0 -122 -47t-145.5 -112t-120.5 -139t-51 -123q0 -15 11.5 -34.5t11.5 -22.5q0 -8 -13 -13.5t-31 -5.5q-41 0 -74.5 25t-33.5 77q0 65 58 148t142 152t182.5 116.5 t173.5 47.5q109 0 109 -92q0 -70 -64 -200q143 159 274 273t179 114zM738 948q-4 -4 -7 -4q-9 0 -9 21q0 28 15.5 53.5t45.5 25.5q35 0 94.5 -28t77.5 -28q8 0 18.5 7t12.5 7q10 0 10 -25q0 -26 -14 -49t-41 -23q-21 0 -85 26.5t-89 26.5q-19 0 -29 -10z" glyph-name="Ntilde" horiz-adv-x="803" unicode=""/><glyph d="M683 844q123 0 184.5 -76t61.5 -200q0 -88 -29.5 -186.5t-87 -192t-132.5 -169.5t-175 -122t-207 -46q-130 0 -214 78t-84 222q0 119 60 245.5t152.5 224t211.5 160t229 62.5q7 0 11 -1q7 1 19 1zM318 -4q86 0 169.5 44.5t147 116t113 156t75 168.5t25.5 151 q0 63 -24.5 99t-73.5 36q-64 0 -132.5 -46.5t-118 -113t-82 -140t-32.5 -126.5q0 -81 71 -81q77 0 153 97t76 175q0 66 -64 66q-18 0 -18 12q0 13 18.5 26.5t45.5 13.5q49 0 74.5 -35t25.5 -93q0 -47 -16 -100.5t-48.5 -105.5t-76 -94.5t-104 -68.5t-127.5 -26 q-81 0 -130 48t-49 125q0 86 46 181t120 177q-110 -93 -180 -218t-70 -234q0 -96 50.5 -153t135.5 -57zM795 1044q29 0 45.5 -43.5t16.5 -84.5q0 -11 -11.5 -20.5t-22.5 -9.5t-11 11q0 12 -23.5 40.5t-44.5 28.5q-10 0 -10 14q0 20 17.5 42t43.5 22z" glyph-name="Ograve" horiz-adv-x="829" unicode=""/><glyph d="M683 844q123 0 184.5 -76t61.5 -200q0 -88 -29.5 -186.5t-87 -192t-132.5 -169.5t-175 -122t-207 -46q-130 0 -214 78t-84 222q0 119 60 245.5t152.5 224t211.5 160t229 62.5q7 0 11 -1q7 1 19 1zM318 -4q86 0 169.5 44.5t147 116t113 156t75 168.5t25.5 151 q0 63 -24.5 99t-73.5 36q-64 0 -132.5 -46.5t-118 -113t-82 -140t-32.5 -126.5q0 -81 71 -81q77 0 153 97t76 175q0 66 -64 66q-18 0 -18 12q0 13 18.5 26.5t45.5 13.5q49 0 74.5 -35t25.5 -93q0 -47 -16 -100.5t-48.5 -105.5t-76 -94.5t-104 -68.5t-127.5 -26 q-81 0 -130 48t-49 125q0 86 46 181t120 177q-110 -93 -180 -218t-70 -234q0 -96 50.5 -153t135.5 -57zM832 1044q26 0 43 -22t17 -42q0 -14 -10 -14q-20 0 -44 -29t-24 -40t-11 -11t-22 9.5t-11 20.5q0 41 16 84.5t46 43.5z" glyph-name="Oacute" horiz-adv-x="829" unicode=""/><glyph d="M683 844q123 0 184.5 -76t61.5 -200q0 -88 -29.5 -186.5t-87 -192t-132.5 -169.5t-175 -122t-207 -46q-130 0 -214 78t-84 222q0 119 60 245.5t152.5 224t211.5 160t229 62.5q7 0 11 -1q7 1 19 1zM318 -4q86 0 169.5 44.5t147 116t113 156t75 168.5t25.5 151 q0 63 -24.5 99t-73.5 36q-64 0 -132.5 -46.5t-118 -113t-82 -140t-32.5 -126.5q0 -81 71 -81q77 0 153 97t76 175q0 66 -64 66q-18 0 -18 12q0 13 18.5 26.5t45.5 13.5q49 0 74.5 -35t25.5 -93q0 -47 -16 -100.5t-48.5 -105.5t-76 -94.5t-104 -68.5t-127.5 -26 q-81 0 -130 48t-49 125q0 86 46 181t120 177q-110 -93 -180 -218t-70 -234q0 -96 50.5 -153t135.5 -57zM931 902q9 0 9 -17q0 -13 -7.5 -24t-21.5 -11q-41 0 -56 83q-38 -47 -68 -47q-26 0 -43.5 22t-17.5 42q0 14 10 14q21 0 67 30t46 39q0 11 11 11q25 0 31.5 -35.5 t12 -71t27.5 -35.5z" glyph-name="Ocircumflex" horiz-adv-x="829" unicode=""/><glyph d="M683 844q123 0 184.5 -76t61.5 -200q0 -88 -29.5 -186.5t-87 -192t-132.5 -169.5t-175 -122t-207 -46q-130 0 -214 78t-84 222q0 119 60 245.5t152.5 224t211.5 160t229 62.5q7 0 11 -1q7 1 19 1zM318 -4q86 0 169.5 44.5t147 116t113 156t75 168.5t25.5 151 q0 63 -24.5 99t-73.5 36q-64 0 -132.5 -46.5t-118 -113t-82 -140t-32.5 -126.5q0 -81 71 -81q77 0 153 97t76 175q0 66 -64 66q-18 0 -18 12q0 13 18.5 26.5t45.5 13.5q49 0 74.5 -35t25.5 -93q0 -47 -16 -100.5t-48.5 -105.5t-76 -94.5t-104 -68.5t-127.5 -26 q-81 0 -130 48t-49 125q0 86 46 181t120 177q-110 -93 -180 -218t-70 -234q0 -96 50.5 -153t135.5 -57zM712 948q-4 -4 -7 -4q-9 0 -9 21q0 28 15.5 53.5t45.5 25.5q35 0 94.5 -28t77.5 -28q8 0 18.5 7t12.5 7q10 0 10 -25q0 -26 -14 -49t-41 -23q-21 0 -85 26.5t-89 26.5 q-19 0 -29 -10z" glyph-name="Otilde" horiz-adv-x="829" unicode=""/><glyph d="M683 844q123 0 184.5 -76t61.5 -200q0 -88 -29.5 -186.5t-87 -192t-132.5 -169.5t-175 -122t-207 -46q-130 0 -214 78t-84 222q0 119 60 245.5t152.5 224t211.5 160t229 62.5q7 0 11 -1q7 1 19 1zM318 -4q86 0 169.5 44.5t147 116t113 156t75 168.5t25.5 151 q0 63 -24.5 99t-73.5 36q-64 0 -132.5 -46.5t-118 -113t-82 -140t-32.5 -126.5q0 -81 71 -81q77 0 153 97t76 175q0 66 -64 66q-18 0 -18 12q0 13 18.5 26.5t45.5 13.5q49 0 74.5 -35t25.5 -93q0 -47 -16 -100.5t-48.5 -105.5t-76 -94.5t-104 -68.5t-127.5 -26 q-81 0 -130 48t-49 125q0 86 46 181t120 177q-110 -93 -180 -218t-70 -234q0 -96 50.5 -153t135.5 -57zM742 1044q24 0 41 -17t17 -40q0 -24 -17 -41t-41 -17q-23 0 -40 17t-17 41q0 23 17 40t40 17zM883 1024q24 0 41 -17t17 -40q0 -24 -17 -41t-41 -17q-23 0 -40 17 t-17 41q0 23 17 40t40 17z" glyph-name="Odieresis" horiz-adv-x="829" unicode=""/><glyph d="M94 124q-20 -20 -51.5 -25t-40.5 7l-1.5 6t5 9.5t11 14t17 20l23 27t29 36t35.5 46.5q-32 96 -36 106q-8 26 -3.5 53.5t15.5 38.5q10 8 18 0q2 -2 64 -122q3 3 21.5 22t19.5 20q32 32 79 36.5t62 -14.5q17 -17 -6 -40q-5 -5 -27 -26t-51.5 -49.5t-46.5 -44.5l13.5 -27 l12 -24t5.5 -12q13 -42 5.5 -78t-27.5 -56q-21 -22 -38 -5q-5 5 -9.5 16.5t-17.5 49t-22 62.5q-10 -10 -23.5 -20.5t-23 -17.5t-11.5 -9z" glyph-name="multiply" horiz-adv-x="368" unicode=""/><glyph d="M849 815q109 -61 109 -228q0 -88 -32 -189t-92.5 -197t-139.5 -174.5t-183 -126.5t-213 -48q-13 0 -41 2q-15 -50 -15 -87q0 -17 -27 -17q-40 0 -79.5 34t-39.5 93q0 17 6 38q-102 79 -102 237q0 80 30.5 165t82 160.5t121 143.5t145.5 117t158 77.5t156 28.5q7 0 11 -1 q7 1 19 1q33 0 62 -6q9 10 26 28.5t24.5 26.5t21 20.5t22 18t20 9.5t22.5 4q27 0 27 -15q0 -5 -16.5 -23.5t-43 -46.5t-39.5 -45zM703 747q-97 -42 -186 -152t-117 -208q153 194 303 360zM457 260q77 1 152 97.5t75 174.5q0 32 -15 48q-116 -160 -212 -320zM132 206 q0 -86 41 -141q39 66 86 132q-23 40 -23 103q0 89 52 186.5t134 182.5q-126 -93 -208 -222t-82 -241zM318 -4q88 0 176 46.5t156 120.5t121.5 161.5t82 173t28.5 150.5q0 105 -73 118q-59 -75 -97 -126q55 -28 55 -118q0 -64 -27.5 -132.5t-75 -127.5t-123 -97t-161.5 -38 q-38 -68 -67 -131h5z" glyph-name="Oslash" horiz-adv-x="858" unicode=""/><glyph d="M1092 836q8 8 20 8q20 0 41.5 -21.5t21.5 -40.5q0 -8 -4 -12q-71 -71 -180 -222t-196.5 -308t-87.5 -221q0 -17 8.5 -25.5t19.5 -9.5t19.5 -5.5t8.5 -13.5q0 -29 -53 -71t-104 -42q-30 0 -53 18t-23 56q0 55 43 154q-146 -146 -237 -146q-51 0 -88 30.5t-37 86.5 q0 55 61.5 152.5t135.5 184.5t135.5 169.5t61.5 111.5q0 21 -27 21q-40 0 -114.5 -49t-146 -116t-125 -143t-53.5 -125q0 -15 11 -33t11 -21q0 -20 -47 -20q-43 0 -78.5 25t-35.5 77q0 64 63.5 147.5t152 152.5t186.5 116.5t164 47.5q107 0 107 -80q0 -53 -47.5 -145.5 t-104 -174t-104 -159.5t-47.5 -106q0 -21 23 -21q39 0 138 102.5t199 228.5t209.5 262.5t152.5 179.5zM808 949q29 0 45.5 -43.5t16.5 -84.5q0 -11 -11.5 -20.5t-22.5 -9.5t-11 11q0 12 -23.5 40.5t-44.5 28.5q-10 0 -10 14q0 20 17.5 42t43.5 22z" glyph-name="Ugrave" horiz-adv-x="805" unicode=""/><glyph d="M1092 836q8 8 20 8q20 0 41.5 -21.5t21.5 -40.5q0 -8 -4 -12q-71 -71 -180 -222t-196.5 -308t-87.5 -221q0 -17 8.5 -25.5t19.5 -9.5t19.5 -5.5t8.5 -13.5q0 -29 -53 -71t-104 -42q-30 0 -53 18t-23 56q0 55 43 154q-146 -146 -237 -146q-51 0 -88 30.5t-37 86.5 q0 55 61.5 152.5t135.5 184.5t135.5 169.5t61.5 111.5q0 21 -27 21q-40 0 -114.5 -49t-146 -116t-125 -143t-53.5 -125q0 -15 11 -33t11 -21q0 -20 -47 -20q-43 0 -78.5 25t-35.5 77q0 64 63.5 147.5t152 152.5t186.5 116.5t164 47.5q107 0 107 -80q0 -53 -47.5 -145.5 t-104 -174t-104 -159.5t-47.5 -106q0 -21 23 -21q39 0 138 102.5t199 228.5t209.5 262.5t152.5 179.5zM845 949q26 0 43 -22t17 -42q0 -14 -10 -14q-20 0 -44 -29t-24 -40t-11 -11t-22 9.5t-11 20.5q0 41 16 84.5t46 43.5z" glyph-name="Uacute" horiz-adv-x="805" unicode=""/><glyph d="M1092 836q8 8 20 8q20 0 41.5 -21.5t21.5 -40.5q0 -8 -4 -12q-71 -71 -180 -222t-196.5 -308t-87.5 -221q0 -17 8.5 -25.5t19.5 -9.5t19.5 -5.5t8.5 -13.5q0 -29 -53 -71t-104 -42q-30 0 -53 18t-23 56q0 55 43 154q-146 -146 -237 -146q-51 0 -88 30.5t-37 86.5 q0 55 61.5 152.5t135.5 184.5t135.5 169.5t61.5 111.5q0 21 -27 21q-40 0 -114.5 -49t-146 -116t-125 -143t-53.5 -125q0 -15 11 -33t11 -21q0 -20 -47 -20q-43 0 -78.5 25t-35.5 77q0 64 63.5 147.5t152 152.5t186.5 116.5t164 47.5q107 0 107 -80q0 -53 -47.5 -145.5 t-104 -174t-104 -159.5t-47.5 -106q0 -21 23 -21q39 0 138 102.5t199 228.5t209.5 262.5t152.5 179.5zM944 807q9 0 9 -17q0 -13 -7.5 -24t-21.5 -11q-41 0 -56 83q-38 -47 -68 -47q-26 0 -43.5 22t-17.5 42q0 14 10 14q21 0 67 30t46 39q0 11 11 11q25 0 31.5 -35.5t12 -71 t27.5 -35.5z" glyph-name="Ucircumflex" horiz-adv-x="805" unicode=""/><glyph d="M1092 836q8 8 20 8q20 0 41.5 -21.5t21.5 -40.5q0 -8 -4 -12q-71 -71 -180 -222t-196.5 -308t-87.5 -221q0 -17 8.5 -25.5t19.5 -9.5t19.5 -5.5t8.5 -13.5q0 -29 -53 -71t-104 -42q-30 0 -53 18t-23 56q0 55 43 154q-146 -146 -237 -146q-51 0 -88 30.5t-37 86.5 q0 55 61.5 152.5t135.5 184.5t135.5 169.5t61.5 111.5q0 21 -27 21q-40 0 -114.5 -49t-146 -116t-125 -143t-53.5 -125q0 -15 11 -33t11 -21q0 -20 -47 -20q-43 0 -78.5 25t-35.5 77q0 64 63.5 147.5t152 152.5t186.5 116.5t164 47.5q107 0 107 -80q0 -53 -47.5 -145.5 t-104 -174t-104 -159.5t-47.5 -106q0 -21 23 -21q39 0 138 102.5t199 228.5t209.5 262.5t152.5 179.5zM755 949q24 0 41 -17t17 -40q0 -24 -17 -41t-41 -17q-23 0 -40 17t-17 41q0 23 17 40t40 17zM896 929q24 0 41 -17t17 -40q0 -24 -17 -41t-41 -17q-23 0 -40 17t-17 41 q0 23 17 40t40 17z" glyph-name="Udieresis" horiz-adv-x="805" unicode=""/><glyph d="M1015 836q8 8 20 8q20 0 41.5 -21.5t21.5 -40.5q0 -8 -4 -12q-71 -71 -180 -222t-196.5 -308t-87.5 -221q0 -17 9 -25.5t19 -9.5t19 -5.5t9 -13.5q0 -29 -53 -71t-104 -42q-30 0 -53 18t-23 56q0 99 134 327q-135 -125 -220 -125q-49 0 -82 31t-33 87q0 39 30.5 93.5 t74 106.5t87 100t74 86.5t30.5 54.5q0 13 -20 13q-62 0 -157.5 -64t-166 -147t-70.5 -134q0 -12 9 -26t9 -17q0 -8 -13 -13.5t-31 -5.5q-41 0 -74.5 25t-33.5 77q0 73 91.5 158t213.5 140.5t211 55.5q98 0 98 -65q0 -38 -32.5 -100.5t-72 -117t-72 -109t-32.5 -78.5 q0 -22 29 -22q38 0 121.5 75.5t163.5 167t171.5 197.5t124.5 139zM755 949q26 0 43 -22t17 -42q0 -14 -10 -14q-20 0 -44 -29t-24 -40t-11 -11t-22 9.5t-11 20.5q0 41 16 84.5t46 43.5z" glyph-name="Yacute" horiz-adv-x="728" unicode=""/><glyph d="M706 736q89 -19 132 -71.5t43 -126.5q0 -76 -42.5 -163.5t-110.5 -160t-161 -120.5t-184 -48q-68 0 -120 44q-117 -221 -117 -328q0 -17 -27 -17q-39 0 -79 34t-40 94q0 98 182 346q-11 39 -11 81q0 18 14.5 36.5t27.5 18.5q8 0 10.5 -9t4.5 -27t7 -31q135 174 330 387 q-97 -24 -202.5 -96t-178.5 -167t-73 -174q0 -19 -17 -19q-28 0 -61 43.5t-33 108.5q0 40 30 90t86.5 99.5t129 91t168 67.5t192.5 26h24q6 8 26.5 33t31.5 38.5t30.5 36.5t33 36.5t29 28t27.5 21t21 6.5q33 0 33 -23q0 -2 -30.5 -37t-70 -80.5t-55.5 -68.5zM369 190 q91 0 188 66.5t157.5 157t60.5 163.5q0 45 -27.5 73.5t-85.5 33.5q-184 -224 -338 -485q21 -9 45 -9z" glyph-name="Thorn" horiz-adv-x="770" unicode=""/><glyph d="M229 127q0 -47 41 -73.5t101 -26.5q65 0 107 30.5t42 71.5q0 31 -28 49.5t-82 18.5q-23 0 -44 31t-21 61q0 41 41 41q78 0 154 35.5t129 90.5t85.5 120.5t32.5 125.5q0 82 -71 82q-68 0 -153 -64.5t-165.5 -173t-149 -237.5t-110 -271t-41.5 -260q0 -18 -17 -18 q-28 0 -61 43.5t-33 108.5q0 69 32 166.5t85.5 200.5t127 205t152 182t165.5 130t163 50q73 0 120 -45t47 -136q0 -131 -95 -260.5t-233 -181.5q78 -43 78 -122q0 -84 -62.5 -151t-163.5 -67q-100 0 -163.5 59t-63.5 153q0 18 14 35t27 17t13 -20z" glyph-name="germandbls" horiz-adv-x="678" unicode=""/><glyph d="M510 267q6 6 13 6q8 0 14 -7t6 -15q0 -7 -4 -11q-2 -2 -30.5 -43.5t-60 -83t-76.5 -77.5t-80 -36q-65 0 -65 59q0 15 5 38q-95 -97 -163 -97q-69 0 -69 75q0 69 53.5 170t135 178t150.5 77q85 0 111 -82q20 9 38 9q26 0 26 -13q0 -6 -7 -12q-38 -38 -90.5 -120.5 t-52.5 -116.5q0 -16 15 -16q14 0 40.5 23.5t57.5 58t33 36.5zM156 149q47 0 185 151q32 43 61 75q-3 24 -20 43.5t-37 19.5q-30 0 -80 -54t-87.5 -119t-37.5 -97q0 -19 16 -19zM392 700q29 0 45.5 -43.5t16.5 -84.5q0 -11 -11.5 -20.5t-22.5 -9.5t-11 11q0 12 -23.5 40.5 t-44.5 28.5q-10 0 -10 14q0 20 17.5 42t43.5 22z" glyph-name="agrave" horiz-adv-x="433" unicode=""/><glyph d="M510 267q6 6 13 6q8 0 14 -7t6 -15q0 -7 -4 -11q-2 -2 -30.5 -43.5t-60 -83t-76.5 -77.5t-80 -36q-65 0 -65 59q0 15 5 38q-95 -97 -163 -97q-69 0 -69 75q0 69 53.5 170t135 178t150.5 77q85 0 111 -82q20 9 38 9q26 0 26 -13q0 -6 -7 -12q-38 -38 -90.5 -120.5 t-52.5 -116.5q0 -16 15 -16q14 0 40.5 23.5t57.5 58t33 36.5zM156 149q47 0 185 151q32 43 61 75q-3 24 -20 43.5t-37 19.5q-30 0 -80 -54t-87.5 -119t-37.5 -97q0 -19 16 -19zM429 700q26 0 43 -22t17 -42q0 -14 -10 -14q-20 0 -44 -29t-24 -40t-11 -11t-22 9.5t-11 20.5 q0 41 16 84.5t46 43.5z" glyph-name="aacute" horiz-adv-x="433" unicode=""/><glyph d="M510 267q6 6 13 6q8 0 14 -7t6 -15q0 -7 -4 -11q-2 -2 -30.5 -43.5t-60 -83t-76.5 -77.5t-80 -36q-65 0 -65 59q0 15 5 38q-95 -97 -163 -97q-69 0 -69 75q0 69 53.5 170t135 178t150.5 77q85 0 111 -82q20 9 38 9q26 0 26 -13q0 -6 -7 -12q-38 -38 -90.5 -120.5 t-52.5 -116.5q0 -16 15 -16q14 0 40.5 23.5t57.5 58t33 36.5zM156 149q47 0 185 151q32 43 61 75q-3 24 -20 43.5t-37 19.5q-30 0 -80 -54t-87.5 -119t-37.5 -97q0 -19 16 -19zM528 558q9 0 9 -17q0 -13 -7.5 -24t-21.5 -11q-41 0 -56 83q-38 -47 -68 -47q-26 0 -43.5 22 t-17.5 42q0 14 10 14q21 0 67 30t46 39q0 11 11 11q25 0 31.5 -35.5t12 -71t27.5 -35.5z" glyph-name="acircumflex" horiz-adv-x="433" unicode=""/><glyph d="M510 267q6 6 13 6q8 0 14 -7t6 -15q0 -7 -4 -11q-2 -2 -30.5 -43.5t-60 -83t-76.5 -77.5t-80 -36q-65 0 -65 59q0 15 5 38q-95 -97 -163 -97q-69 0 -69 75q0 69 53.5 170t135 178t150.5 77q85 0 111 -82q20 9 38 9q26 0 26 -13q0 -6 -7 -12q-38 -38 -90.5 -120.5 t-52.5 -116.5q0 -16 15 -16q14 0 40.5 23.5t57.5 58t33 36.5zM156 149q47 0 185 151q32 43 61 75q-3 24 -20 43.5t-37 19.5q-30 0 -80 -54t-87.5 -119t-37.5 -97q0 -19 16 -19zM309 604q-4 -4 -7 -4q-9 0 -9 21q0 28 15.5 53.5t45.5 25.5q35 0 94.5 -28t77.5 -28q8 0 18.5 7 t12.5 7q10 0 10 -25q0 -26 -14 -49t-41 -23q-21 0 -85 26.5t-89 26.5q-19 0 -29 -10z" glyph-name="atilde" horiz-adv-x="433" unicode=""/><glyph d="M510 267q6 6 13 6q8 0 14 -7t6 -15q0 -7 -4 -11q-2 -2 -30.5 -43.5t-60 -83t-76.5 -77.5t-80 -36q-65 0 -65 59q0 15 5 38q-95 -97 -163 -97q-69 0 -69 75q0 69 53.5 170t135 178t150.5 77q85 0 111 -82q20 9 38 9q26 0 26 -13q0 -6 -7 -12q-38 -38 -90.5 -120.5 t-52.5 -116.5q0 -16 15 -16q14 0 40.5 23.5t57.5 58t33 36.5zM156 149q47 0 185 151q32 43 61 75q-3 24 -20 43.5t-37 19.5q-30 0 -80 -54t-87.5 -119t-37.5 -97q0 -19 16 -19zM359 700q24 0 41 -17t17 -40q0 -24 -17 -41t-41 -17q-23 0 -40 17t-17 41q0 23 17 40t40 17z M500 680q24 0 41 -17t17 -40q0 -24 -17 -41t-41 -17q-23 0 -40 17t-17 41q0 23 17 40t40 17z" glyph-name="adieresis" horiz-adv-x="433" unicode=""/><glyph d="M510 267q6 6 13 6q8 0 14 -7t6 -15q0 -7 -4 -11q-2 -2 -30.5 -43.5t-60 -83t-76.5 -77.5t-80 -36q-65 0 -65 59q0 15 5 38q-95 -97 -163 -97q-69 0 -69 75q0 69 53.5 170t135 178t150.5 77q85 0 111 -82q20 9 38 9q26 0 26 -13q0 -6 -7 -12q-38 -38 -90.5 -120.5 t-52.5 -116.5q0 -16 15 -16q14 0 40.5 23.5t57.5 58t33 36.5zM156 149q47 0 185 151q32 43 61 75q-3 24 -20 43.5t-37 19.5q-30 0 -80 -54t-87.5 -119t-37.5 -97q0 -19 16 -19zM304 618q0 62 48.5 107t115.5 45q48 0 78 -25.5t30 -72.5q0 -62 -48 -107.5t-115 -45.5 q-48 0 -78.5 25.5t-30.5 73.5zM378 627q0 -47 45 -47q32 0 55.5 24.5t23.5 56.5q0 22 -12.5 35t-33.5 13q-32 0 -55 -24.5t-23 -57.5z" glyph-name="aring" horiz-adv-x="433" unicode=""/><glyph d="M665 266q6 6 14 6t14.5 -7t6.5 -15q0 -6 -5 -11q-1 -1 -17.5 -21t-38.5 -45.5t-55.5 -57t-67.5 -56.5t-76 -42.5t-81 -17.5q-97 0 -97 97q0 20 4 39q-117 -135 -198 -135q-69 0 -69 75q0 69 53.5 170t135 178t150.5 77q79 0 108 -73q87 74 166 74q60 0 60 -59 q0 -34 -21.5 -77.5t-55.5 -82t-83 -65.5t-98 -28q5 -41 61 -41q16 0 33.5 5t35 15t32.5 20t31 24t25 22t21 20zM604 443q-31 0 -90.5 -63.5t-87.5 -126.5q62 9 124 78t62 103q0 9 -8 9zM155 149q44 0 175 140q28 46 70 93q-6 22 -21.5 39t-34.5 17q-30 0 -80 -54t-87.5 -119 t-37.5 -97q0 -19 16 -19z" glyph-name="ae" horiz-adv-x="590" unicode=""/><glyph d="M403 266q6 6 13 6q8 0 14.5 -7t6.5 -15q0 -6 -5 -11l-17 -21q-17 -21 -38 -46t-55 -56.5t-68 -56.5t-76.5 -42.5t-81.5 -17.5q-96 0 -96 96q0 73 52 168.5t135.5 166.5t162.5 71q75 0 75 -60q0 -46 -39.5 -97t-75.5 -51q-14 0 -25 13t-11 25q0 11 11 11q21 0 45.5 32 t24.5 54q0 15 -14 15q-25 0 -70.5 -43t-83 -102.5t-37.5 -99.5q0 -50 63 -50q14 0 29.5 4.5t29.5 11t30 17t27.5 19.5t25 20.5t21 18.5t17 16.5zM66 19h60q-2 -47 -37.5 -111t-64.5 -64q-26 0 -43.5 21.5t-17.5 41.5q0 14 10 14q14 0 48.5 34.5t44.5 63.5z" glyph-name="ccedilla" horiz-adv-x="327" unicode=""/><glyph d="M403 266q6 6 13 6q8 0 14.5 -7t6.5 -15q0 -6 -5 -11l-17 -21q-17 -21 -38 -46t-55 -56.5t-68 -56.5t-76.5 -42.5t-81.5 -17.5q-96 0 -96 96q0 73 52 168.5t135.5 166.5t162.5 71q60 0 60 -59q0 -46 -35 -104.5t-97 -103t-127 -45.5q7 -41 62 -41q14 0 29.5 4.5t29.5 11 t30 17t27.5 19.5t25 20.5t21 18.5t17 16.5zM341 443q-31 0 -90 -63.5t-87 -126.5q62 9 123.5 77.5t61.5 102.5q0 10 -8 10zM382 701q29 0 45.5 -43.5t16.5 -84.5q0 -11 -11.5 -20.5t-22.5 -9.5t-11 11q0 12 -23.5 40.5t-44.5 28.5q-10 0 -10 14q0 20 17.5 42t43.5 22z" glyph-name="egrave" horiz-adv-x="327" unicode=""/><glyph d="M403 266q6 6 13 6q8 0 14.5 -7t6.5 -15q0 -6 -5 -11l-17 -21q-17 -21 -38 -46t-55 -56.5t-68 -56.5t-76.5 -42.5t-81.5 -17.5q-96 0 -96 96q0 73 52 168.5t135.5 166.5t162.5 71q60 0 60 -59q0 -46 -35 -104.5t-97 -103t-127 -45.5q7 -41 62 -41q14 0 29.5 4.5t29.5 11 t30 17t27.5 19.5t25 20.5t21 18.5t17 16.5zM341 443q-31 0 -90 -63.5t-87 -126.5q62 9 123.5 77.5t61.5 102.5q0 10 -8 10zM419 701q26 0 43 -22t17 -42q0 -14 -10 -14q-20 0 -44 -29t-24 -40t-11 -11t-22 9.5t-11 20.5q0 41 16 84.5t46 43.5z" glyph-name="eacute" horiz-adv-x="327" unicode=""/><glyph d="M403 266q6 6 13 6q8 0 14.5 -7t6.5 -15q0 -6 -5 -11l-17 -21q-17 -21 -38 -46t-55 -56.5t-68 -56.5t-76.5 -42.5t-81.5 -17.5q-96 0 -96 96q0 73 52 168.5t135.5 166.5t162.5 71q60 0 60 -59q0 -46 -35 -104.5t-97 -103t-127 -45.5q7 -41 62 -41q14 0 29.5 4.5t29.5 11 t30 17t27.5 19.5t25 20.5t21 18.5t17 16.5zM341 443q-31 0 -90 -63.5t-87 -126.5q62 9 123.5 77.5t61.5 102.5q0 10 -8 10zM518 559q9 0 9 -17q0 -13 -7.5 -24t-21.5 -11q-41 0 -56 83q-38 -47 -68 -47q-26 0 -43.5 22t-17.5 42q0 14 10 14q21 0 67 30t46 39q0 11 11 11 q25 0 31.5 -35.5t12 -71t27.5 -35.5z" glyph-name="ecircumflex" horiz-adv-x="327" unicode=""/><glyph d="M403 266q6 6 13 6q8 0 14.5 -7t6.5 -15q0 -6 -5 -11l-17 -21q-17 -21 -38 -46t-55 -56.5t-68 -56.5t-76.5 -42.5t-81.5 -17.5q-96 0 -96 96q0 73 52 168.5t135.5 166.5t162.5 71q60 0 60 -59q0 -46 -35 -104.5t-97 -103t-127 -45.5q7 -41 62 -41q14 0 29.5 4.5t29.5 11 t30 17t27.5 19.5t25 20.5t21 18.5t17 16.5zM341 443q-31 0 -90 -63.5t-87 -126.5q62 9 123.5 77.5t61.5 102.5q0 10 -8 10zM349 701q24 0 41 -17t17 -40q0 -24 -17 -41t-41 -17q-23 0 -40 17t-17 41q0 23 17 40t40 17zM490 681q24 0 41 -17t17 -40q0 -24 -17 -41t-41 -17 q-23 0 -40 17t-17 41q0 23 17 40t40 17z" glyph-name="edieresis" horiz-adv-x="327" unicode=""/><glyph d="M263 268q6 6 13 6q8 0 14 -7t6 -15q0 -7 -4 -11q-2 -2 -30.5 -43.5t-60 -83t-76.5 -77.5t-80 -36q-65 0 -65 59q0 46 45.5 134t109 161t106.5 73q26 0 26 -13q0 -6 -7 -12q-38 -38 -90.5 -120.5t-52.5 -116.5q0 -16 15 -16q14 0 40.5 23.5t57.5 58t33 36.5zM253 628 q29 0 45.5 -43.5t16.5 -84.5q0 -11 -11.5 -20.5t-22.5 -9.5t-11 11q0 12 -23.5 40.5t-44.5 28.5q-10 0 -10 14q0 20 17.5 42t43.5 22z" glyph-name="igrave" horiz-adv-x="188" unicode=""/><glyph d="M263 268q6 6 13 6q8 0 14 -7t6 -15q0 -7 -4 -11q-2 -2 -30.5 -43.5t-60 -83t-76.5 -77.5t-80 -36q-65 0 -65 59q0 46 45.5 134t109 161t106.5 73q26 0 26 -13q0 -6 -7 -12q-38 -38 -90.5 -120.5t-52.5 -116.5q0 -16 15 -16q14 0 40.5 23.5t57.5 58t33 36.5zM290 628 q26 0 43 -22t17 -42q0 -14 -10 -14q-20 0 -44 -29t-24 -40t-11 -11t-22 9.5t-11 20.5q0 41 16 84.5t46 43.5z" glyph-name="iacute" horiz-adv-x="188" unicode=""/><glyph d="M263 268q6 6 13 6q8 0 14 -7t6 -15q0 -7 -4 -11q-2 -2 -30.5 -43.5t-60 -83t-76.5 -77.5t-80 -36q-65 0 -65 59q0 46 45.5 134t109 161t106.5 73q26 0 26 -13q0 -6 -7 -12q-38 -38 -90.5 -120.5t-52.5 -116.5q0 -16 15 -16q14 0 40.5 23.5t57.5 58t33 36.5zM389 486 q9 0 9 -17q0 -13 -7.5 -24t-21.5 -11q-41 0 -56 83q-38 -47 -68 -47q-26 0 -43.5 22t-17.5 42q0 14 10 14q21 0 67 30t46 39q0 11 11 11q25 0 31.5 -35.5t12 -71t27.5 -35.5z" glyph-name="icircumflex" horiz-adv-x="188" unicode=""/><glyph d="M263 268q6 6 13 6q8 0 14 -7t6 -15q0 -7 -4 -11q-2 -2 -30.5 -43.5t-60 -83t-76.5 -77.5t-80 -36q-65 0 -65 59q0 46 45.5 134t109 161t106.5 73q26 0 26 -13q0 -6 -7 -12q-38 -38 -90.5 -120.5t-52.5 -116.5q0 -16 15 -16q14 0 40.5 23.5t57.5 58t33 36.5zM220 628 q24 0 41 -17t17 -40q0 -24 -17 -41t-41 -17q-23 0 -40 17t-17 41q0 23 17 40t40 17zM361 608q24 0 41 -17t17 -40q0 -24 -17 -41t-41 -17q-23 0 -40 17t-17 41q0 23 17 40t40 17z" glyph-name="idieresis" horiz-adv-x="188" unicode=""/><glyph d="M437 448q22 51 28.5 96t-4 81.5t-50.5 52.5t-108 4q-12 -2 -8 9q6 22 37 49q14 12 22 12q176 0 191 -135q14 -119 -94 -295q-94 -153 -216 -248q-95 -74 -166 -74q-69 0 -69 75q0 69 53.5 170t135 178t150.5 77q67 0 98 -52zM156 149q83 0 242 241q-6 20 -21 34t-32 14 q-30 0 -80 -54t-87.5 -119t-37.5 -97q0 -19 16 -19zM548 673q26 8 55.5 -2t34.5 -25q3 -10 -17 -17q-246 -82 -266 -88q-46 -15 -82 -10t-43 28t23 32q20 6 151.5 42t143.5 40z" glyph-name="eth" horiz-adv-x="406" unicode=""/><glyph d="M479 506q20 -2 40 -23.5t20 -38.5q0 -8 -4 -12q-58 -58 -120.5 -143.5t-62.5 -120.5q0 -17 18 -17q14 0 40.5 23.5t57.5 58t33 36.5q6 6 13 6q8 0 14 -7t6 -15q0 -7 -4 -11q-2 -2 -30.5 -43.5t-60 -83t-76.5 -77.5t-80 -36q-70 0 -70 67q0 54 42.5 140t104.5 173 q-96 -86 -187 -201.5t-91 -165.5q0 -13 -16 -13q-24 0 -50 23t-26 57q0 72 86.5 201t156.5 198q25 25 59 25q26 0 26 -13q0 -2 -19.5 -27t-53 -71t-59.5 -90q83 85 164.5 143t128.5 58zM278 610q-4 -4 -7 -4q-9 0 -9 21q0 28 15.5 53.5t45.5 25.5q35 0 94.5 -28t77.5 -28 q8 0 18.5 7t12.5 7q10 0 10 -25q0 -26 -14 -49t-41 -23q-21 0 -85 26.5t-89 26.5q-19 0 -29 -10z" glyph-name="ntilde" horiz-adv-x="429" unicode=""/><glyph d="M483 267q6 6 13 6q8 0 14 -7t6 -15q0 -7 -4 -11q-1 -1 -8.5 -9.5t-15 -16t-22 -19t-30 -20.5t-38 -17.5t-46.5 -13.5q-55 -65 -118.5 -105t-123.5 -40q-51 0 -75.5 26.5t-24.5 72.5q0 67 45 153.5t119 154.5t146 79q30 16 62 16q92 0 92 -92q0 -82 -69 -192q38 13 78 50z M374 446q-33 0 -65.5 -60.5t-32.5 -116.5q0 -32 14 -49q44 48 75.5 106.5t31.5 92.5q0 27 -23 27zM197 313q-51 -77 -51 -128q0 -37 31 -37q20 0 45 14q-34 31 -34 89q0 31 9 62zM414 701q29 0 45.5 -43.5t16.5 -84.5q0 -11 -11.5 -20.5t-22.5 -9.5t-11 11q0 12 -23.5 40.5 t-44.5 28.5q-10 0 -10 14q0 20 17.5 42t43.5 22z" glyph-name="ograve" horiz-adv-x="416" unicode=""/><glyph d="M483 267q6 6 13 6q8 0 14 -7t6 -15q0 -7 -4 -11q-1 -1 -8.5 -9.5t-15 -16t-22 -19t-30 -20.5t-38 -17.5t-46.5 -13.5q-55 -65 -118.5 -105t-123.5 -40q-51 0 -75.5 26.5t-24.5 72.5q0 67 45 153.5t119 154.5t146 79q30 16 62 16q92 0 92 -92q0 -82 -69 -192q38 13 78 50z M374 446q-33 0 -65.5 -60.5t-32.5 -116.5q0 -32 14 -49q44 48 75.5 106.5t31.5 92.5q0 27 -23 27zM197 313q-51 -77 -51 -128q0 -37 31 -37q20 0 45 14q-34 31 -34 89q0 31 9 62zM451 701q26 0 43 -22t17 -42q0 -14 -10 -14q-20 0 -44 -29t-24 -40t-11 -11t-22 9.5t-11 20.5 q0 41 16 84.5t46 43.5z" glyph-name="oacute" horiz-adv-x="416" unicode=""/><glyph d="M483 267q6 6 13 6q8 0 14 -7t6 -15q0 -7 -4 -11q-1 -1 -8.5 -9.5t-15 -16t-22 -19t-30 -20.5t-38 -17.5t-46.5 -13.5q-55 -65 -118.5 -105t-123.5 -40q-51 0 -75.5 26.5t-24.5 72.5q0 67 45 153.5t119 154.5t146 79q30 16 62 16q92 0 92 -92q0 -82 -69 -192q38 13 78 50z M374 446q-33 0 -65.5 -60.5t-32.5 -116.5q0 -32 14 -49q44 48 75.5 106.5t31.5 92.5q0 27 -23 27zM197 313q-51 -77 -51 -128q0 -37 31 -37q20 0 45 14q-34 31 -34 89q0 31 9 62zM550 559q9 0 9 -17q0 -13 -7.5 -24t-21.5 -11q-41 0 -56 83q-38 -47 -68 -47q-26 0 -43.5 22 t-17.5 42q0 14 10 14q21 0 67 30t46 39q0 11 11 11q25 0 31.5 -35.5t12 -71t27.5 -35.5z" glyph-name="ocircumflex" horiz-adv-x="416" unicode=""/><glyph d="M483 267q6 6 13 6q8 0 14 -7t6 -15q0 -7 -4 -11q-1 -1 -8.5 -9.5t-15 -16t-22 -19t-30 -20.5t-38 -17.5t-46.5 -13.5q-55 -65 -118.5 -105t-123.5 -40q-51 0 -75.5 26.5t-24.5 72.5q0 67 45 153.5t119 154.5t146 79q30 16 62 16q92 0 92 -92q0 -82 -69 -192q38 13 78 50z M374 446q-33 0 -65.5 -60.5t-32.5 -116.5q0 -32 14 -49q44 48 75.5 106.5t31.5 92.5q0 27 -23 27zM197 313q-51 -77 -51 -128q0 -37 31 -37q20 0 45 14q-34 31 -34 89q0 31 9 62zM331 605q-4 -4 -7 -4q-9 0 -9 21q0 28 15.5 53.5t45.5 25.5q35 0 94.5 -28t77.5 -28 q8 0 18.5 7t12.5 7q10 0 10 -25q0 -26 -14 -49t-41 -23q-21 0 -85 26.5t-89 26.5q-19 0 -29 -10z" glyph-name="otilde" horiz-adv-x="416" unicode=""/><glyph d="M483 267q6 6 13 6q8 0 14 -7t6 -15q0 -7 -4 -11q-1 -1 -8.5 -9.5t-15 -16t-22 -19t-30 -20.5t-38 -17.5t-46.5 -13.5q-55 -65 -118.5 -105t-123.5 -40q-51 0 -75.5 26.5t-24.5 72.5q0 67 45 153.5t119 154.5t146 79q30 16 62 16q92 0 92 -92q0 -82 -69 -192q38 13 78 50z M374 446q-33 0 -65.5 -60.5t-32.5 -116.5q0 -32 14 -49q44 48 75.5 106.5t31.5 92.5q0 27 -23 27zM197 313q-51 -77 -51 -128q0 -37 31 -37q20 0 45 14q-34 31 -34 89q0 31 9 62zM381 701q24 0 41 -17t17 -40q0 -24 -17 -41t-41 -17q-23 0 -40 17t-17 41q0 23 17 40t40 17z M522 681q24 0 41 -17t17 -40q0 -24 -17 -41t-41 -17q-23 0 -40 17t-17 41q0 23 17 40t40 17z" glyph-name="odieresis" horiz-adv-x="416" unicode=""/><glyph d="M338 296q28 0 53 -18t25 -33q0 -12 -21 -12q-8 0 -135.5 -18.5t-144.5 -18.5q-45 0 -80 28.5t-35 54.5q0 24 32 24q22 0 158.5 -3.5t147.5 -3.5zM158 132q26 0 44.5 -18t18.5 -44t-18.5 -44.5t-44.5 -18.5t-44 18.5t-18 44.5t18 44t44 18zM258 482q26 0 44.5 -18 t18.5 -44t-18.5 -44.5t-44.5 -18.5t-44 18.5t-18 44.5t18 44t44 18z" glyph-name="divide" horiz-adv-x="416" unicode=""/><glyph d="M491 674q23 23 60 23q33 0 33 -15q0 -6 -7 -12q-67 -69 -149 -183q36 -22 36 -78q0 -82 -69 -192q24 8 44 22.5t31 24t16 9.5q8 0 14 -7t6 -15q0 -7 -4 -11q-1 -1 -8.5 -9.5t-15 -16t-22 -19t-30 -20.5t-38 -17.5t-46.5 -13.5q-89 -106 -183 -135q-44 -116 -44 -183 q0 -11 -15 -11q-24 0 -50 22t-26 56t36 111q-60 19 -60 93q0 68 45 154.5t119 154.5t146 79q27 13 51 16q99 142 130 173zM187 313q-51 -75 -51 -128q0 -18 7 -26q7 12 21 35.5t17 28.5q-3 13 -3 28q0 24 9 62zM280 220q44 49 75.5 107.5t31.5 91.5q0 1 -0.5 4t-0.5 4 q-71 -106 -115 -187q3 -10 9 -20z" glyph-name="oslash" horiz-adv-x="416" unicode=""/><glyph d="M463 497q8 8 20 8q20 0 41.5 -21.5t21.5 -40.5q0 -8 -4 -12q-58 -58 -120.5 -143.5t-62.5 -120.5q0 -17 18 -17q14 0 40.5 23.5t57.5 58t33 36.5q6 6 13 6q8 0 14.5 -7t6.5 -15q0 -6 -5 -11q-2 -2 -30.5 -43.5t-60 -83t-76.5 -77.5t-80 -36q-70 0 -70 67q0 24 12 65 q-117 -131 -194 -131q-68 0 -68 55q0 70 92.5 200.5t172.5 211.5q25 25 60 25q26 0 26 -14q-8 -11 -22 -29t-49.5 -66t-62.5 -88t-49 -80t-22 -56q0 -10 8 -10q20 0 91.5 73t154 167.5t93.5 105.5zM365 705q29 0 45.5 -43.5t16.5 -84.5q0 -11 -11.5 -20.5t-22.5 -9.5t-11 11 q0 12 -23.5 40.5t-44.5 28.5q-10 0 -10 14q0 20 17.5 42t43.5 22z" glyph-name="ugrave" horiz-adv-x="436" unicode=""/><glyph d="M463 497q8 8 20 8q20 0 41.5 -21.5t21.5 -40.5q0 -8 -4 -12q-58 -58 -120.5 -143.5t-62.5 -120.5q0 -17 18 -17q14 0 40.5 23.5t57.5 58t33 36.5q6 6 13 6q8 0 14.5 -7t6.5 -15q0 -6 -5 -11q-2 -2 -30.5 -43.5t-60 -83t-76.5 -77.5t-80 -36q-70 0 -70 67q0 24 12 65 q-117 -131 -194 -131q-68 0 -68 55q0 70 92.5 200.5t172.5 211.5q25 25 60 25q26 0 26 -14q-8 -11 -22 -29t-49.5 -66t-62.5 -88t-49 -80t-22 -56q0 -10 8 -10q20 0 91.5 73t154 167.5t93.5 105.5zM402 705q26 0 43 -22t17 -42q0 -14 -10 -14q-20 0 -44 -29t-24 -40t-11 -11 t-22 9.5t-11 20.5q0 41 16 84.5t46 43.5z" glyph-name="uacute" horiz-adv-x="436" unicode=""/><glyph d="M463 497q8 8 20 8q20 0 41.5 -21.5t21.5 -40.5q0 -8 -4 -12q-58 -58 -120.5 -143.5t-62.5 -120.5q0 -17 18 -17q14 0 40.5 23.5t57.5 58t33 36.5q6 6 13 6q8 0 14.5 -7t6.5 -15q0 -6 -5 -11q-2 -2 -30.5 -43.5t-60 -83t-76.5 -77.5t-80 -36q-70 0 -70 67q0 24 12 65 q-117 -131 -194 -131q-68 0 -68 55q0 70 92.5 200.5t172.5 211.5q25 25 60 25q26 0 26 -14q-8 -11 -22 -29t-49.5 -66t-62.5 -88t-49 -80t-22 -56q0 -10 8 -10q20 0 91.5 73t154 167.5t93.5 105.5zM501 563q9 0 9 -17q0 -13 -7.5 -24t-21.5 -11q-41 0 -56 83 q-38 -47 -68 -47q-26 0 -43.5 22t-17.5 42q0 14 10 14q21 0 67 30t46 39q0 11 11 11q25 0 31.5 -35.5t12 -71t27.5 -35.5z" glyph-name="ucircumflex" horiz-adv-x="436" unicode=""/><glyph d="M463 497q8 8 20 8q20 0 41.5 -21.5t21.5 -40.5q0 -8 -4 -12q-58 -58 -120.5 -143.5t-62.5 -120.5q0 -17 18 -17q14 0 40.5 23.5t57.5 58t33 36.5q6 6 13 6q8 0 14.5 -7t6.5 -15q0 -6 -5 -11q-2 -2 -30.5 -43.5t-60 -83t-76.5 -77.5t-80 -36q-70 0 -70 67q0 24 12 65 q-117 -131 -194 -131q-68 0 -68 55q0 70 92.5 200.5t172.5 211.5q25 25 60 25q26 0 26 -14q-8 -11 -22 -29t-49.5 -66t-62.5 -88t-49 -80t-22 -56q0 -10 8 -10q20 0 91.5 73t154 167.5t93.5 105.5zM332 705q24 0 41 -17t17 -40q0 -24 -17 -41t-41 -17q-23 0 -40 17t-17 41 q0 23 17 40t40 17zM473 685q24 0 41 -17t17 -40q0 -24 -17 -41t-41 -17q-23 0 -40 17t-17 41q0 23 17 40t40 17z" glyph-name="udieresis" horiz-adv-x="436" unicode=""/><glyph d="M446 475q25 25 60 25q26 0 26 -13q0 -6 -6 -12q-54 -54 -110 -152t-101.5 -192t-95.5 -183t-111.5 -143.5t-129.5 -54.5q-61 0 -89.5 42t-28.5 95q0 25 6 41.5t15 16.5q5 0 9 -4q34 -35 76 -35q92 0 225 185q-95 -91 -160 -91q-68 0 -68 55q0 70 92.5 200.5t172.5 211.5 q24 24 59 24q27 0 27 -13q-8 -11 -22 -29t-49.5 -66t-62.5 -88t-49 -80t-22 -56q0 -10 8 -10q27 0 89.5 62t141 153t98.5 111zM376 691q26 0 43 -22t17 -42q0 -14 -10 -14q-20 0 -44 -29t-24 -40t-11 -11t-22 9.5t-11 20.5q0 41 16 84.5t46 43.5z" glyph-name="yacute" horiz-adv-x="382" unicode=""/><glyph d="M393 496q76 0 76 -86q0 -53 -30.5 -124.5t-77.5 -135t-111 -107.5t-125 -44q-66 0 -92 48q-91 -185 -91 -285q0 -13 -20 -13q-28 0 -60 23t-32 57q0 61 118 270t248 401.5t175 237.5q12 12 31 12q24 0 49.5 -20t23.5 -33q-1 -5 -56.5 -73.5t-114.5 -140t-65 -80.5 q74 59 102 76t52 17zM143 143q40 0 100 57t102.5 123t42.5 95q0 13 -11 13q-26 0 -73.5 -38.5t-80 -73.5t-79.5 -89q0 -2 -3 -3q-25 -33 -25 -56q0 -28 27 -28z" glyph-name="thorn" horiz-adv-x="409" unicode=""/><glyph d="M446 475q25 25 60 25q26 0 26 -13q0 -6 -6 -12q-54 -54 -110 -152t-101.5 -192t-95.5 -183t-111.5 -143.5t-129.5 -54.5q-61 0 -89.5 42t-28.5 95q0 25 6 41.5t15 16.5q5 0 9 -4q34 -35 76 -35q92 0 225 185q-95 -91 -160 -91q-68 0 -68 55q0 70 92.5 200.5t172.5 211.5 q24 24 59 24q27 0 27 -13q-8 -11 -22 -29t-49.5 -66t-62.5 -88t-49 -80t-22 -56q0 -10 8 -10q27 0 89.5 62t141 153t98.5 111zM306 691q24 0 41 -17t17 -40q0 -24 -17 -41t-41 -17q-23 0 -40 17t-17 41q0 23 17 40t40 17zM447 671q24 0 41 -17t17 -40q0 -24 -17 -41t-41 -17 q-23 0 -40 17t-17 41q0 23 17 40t40 17z" glyph-name="ydieresis" horiz-adv-x="382" unicode=""/><glyph d="M1207 844q21 0 43 -21.5t22 -40.5q0 -8 -4 -12q-134 -134 -275.5 -381.5t-141.5 -354.5q0 -29 15.5 -39.5t31.5 -14t16 -14.5q0 -29 -53 -71t-104 -42q-33 0 -56.5 21t-23.5 65q0 30 11 76q-3 132 -52 250q-47 -65 -79.5 -108t-77 -97t-81.5 -88.5t-79.5 -66t-85 -46.5 t-84.5 -15q-72 0 -110.5 39t-38.5 81q0 34 23 34q70 0 141.5 28.5t145.5 86t132.5 114t137.5 141.5q-66 93 -130 93q-16 0 -40.5 -16t-29.5 -16q-22 0 -22 50q0 49 28 90.5t83 41.5q121 0 200 -147q85 92 138.5 145.5t127.5 115t141 90.5t131 29zM751 184q70 149 180.5 318 t209.5 282q-56 -18 -112 -57t-113 -101t-101 -118t-105 -140q29 -85 41 -184zM1329 990q18 0 33.5 -11.5t15.5 -20.5q0 -8 -13 -8q-5 0 -86 -11.5t-91 -11.5q-29 0 -51 18t-22 35q0 15 20 15q14 0 100.5 -2.5t93.5 -2.5z" glyph-name="Amacron" horiz-adv-x="922" unicode=""/><glyph d="M510 267q6 6 13 6q8 0 14 -7t6 -15q0 -7 -4 -11q-2 -2 -30.5 -43.5t-60 -83t-76.5 -77.5t-80 -36q-65 0 -65 59q0 15 5 38q-95 -97 -163 -97q-69 0 -69 75q0 69 53.5 170t135 178t150.5 77q85 0 111 -82q20 9 38 9q26 0 26 -13q0 -6 -7 -12q-38 -38 -90.5 -120.5 t-52.5 -116.5q0 -16 15 -16q14 0 40.5 23.5t57.5 58t33 36.5zM156 149q47 0 185 151q32 43 61 75q-3 24 -20 43.5t-37 19.5q-30 0 -80 -54t-87.5 -119t-37.5 -97q0 -19 16 -19zM503 650q18 0 33.5 -11.5t15.5 -20.5q0 -8 -13 -8q-5 0 -86 -11.5t-91 -11.5q-29 0 -51 18 t-22 35q0 15 20 15q14 0 100.5 -2.5t93.5 -2.5z" glyph-name="amacron" horiz-adv-x="433" unicode=""/><glyph d="M1207 844q21 0 43 -21.5t22 -40.5q0 -8 -4 -12q-134 -134 -275.5 -381.5t-141.5 -354.5q0 -29 15.5 -39.5t31.5 -14t16 -14.5q0 -29 -53 -71t-104 -42q-33 0 -56.5 21t-23.5 65q0 30 11 76q-3 132 -52 250q-47 -65 -79.5 -108t-77 -97t-81.5 -88.5t-79.5 -66t-85 -46.5 t-84.5 -15q-72 0 -110.5 39t-38.5 81q0 34 23 34q70 0 141.5 28.5t145.5 86t132.5 114t137.5 141.5q-66 93 -130 93q-16 0 -40.5 -16t-29.5 -16q-22 0 -22 50q0 49 28 90.5t83 41.5q121 0 200 -147q85 92 138.5 145.5t127.5 115t141 90.5t131 29zM751 184q70 149 180.5 318 t209.5 282q-56 -18 -112 -57t-113 -101t-101 -118t-105 -140q29 -85 41 -184zM1418 982q-8 -46 -47.5 -78.5t-89.5 -32.5q-43 0 -69.5 27.5t-26.5 72.5q0 61 48 85q25 13 32 4q1 -1 1 -3q-33 -118 41 -118q61 0 84 69q0 10 11 4q16 -10 16 -30z" glyph-name="Abreve" horiz-adv-x="922" unicode=""/><glyph d="M510 267q6 6 13 6q8 0 14 -7t6 -15q0 -7 -4 -11q-2 -2 -30.5 -43.5t-60 -83t-76.5 -77.5t-80 -36q-65 0 -65 59q0 15 5 38q-95 -97 -163 -97q-69 0 -69 75q0 69 53.5 170t135 178t150.5 77q85 0 111 -82q20 9 38 9q26 0 26 -13q0 -6 -7 -12q-38 -38 -90.5 -120.5 t-52.5 -116.5q0 -16 15 -16q14 0 40.5 23.5t57.5 58t33 36.5zM156 149q47 0 185 151q32 43 61 75q-3 24 -20 43.5t-37 19.5q-30 0 -80 -54t-87.5 -119t-37.5 -97q0 -19 16 -19zM581 682q-8 -46 -47.5 -78.5t-89.5 -32.5q-43 0 -69.5 27.5t-26.5 72.5q0 61 48 85q25 13 32 4 q1 -1 1 -3q-33 -118 41 -118q61 0 84 69q0 10 11 4q16 -10 16 -30z" glyph-name="abreve" horiz-adv-x="433" unicode=""/><glyph d="M1207 844q21 0 43 -21.5t22 -40.5q0 -8 -4 -12q-134 -134 -275.5 -381.5t-141.5 -354.5q0 -29 15.5 -39.5t31.5 -14t16 -14.5q0 -29 -53 -71t-104 -42q-33 0 -56.5 21t-23.5 65q0 30 11 76q-3 132 -52 250q-47 -65 -79.5 -108t-77 -97t-81.5 -88.5t-79.5 -66t-85 -46.5 t-84.5 -15q-72 0 -110.5 39t-38.5 81q0 34 23 34q70 0 141.5 28.5t145.5 86t132.5 114t137.5 141.5q-66 93 -130 93q-16 0 -40.5 -16t-29.5 -16q-22 0 -22 50q0 49 28 90.5t83 41.5q121 0 200 -147q85 92 138.5 145.5t127.5 115t141 90.5t131 29zM751 184q70 149 180.5 318 t209.5 282q-56 -18 -112 -57t-113 -101t-101 -118t-105 -140q29 -85 41 -184zM787 -127q17 -31 48 -64.5t44 -33.5q10 0 10 -14q0 -20 -17.5 -41.5t-43.5 -21.5q-28 0 -62 63.5t-39 111.5h60z" glyph-name="Aogonek" horiz-adv-x="922" unicode=""/><glyph d="M510 267q6 6 13 6q8 0 14 -7t6 -15q0 -7 -4 -11q-2 -2 -30.5 -43.5t-60 -83t-76.5 -77.5t-80 -36q-65 0 -65 59q0 15 5 38q-95 -97 -163 -97q-69 0 -69 75q0 69 53.5 170t135 178t150.5 77q85 0 111 -82q20 9 38 9q26 0 26 -13q0 -6 -7 -12q-38 -38 -90.5 -120.5 t-52.5 -116.5q0 -16 15 -16q14 0 40.5 23.5t57.5 58t33 36.5zM156 149q47 0 185 151q32 43 61 75q-3 24 -20 43.5t-37 19.5q-30 0 -80 -54t-87.5 -119t-37.5 -97q0 -19 16 -19zM322 20q17 -31 48 -64.5t44 -33.5q10 0 10 -14q0 -20 -17.5 -41.5t-43.5 -21.5q-28 0 -62 63.5 t-39 111.5h60z" glyph-name="aogonek" horiz-adv-x="433" unicode=""/><glyph d="M843 267q7 7 15 7t13.5 -7t5.5 -16q0 -7 -4 -11q-3 -3 -25.5 -37t-52.5 -75t-80.5 -91.5t-107 -91t-135 -68t-161.5 -27.5q-143 0 -227 84.5t-84 216.5q0 86 33 174.5t88 163.5t127.5 141.5t150.5 113t158.5 73.5t150.5 27q111 0 165 -55t54 -145q0 -72 -33.5 -152 t-87.5 -147t-131 -111t-156 -44q-80 0 -128 46.5t-48 119.5q0 74 52.5 152t132.5 128t155 50q20 0 34.5 -12.5t14.5 -24.5q0 -14 -17 -14q-67 0 -149.5 -74t-82.5 -150q0 -29 25 -48t63 -19q68 0 134.5 54t106 129.5t39.5 140.5q0 53 -29.5 84t-91.5 31q-71 0 -167 -50.5 t-183 -129t-148 -187.5t-61 -213q0 -85 56.5 -144t159.5 -59q65 0 135.5 27t119.5 59.5t100.5 78.5t68 64.5t31.5 36.5zM857 1044q26 0 43 -22t17 -42q0 -14 -10 -14q-20 0 -44 -29t-24 -40t-11 -11t-22 9.5t-11 20.5q0 41 16 84.5t46 43.5z" glyph-name="Cacute" horiz-adv-x="767" unicode=""/><glyph d="M403 266q6 6 13 6q8 0 14.5 -7t6.5 -15q0 -6 -5 -11l-17 -21q-17 -21 -38 -46t-55 -56.5t-68 -56.5t-76.5 -42.5t-81.5 -17.5q-96 0 -96 96q0 73 52 168.5t135.5 166.5t162.5 71q75 0 75 -60q0 -46 -39.5 -97t-75.5 -51q-14 0 -25 13t-11 25q0 11 11 11q21 0 45.5 32 t24.5 54q0 15 -14 15q-25 0 -70.5 -43t-83 -102.5t-37.5 -99.5q0 -50 63 -50q14 0 29.5 4.5t29.5 11t30 17t27.5 19.5t25 20.5t21 18.5t17 16.5zM419 701q26 0 43 -22t17 -42q0 -14 -10 -14q-20 0 -44 -29t-24 -40t-11 -11t-22 9.5t-11 20.5q0 41 16 84.5t46 43.5z" glyph-name="cacute" horiz-adv-x="327" unicode=""/><glyph d="M843 267q7 7 15 7t13.5 -7t5.5 -16q0 -7 -4 -11q-3 -3 -25.5 -37t-52.5 -75t-80.5 -91.5t-107 -91t-135 -68t-161.5 -27.5q-143 0 -227 84.5t-84 216.5q0 86 33 174.5t88 163.5t127.5 141.5t150.5 113t158.5 73.5t150.5 27q111 0 165 -55t54 -145q0 -72 -33.5 -152 t-87.5 -147t-131 -111t-156 -44q-80 0 -128 46.5t-48 119.5q0 74 52.5 152t132.5 128t155 50q20 0 34.5 -12.5t14.5 -24.5q0 -14 -17 -14q-67 0 -149.5 -74t-82.5 -150q0 -29 25 -48t63 -19q68 0 134.5 54t106 129.5t39.5 140.5q0 53 -29.5 84t-91.5 31q-71 0 -167 -50.5 t-183 -129t-148 -187.5t-61 -213q0 -85 56.5 -144t159.5 -59q65 0 135.5 27t119.5 59.5t100.5 78.5t68 64.5t31.5 36.5zM956 902q9 0 9 -17q0 -13 -7.5 -24t-21.5 -11q-41 0 -56 83q-38 -47 -68 -47q-26 0 -43.5 22t-17.5 42q0 14 10 14q21 0 67 30t46 39q0 11 11 11 q25 0 31.5 -35.5t12 -71t27.5 -35.5z" glyph-name="Ccircumflex" horiz-adv-x="767" unicode=""/><glyph d="M403 266q6 6 13 6q8 0 14.5 -7t6.5 -15q0 -6 -5 -11l-17 -21q-17 -21 -38 -46t-55 -56.5t-68 -56.5t-76.5 -42.5t-81.5 -17.5q-96 0 -96 96q0 73 52 168.5t135.5 166.5t162.5 71q75 0 75 -60q0 -46 -39.5 -97t-75.5 -51q-14 0 -25 13t-11 25q0 11 11 11q21 0 45.5 32 t24.5 54q0 15 -14 15q-25 0 -70.5 -43t-83 -102.5t-37.5 -99.5q0 -50 63 -50q14 0 29.5 4.5t29.5 11t30 17t27.5 19.5t25 20.5t21 18.5t17 16.5zM518 559q9 0 9 -17q0 -13 -7.5 -24t-21.5 -11q-41 0 -56 83q-38 -47 -68 -47q-26 0 -43.5 22t-17.5 42q0 14 10 14q21 0 67 30 t46 39q0 11 11 11q25 0 31.5 -35.5t12 -71t27.5 -35.5z" glyph-name="ccircumflex" horiz-adv-x="327" unicode=""/><glyph d="M843 267q7 7 15 7t13.5 -7t5.5 -16q0 -7 -4 -11q-3 -3 -25.5 -37t-52.5 -75t-80.5 -91.5t-107 -91t-135 -68t-161.5 -27.5q-143 0 -227 84.5t-84 216.5q0 86 33 174.5t88 163.5t127.5 141.5t150.5 113t158.5 73.5t150.5 27q111 0 165 -55t54 -145q0 -72 -33.5 -152 t-87.5 -147t-131 -111t-156 -44q-80 0 -128 46.5t-48 119.5q0 74 52.5 152t132.5 128t155 50q20 0 34.5 -12.5t14.5 -24.5q0 -14 -17 -14q-67 0 -149.5 -74t-82.5 -150q0 -29 25 -48t63 -19q68 0 134.5 54t106 129.5t39.5 140.5q0 53 -29.5 84t-91.5 31q-71 0 -167 -50.5 t-183 -129t-148 -187.5t-61 -213q0 -85 56.5 -144t159.5 -59q65 0 135.5 27t119.5 59.5t100.5 78.5t68 64.5t31.5 36.5zM858 1044q24 0 41 -17t17 -40q0 -24 -17 -41t-41 -17q-23 0 -40 17t-17 41q0 23 17 40t40 17z" glyph-name="Cdotaccent" horiz-adv-x="767" unicode=""/><glyph d="M403 266q6 6 13 6q8 0 14.5 -7t6.5 -15q0 -6 -5 -11l-17 -21q-17 -21 -38 -46t-55 -56.5t-68 -56.5t-76.5 -42.5t-81.5 -17.5q-96 0 -96 96q0 73 52 168.5t135.5 166.5t162.5 71q75 0 75 -60q0 -46 -39.5 -97t-75.5 -51q-14 0 -25 13t-11 25q0 11 11 11q21 0 45.5 32 t24.5 54q0 15 -14 15q-25 0 -70.5 -43t-83 -102.5t-37.5 -99.5q0 -50 63 -50q14 0 29.5 4.5t29.5 11t30 17t27.5 19.5t25 20.5t21 18.5t17 16.5zM420 691q24 0 41 -17t17 -40q0 -24 -17 -41t-41 -17q-23 0 -40 17t-17 41q0 23 17 40t40 17z" glyph-name="cdotaccent" horiz-adv-x="327" unicode=""/><glyph d="M843 267q7 7 15 7t13.5 -7t5.5 -16q0 -7 -4 -11q-3 -3 -25.5 -37t-52.5 -75t-80.5 -91.5t-107 -91t-135 -68t-161.5 -27.5q-143 0 -227 84.5t-84 216.5q0 86 33 174.5t88 163.5t127.5 141.5t150.5 113t158.5 73.5t150.5 27q111 0 165 -55t54 -145q0 -72 -33.5 -152 t-87.5 -147t-131 -111t-156 -44q-80 0 -128 46.5t-48 119.5q0 74 52.5 152t132.5 128t155 50q20 0 34.5 -12.5t14.5 -24.5q0 -14 -17 -14q-67 0 -149.5 -74t-82.5 -150q0 -29 25 -48t63 -19q68 0 134.5 54t106 129.5t39.5 140.5q0 53 -29.5 84t-91.5 31q-71 0 -167 -50.5 t-183 -129t-148 -187.5t-61 -213q0 -85 56.5 -144t159.5 -59q65 0 135.5 27t119.5 59.5t100.5 78.5t68 64.5t31.5 36.5zM973 930q-13 13 -33.5 2.5t-39.5 -29.5t-41 -28.5t-36 4.5q-8 8 0 16q7 7 -4.5 60t-26.5 68q-8 8 3 17q14 14 40 17t48 -15q22 -22 15 -81q69 48 98 20 q9 -12 7 -24t-11 -21q-12 -12 -19 -6z" glyph-name="Ccaron" horiz-adv-x="767" unicode=""/><glyph d="M403 266q6 6 13 6q8 0 14.5 -7t6.5 -15q0 -6 -5 -11l-17 -21q-17 -21 -38 -46t-55 -56.5t-68 -56.5t-76.5 -42.5t-81.5 -17.5q-96 0 -96 96q0 73 52 168.5t135.5 166.5t162.5 71q75 0 75 -60q0 -46 -39.5 -97t-75.5 -51q-14 0 -25 13t-11 25q0 11 11 11q21 0 45.5 32 t24.5 54q0 15 -14 15q-25 0 -70.5 -43t-83 -102.5t-37.5 -99.5q0 -50 63 -50q14 0 29.5 4.5t29.5 11t30 17t27.5 19.5t25 20.5t21 18.5t17 16.5zM535 587q-13 13 -33.5 2.5t-39.5 -29.5t-41 -28.5t-36 4.5q-8 8 0 16q7 7 -4.5 60t-26.5 68q-8 8 3 17q14 14 40 17t48 -15 q22 -22 15 -81q69 48 98 20q9 -12 7 -24t-11 -21q-12 -12 -19 -6z" glyph-name="ccaron" horiz-adv-x="327" unicode=""/><glyph d="M719 832q153 -44 153 -228q0 -70 -24 -152.5t-65.5 -161.5t-100 -153.5t-123.5 -130.5t-139.5 -90t-145.5 -34q-58 0 -107 26q-2 -7 -2.5 -27t-6.5 -28.5t-23 -8.5q-39 0 -79 34.5t-40 93.5q0 34 22 87q-38 86 -38 170q0 18 14.5 36.5t26.5 18.5q13 0 13 -23 q0 -59 26 -121q141 244 509 643q-63 -8 -144.5 -54t-151.5 -109.5t-118 -141t-48 -141.5q0 -19 -17 -19q-28 0 -61 43.5t-33 108.5q0 51 48 115t126.5 122t194.5 97.5t237 39.5h24q7 7 20.5 22.5t20 22l17.5 17.5t18 16t17 11t19 8.5t18 2.5q27 0 27 -14q0 -5 -13.5 -21 t-37 -40.5t-33.5 -36.5zM249 11q108 0 232.5 109t206.5 256.5t82 258.5q0 115 -97 142q-140 -172 -277 -386.5t-197 -372.5q21 -7 50 -7zM938 1016q-13 13 -33.5 2.5t-39.5 -29.5t-41 -28.5t-36 4.5q-8 8 0 16q7 7 -4.5 60t-26.5 68q-8 8 3 17q14 14 40 17t48 -15 q22 -22 15 -81q69 48 98 20q9 -12 7 -24t-11 -21q-12 -12 -19 -6z" glyph-name="Dcaron" horiz-adv-x="762" unicode=""/><glyph d="M662 738q12 12 30 12q24 0 48 -18t24 -35q0 -7 -6 -13q-118 -118 -247.5 -295.5t-129.5 -226.5q0 -13 12 -13q11 0 31.5 16.5t38 35t38 41t23.5 25.5q6 6 14 6t14 -7t6 -15q0 -7 -4 -11q-2 -2 -30.5 -43.5t-60 -83t-76.5 -77.5t-80 -36q-63 0 -63 60q0 26 12 62 q-112 -122 -187 -122q-69 0 -69 75q0 69 53.5 170t135 178t150.5 77q67 0 98 -52q66 96 133.5 181t91.5 109zM156 149q45 0 187 153q23 39 55 88q-6 20 -21 34t-32 14q-30 0 -80 -54t-87.5 -119t-37.5 -97q0 -19 16 -19zM778 725q-7 7 3 17q14 14 39.5 17.5t48.5 -14.5 q21 -21 2 -63t-49 -72q-9 -8 -23 -6.5t-21 8.5q-7 9 0 16q8 8 11 43t-11 54z" glyph-name="dcaron" horiz-adv-x="444" unicode=""/><glyph d="M719 833q153 -44 153 -228q0 -70 -24 -152.5t-65.5 -161.5t-100 -153.5t-123.5 -130.5t-139.5 -90t-145.5 -34q-58 0 -107 26q-2 -7 -2.5 -27.5t-6.5 -28.5t-23 -8q-39 0 -79 34.5t-40 93.5q0 34 22 87q-38 86 -38 169q0 18 14.5 37t26.5 19q13 0 13 -23q0 -59 26 -121 q57 99 154 225h-10q-10 0 -19.5 -1.5t-16 -4t-11.5 -4.5t-8 -4l-3 -1q-7 0 -7 18q0 36 20 76.5t54 40.5q25 0 87 -11q116 143 269 309q-63 -8 -144.5 -54t-151.5 -109.5t-118 -141t-48 -141.5q0 -19 -17 -19q-28 0 -61 43.5t-33 108.5q0 40 30 90t86.5 99.5t129 91t168 67.5 t192.5 26h24q5 5 16.5 18t16 17.5t14.5 15t14.5 14.5t13 11t14.5 10l13 6.5t14 5t14 1.5q27 0 27 -14q0 -5 -14 -21t-37 -40t-33 -36zM249 11q108 0 232.5 109t206.5 256.5t82 259.5q0 115 -97 142q-120 -147 -235 -322q39 -6 70 -6q15 0 27 3.5t18 7t7 3.5q8 0 8 -22 q0 -35 -18.5 -72.5t-48.5 -37.5q-10 0 -130 19q-121 -198 -172 -332q24 -8 50 -8z" glyph-name="Dcroat" horiz-adv-x="762" unicode=""/><glyph d="M662 738q12 12 30 12q24 0 48 -18t24 -35q0 -7 -6 -13q-118 -118 -247.5 -295.5t-129.5 -226.5q0 -13 12 -13q11 0 31.5 16.5t38 35t38 41t23.5 25.5q6 6 14 6t14 -7t6 -15q0 -7 -4 -11q-2 -2 -30.5 -43.5t-60 -83t-76.5 -77.5t-80 -36q-63 0 -63 60q0 26 12 62 q-112 -122 -187 -122q-69 0 -69 75q0 69 53.5 170t135 178t150.5 77q67 0 98 -52q66 96 133.5 181t91.5 109zM156 149q45 0 187 153q23 39 55 88q-6 20 -21 34t-32 14q-30 0 -80 -54t-87.5 -119t-37.5 -97q0 -19 16 -19zM685 620q18 0 33.5 -11.5t15.5 -20.5q0 -8 -13 -8 q-5 0 -86 -11.5t-91 -11.5q-29 0 -51 18t-22 35q0 15 20 15q14 0 100.5 -2.5t93.5 -2.5z" glyph-name="dcroat" horiz-adv-x="444" unicode=""/><glyph d="M600 489q69 0 143 84t74 153q0 67 -81 67q-65 0 -137 -53.5t-117.5 -127.5t-45.5 -132q0 -87 107 -87q39 0 39 -25q0 -14 -13.5 -26t-31.5 -12q-77 0 -145 -24.5t-111.5 -61.5t-68.5 -80.5t-25 -82.5q0 -44 32 -71.5t95 -27.5q58 0 124 27t113.5 59.5t98.5 78.5t67.5 64 t32.5 36l1 1q7 7 15 7t13.5 -6.5t5.5 -15.5q0 -7 -5 -12q-3 -3 -26 -36t-53 -73t-79.5 -89.5t-104 -88.5t-128.5 -66t-150 -27q-115 0 -177 55t-62 138q0 105 95 203.5t264 136.5q-57 41 -57 115q0 56 34 119t89 115t132 86.5t156 34.5q99 0 145.5 -42.5t46.5 -111.5 q0 -96 -74 -188t-160 -92q-34 0 -62.5 23t-28.5 42q0 14 20 14zM905 994q18 0 33.5 -11.5t15.5 -20.5q0 -8 -13 -8q-5 0 -86 -11.5t-91 -11.5q-29 0 -51 18t-22 35q0 15 20 15q14 0 100.5 -2.5t93.5 -2.5z" glyph-name="Emacron" horiz-adv-x="678" unicode=""/><glyph d="M403 266q6 6 13 6q8 0 14.5 -7t6.5 -15q0 -6 -5 -11l-17 -21q-17 -21 -38 -46t-55 -56.5t-68 -56.5t-76.5 -42.5t-81.5 -17.5q-96 0 -96 96q0 73 52 168.5t135.5 166.5t162.5 71q60 0 60 -59q0 -46 -35 -104.5t-97 -103t-127 -45.5q7 -41 62 -41q14 0 29.5 4.5t29.5 11 t30 17t27.5 19.5t25 20.5t21 18.5t17 16.5zM341 443q-31 0 -90 -63.5t-87 -126.5q62 9 123.5 77.5t61.5 102.5q0 10 -8 10zM493 651q18 0 33.5 -11.5t15.5 -20.5q0 -8 -13 -8q-5 0 -86 -11.5t-91 -11.5q-29 0 -51 18t-22 35q0 15 20 15q14 0 100.5 -2.5t93.5 -2.5z" glyph-name="emacron" horiz-adv-x="327" unicode=""/><glyph d="M600 489q69 0 143 84t74 153q0 67 -81 67q-65 0 -137 -53.5t-117.5 -127.5t-45.5 -132q0 -87 107 -87q39 0 39 -25q0 -14 -13.5 -26t-31.5 -12q-77 0 -145 -24.5t-111.5 -61.5t-68.5 -80.5t-25 -82.5q0 -44 32 -71.5t95 -27.5q58 0 124 27t113.5 59.5t98.5 78.5t67.5 64 t32.5 36l1 1q7 7 15 7t13.5 -6.5t5.5 -15.5q0 -7 -5 -12q-3 -3 -26 -36t-53 -73t-79.5 -89.5t-104 -88.5t-128.5 -66t-150 -27q-115 0 -177 55t-62 138q0 105 95 203.5t264 136.5q-57 41 -57 115q0 56 34 119t89 115t132 86.5t156 34.5q99 0 145.5 -42.5t46.5 -111.5 q0 -96 -74 -188t-160 -92q-34 0 -62.5 23t-28.5 42q0 14 20 14zM994 986q-8 -46 -47.5 -78.5t-89.5 -32.5q-43 0 -69.5 27.5t-26.5 72.5q0 61 48 85q25 13 32 4q1 -1 1 -3q-33 -118 41 -118q61 0 84 69q0 10 11 4q16 -10 16 -30z" glyph-name="Ebreve" horiz-adv-x="678" unicode=""/><glyph d="M403 266q6 6 13 6q8 0 14.5 -7t6.5 -15q0 -6 -5 -11l-17 -21q-17 -21 -38 -46t-55 -56.5t-68 -56.5t-76.5 -42.5t-81.5 -17.5q-96 0 -96 96q0 73 52 168.5t135.5 166.5t162.5 71q60 0 60 -59q0 -46 -35 -104.5t-97 -103t-127 -45.5q7 -41 62 -41q14 0 29.5 4.5t29.5 11 t30 17t27.5 19.5t25 20.5t21 18.5t17 16.5zM341 443q-31 0 -90 -63.5t-87 -126.5q62 9 123.5 77.5t61.5 102.5q0 10 -8 10zM571 683q-8 -46 -47.5 -78.5t-89.5 -32.5q-43 0 -69.5 27.5t-26.5 72.5q0 61 48 85q25 13 32 4q1 -1 1 -3q-33 -118 41 -118q61 0 84 69q0 10 11 4 q16 -10 16 -30z" glyph-name="ebreve" horiz-adv-x="327" unicode=""/><glyph d="M600 489q69 0 143 84t74 153q0 67 -81 67q-65 0 -137 -53.5t-117.5 -127.5t-45.5 -132q0 -87 107 -87q39 0 39 -25q0 -14 -13.5 -26t-31.5 -12q-77 0 -145 -24.5t-111.5 -61.5t-68.5 -80.5t-25 -82.5q0 -44 32 -71.5t95 -27.5q58 0 124 27t113.5 59.5t98.5 78.5t67.5 64 t32.5 36l1 1q7 7 15 7t13.5 -6.5t5.5 -15.5q0 -7 -5 -12q-3 -3 -26 -36t-53 -73t-79.5 -89.5t-104 -88.5t-128.5 -66t-150 -27q-115 0 -177 55t-62 138q0 105 95 203.5t264 136.5q-57 41 -57 115q0 56 34 119t89 115t132 86.5t156 34.5q99 0 145.5 -42.5t46.5 -111.5 q0 -96 -74 -188t-160 -92q-34 0 -62.5 23t-28.5 42q0 14 20 14zM843 1044q24 0 41 -17t17 -40q0 -24 -17 -41t-41 -17q-23 0 -40 17t-17 41q0 23 17 40t40 17z" glyph-name="Edotaccent" horiz-adv-x="678" unicode=""/><glyph d="M403 266q6 6 13 6q8 0 14.5 -7t6.5 -15q0 -6 -5 -11l-17 -21q-17 -21 -38 -46t-55 -56.5t-68 -56.5t-76.5 -42.5t-81.5 -17.5q-96 0 -96 96q0 73 52 168.5t135.5 166.5t162.5 71q60 0 60 -59q0 -46 -35 -104.5t-97 -103t-127 -45.5q7 -41 62 -41q14 0 29.5 4.5t29.5 11 t30 17t27.5 19.5t25 20.5t21 18.5t17 16.5zM341 443q-31 0 -90 -63.5t-87 -126.5q62 9 123.5 77.5t61.5 102.5q0 10 -8 10zM420 691q24 0 41 -17t17 -40q0 -24 -17 -41t-41 -17q-23 0 -40 17t-17 41q0 23 17 40t40 17z" glyph-name="edotaccent" horiz-adv-x="327" unicode=""/><glyph d="M600 489q69 0 143 84t74 153q0 67 -81 67q-65 0 -137 -53.5t-117.5 -127.5t-45.5 -132q0 -87 107 -87q39 0 39 -25q0 -14 -13.5 -26t-31.5 -12q-77 0 -145 -24.5t-111.5 -61.5t-68.5 -80.5t-25 -82.5q0 -44 32 -71.5t95 -27.5q58 0 124 27t113.5 59.5t98.5 78.5t67.5 64 t32.5 36l1 1q7 7 15 7t13.5 -6.5t5.5 -15.5q0 -7 -5 -12q-3 -3 -26 -36t-53 -73t-79.5 -89.5t-104 -88.5t-128.5 -66t-150 -27q-115 0 -177 55t-62 138q0 105 95 203.5t264 136.5q-57 41 -57 115q0 56 34 119t89 115t132 86.5t156 34.5q99 0 145.5 -42.5t46.5 -111.5 q0 -96 -74 -188t-160 -92q-34 0 -62.5 23t-28.5 42q0 14 20 14zM269 -139q17 -31 48 -64.5t44 -33.5q10 0 10 -14q0 -20 -17.5 -41.5t-43.5 -21.5q-28 0 -62 63.5t-39 111.5h60z" glyph-name="Eogonek" horiz-adv-x="678" unicode=""/><glyph d="M403 266q6 6 13 6q8 0 14.5 -7t6.5 -15q0 -6 -5 -11l-17 -21q-17 -21 -38 -46t-55 -56.5t-68 -56.5t-76.5 -42.5t-81.5 -17.5q-96 0 -96 96q0 73 52 168.5t135.5 166.5t162.5 71q60 0 60 -59q0 -46 -35 -104.5t-97 -103t-127 -45.5q7 -41 62 -41q14 0 29.5 4.5t29.5 11 t30 17t27.5 19.5t25 20.5t21 18.5t17 16.5zM341 443q-31 0 -90 -63.5t-87 -126.5q62 9 123.5 77.5t61.5 102.5q0 10 -8 10zM126 19q17 -31 48 -64.5t44 -33.5q10 0 10 -14q0 -20 -17.5 -41.5t-43.5 -21.5q-28 0 -62 63.5t-39 111.5h60z" glyph-name="eogonek" horiz-adv-x="327" unicode=""/><glyph d="M600 489q69 0 143 84t74 153q0 67 -81 67q-65 0 -137 -53.5t-117.5 -127.5t-45.5 -132q0 -87 107 -87q39 0 39 -25q0 -14 -13.5 -26t-31.5 -12q-77 0 -145 -24.5t-111.5 -61.5t-68.5 -80.5t-25 -82.5q0 -44 32 -71.5t95 -27.5q58 0 124 27t113.5 59.5t98.5 78.5t67.5 64 t32.5 36l1 1q7 7 15 7t13.5 -6.5t5.5 -15.5q0 -7 -5 -12q-3 -3 -26 -36t-53 -73t-79.5 -89.5t-104 -88.5t-128.5 -66t-150 -27q-115 0 -177 55t-62 138q0 105 95 203.5t264 136.5q-57 41 -57 115q0 56 34 119t89 115t132 86.5t156 34.5q99 0 145.5 -42.5t46.5 -111.5 q0 -96 -74 -188t-160 -92q-34 0 -62.5 23t-28.5 42q0 14 20 14zM958 930q-13 13 -33.5 2.5t-39.5 -29.5t-41 -28.5t-36 4.5q-8 8 0 16q7 7 -4.5 60t-26.5 68q-8 8 3 17q14 14 40 17t48 -15q22 -22 15 -81q69 48 98 20q9 -12 7 -24t-11 -21q-12 -12 -19 -6z" glyph-name="Ecaron" horiz-adv-x="678" unicode=""/><glyph d="M403 266q6 6 13 6q8 0 14.5 -7t6.5 -15q0 -6 -5 -11l-17 -21q-17 -21 -38 -46t-55 -56.5t-68 -56.5t-76.5 -42.5t-81.5 -17.5q-96 0 -96 96q0 73 52 168.5t135.5 166.5t162.5 71q60 0 60 -59q0 -46 -35 -104.5t-97 -103t-127 -45.5q7 -41 62 -41q14 0 29.5 4.5t29.5 11 t30 17t27.5 19.5t25 20.5t21 18.5t17 16.5zM341 443q-31 0 -90 -63.5t-87 -126.5q62 9 123.5 77.5t61.5 102.5q0 10 -8 10zM535 587q-13 13 -33.5 2.5t-39.5 -29.5t-41 -28.5t-36 4.5q-8 8 0 16q7 7 -4.5 60t-26.5 68q-8 8 3 17q14 14 40 17t48 -15q22 -22 15 -81 q69 48 98 20q9 -12 7 -24t-11 -21q-12 -12 -19 -6z" glyph-name="ecaron" horiz-adv-x="327" unicode=""/><glyph d="M647 399q25 25 60 25q26 0 26 -14q0 -4 -17 -26q-22 -29 -43 -56q-29 -47 -69 -133.5t-74 -156.5t-77 -139.5t-96.5 -109.5t-114.5 -40t-89.5 44t-28.5 99q0 26 6 43.5t15 17.5q5 0 9 -4q36 -36 77 -36q85 0 202 166q-116 -85 -214 -85q-92 0 -155.5 57.5t-63.5 171.5 q0 97 54 208t138.5 202t198.5 151t224 60q72 0 106.5 -35.5t34.5 -96.5q0 -83 -54.5 -183.5t-143 -173.5t-173.5 -73q-41 0 -66.5 32t-25.5 66q0 39 30 39q82 0 169.5 62.5t140 139.5t52.5 128q0 44 -45 44q-60 0 -144.5 -51t-160 -127t-129 -172.5t-53.5 -177.5 q0 -65 32 -102.5t98 -37.5q55 0 120.5 40t107.5 82.5t89 96.5zM803 902q9 0 9 -17q0 -13 -7.5 -24t-21.5 -11q-41 0 -56 83q-38 -47 -68 -47q-26 0 -43.5 22t-17.5 42q0 14 10 14q21 0 67 30t46 39q0 11 11 11q25 0 31.5 -35.5t12 -71t27.5 -35.5z" glyph-name="Gcircumflex" horiz-adv-x="626" unicode=""/><glyph d="M451 421q17 6 32 6q26 0 26 -13q0 -5 -7 -12q-33 -34 -70 -99.5t-67 -135.5t-69 -145.5t-77 -134.5t-90.5 -97t-110.5 -38q-61 0 -89.5 42t-28.5 95q0 25 6 41.5t15 16.5q5 0 9 -4q36 -36 76 -36q81 0 192 156q-72 -63 -126 -63q-69 0 -69 75q0 69 53.5 170t134.5 178 t150 77q84 0 110 -79zM158 149q15 0 38.5 14.5t50.5 39.5t46.5 44.5t42.5 44.5l22 25q29 44 45 63q-5 23 -21 40.5t-35 17.5q-30 0 -80 -54t-87.5 -119t-37.5 -97q0 -19 16 -19zM519 558q9 0 9 -17q0 -13 -7.5 -24t-21.5 -11q-41 0 -56 83q-38 -47 -68 -47q-26 0 -43.5 22 t-17.5 42q0 14 10 14q21 0 67 30t46 39q0 11 11 11q25 0 31.5 -35.5t12 -71t27.5 -35.5z" glyph-name="gcircumflex" horiz-adv-x="399" unicode=""/><glyph d="M647 399q25 25 60 25q26 0 26 -14q0 -4 -17 -26q-22 -29 -43 -56q-29 -47 -69 -133.5t-74 -156.5t-77 -139.5t-96.5 -109.5t-114.5 -40t-89.5 44t-28.5 99q0 26 6 43.5t15 17.5q5 0 9 -4q36 -36 77 -36q85 0 202 166q-116 -85 -214 -85q-92 0 -155.5 57.5t-63.5 171.5 q0 97 54 208t138.5 202t198.5 151t224 60q72 0 106.5 -35.5t34.5 -96.5q0 -83 -54.5 -183.5t-143 -173.5t-173.5 -73q-41 0 -66.5 32t-25.5 66q0 39 30 39q82 0 169.5 62.5t140 139.5t52.5 128q0 44 -45 44q-60 0 -144.5 -51t-160 -127t-129 -172.5t-53.5 -177.5 q0 -65 32 -102.5t98 -37.5q55 0 120.5 40t107.5 82.5t89 96.5zM856 986q-8 -46 -47.5 -78.5t-89.5 -32.5q-43 0 -69.5 27.5t-26.5 72.5q0 61 48 85q25 13 32 4q1 -1 1 -3q-33 -118 41 -118q61 0 84 69q0 10 11 4q16 -10 16 -30z" glyph-name="Gbreve" horiz-adv-x="626" unicode=""/><glyph d="M451 421q17 6 32 6q26 0 26 -13q0 -5 -7 -12q-33 -34 -70 -99.5t-67 -135.5t-69 -145.5t-77 -134.5t-90.5 -97t-110.5 -38q-61 0 -89.5 42t-28.5 95q0 25 6 41.5t15 16.5q5 0 9 -4q36 -36 76 -36q81 0 192 156q-72 -63 -126 -63q-69 0 -69 75q0 69 53.5 170t134.5 178 t150 77q84 0 110 -79zM158 149q15 0 38.5 14.5t50.5 39.5t46.5 44.5t42.5 44.5l22 25q29 44 45 63q-5 23 -21 40.5t-35 17.5q-30 0 -80 -54t-87.5 -119t-37.5 -97q0 -19 16 -19zM572 682q-8 -46 -47.5 -78.5t-89.5 -32.5q-43 0 -69.5 27.5t-26.5 72.5q0 61 48 85q25 13 32 4 q1 -1 1 -3q-33 -118 41 -118q61 0 84 69q0 10 11 4q16 -10 16 -30z" glyph-name="gbreve" horiz-adv-x="399" unicode=""/><glyph d="M647 399q25 25 60 25q26 0 26 -14q0 -4 -17 -26q-22 -29 -43 -56q-29 -47 -69 -133.5t-74 -156.5t-77 -139.5t-96.5 -109.5t-114.5 -40t-89.5 44t-28.5 99q0 26 6 43.5t15 17.5q5 0 9 -4q36 -36 77 -36q85 0 202 166q-116 -85 -214 -85q-92 0 -155.5 57.5t-63.5 171.5 q0 97 54 208t138.5 202t198.5 151t224 60q72 0 106.5 -35.5t34.5 -96.5q0 -83 -54.5 -183.5t-143 -173.5t-173.5 -73q-41 0 -66.5 32t-25.5 66q0 39 30 39q82 0 169.5 62.5t140 139.5t52.5 128q0 44 -45 44q-60 0 -144.5 -51t-160 -127t-129 -172.5t-53.5 -177.5 q0 -65 32 -102.5t98 -37.5q55 0 120.5 40t107.5 82.5t89 96.5zM705 1044q24 0 41 -17t17 -40q0 -24 -17 -41t-41 -17q-23 0 -40 17t-17 41q0 23 17 40t40 17z" glyph-name="Gdotaccent" horiz-adv-x="626" unicode=""/><glyph d="M451 421q17 6 32 6q26 0 26 -13q0 -5 -7 -12q-33 -34 -70 -99.5t-67 -135.5t-69 -145.5t-77 -134.5t-90.5 -97t-110.5 -38q-61 0 -89.5 42t-28.5 95q0 25 6 41.5t15 16.5q5 0 9 -4q36 -36 76 -36q81 0 192 156q-72 -63 -126 -63q-69 0 -69 75q0 69 53.5 170t134.5 178 t150 77q84 0 110 -79zM158 149q15 0 38.5 14.5t50.5 39.5t46.5 44.5t42.5 44.5l22 25q29 44 45 63q-5 23 -21 40.5t-35 17.5q-30 0 -80 -54t-87.5 -119t-37.5 -97q0 -19 16 -19zM421 690q24 0 41 -17t17 -40q0 -24 -17 -41t-41 -17q-23 0 -40 17t-17 41q0 23 17 40t40 17z " glyph-name="gdotaccent" horiz-adv-x="399" unicode=""/><glyph d="M647 399q25 25 60 25q26 0 26 -14q0 -4 -17 -26q-22 -29 -43 -56q-29 -47 -69 -133.5t-74 -156.5t-77 -139.5t-96.5 -109.5t-114.5 -40t-89.5 44t-28.5 99q0 26 6 43.5t15 17.5q5 0 9 -4q36 -36 77 -36q85 0 202 166q-116 -85 -214 -85q-92 0 -155.5 57.5t-63.5 171.5 q0 97 54 208t138.5 202t198.5 151t224 60q72 0 106.5 -35.5t34.5 -96.5q0 -83 -54.5 -183.5t-143 -173.5t-173.5 -73q-41 0 -66.5 32t-25.5 66q0 39 30 39q82 0 169.5 62.5t140 139.5t52.5 128q0 44 -45 44q-60 0 -144.5 -51t-160 -127t-129 -172.5t-53.5 -177.5 q0 -65 32 -102.5t98 -37.5q55 0 120.5 40t107.5 82.5t89 96.5zM153 -329q-21 0 -45 -29t-24 -40t-11 -11t-22 9.5t-11 20.5q0 41 16.5 84.5t45.5 43.5q26 0 43 -22t17 -42q0 -14 -9 -14z" glyph-name="uni0122" horiz-adv-x="626" unicode=""/><glyph d="M451 421q17 6 32 6q26 0 26 -13q0 -5 -7 -12q-33 -34 -70 -99.5t-67 -135.5t-69 -145.5t-77 -134.5t-90.5 -97t-110.5 -38q-61 0 -89.5 42t-28.5 95q0 25 6 41.5t15 16.5q5 0 9 -4q36 -36 76 -36q81 0 192 156q-72 -63 -126 -63q-69 0 -69 75q0 69 53.5 170t134.5 178 t150 77q84 0 110 -79zM158 149q15 0 38.5 14.5t50.5 39.5t46.5 44.5t42.5 44.5l22 25q29 44 45 63q-5 23 -21 40.5t-35 17.5q-30 0 -80 -54t-87.5 -119t-37.5 -97q0 -19 16 -19zM504 590q7 -7 -3 -17q-14 -14 -39.5 -17.5t-48.5 14.5q-21 21 -2 63t49 72q9 8 23 6.5t21 -8.5 q7 -9 0 -16q-8 -8 -11 -43t11 -54z" glyph-name="uni0123" horiz-adv-x="399" unicode=""/><glyph d="M1221 926q27 0 49.5 -24.5t22.5 -44.5q0 -13 -13 -13q-63 0 -156 -93t-173.5 -218.5t-138 -260.5t-57.5 -213q0 -81 63 -81q17 0 17 -18q0 -29 -36.5 -62.5t-87.5 -33.5q-108 0 -108 128q0 25 7 69q-9 92 -49 169q-104 -178 -222.5 -299t-203.5 -121q-67 0 -101 43 t-34 91q0 40 20 40q4 0 27 -15t41 -15q71 0 180 110t214 270q-46 40 -87 40q-16 0 -36.5 -14t-25.5 -14q-20 0 -20 40q0 42 28 78t83 36q62 0 121 -64q123 209 123 298q0 41 -31 41q-46 0 -122 -47t-145.5 -112t-120.5 -139t-51 -123q0 -15 11.5 -34.5t11.5 -22.5 q0 -8 -13 -13.5t-31 -5.5q-41 0 -74.5 25t-33.5 77q0 65 58.5 148t142 152t182 116.5t173.5 47.5q112 0 112 -133q0 -144 -123 -385q25 -55 40 -113q59 155 161.5 320t216 279t189.5 114zM1003 902q9 0 9 -17q0 -13 -7.5 -24t-21.5 -11q-41 0 -56 83q-38 -47 -68 -47 q-26 0 -43.5 22t-17.5 42q0 14 10 14q21 0 67 30t46 39q0 11 11 11q25 0 31.5 -35.5t12 -71t27.5 -35.5z" glyph-name="Hcircumflex" horiz-adv-x="803" unicode=""/><glyph d="M481 502q20 -2 40 -23t20 -39q0 -7 -5 -12q-57 -57 -120 -143.5t-63 -120.5q0 -17 18 -17q14 0 40.5 23.5t57.5 58t33 36.5q6 6 14 6t14 -7t6 -15q0 -7 -4 -11q-3 -2 -31 -43t-60 -83t-76.5 -78t-79.5 -36q-70 0 -70 67q0 55 42.5 141t104.5 172q-97 -86 -188 -201.5 t-91 -165.5q-3 -11 -17 -11q-24 0 -50 22t-26 56q0 56 93 207.5t191 282t138 170.5q12 12 30 12q24 0 48 -18t24 -35q0 -7 -6 -13q-196 -196 -309 -371q81 81 158.5 135t123.5 54zM590 808q9 0 9 -17q0 -13 -7.5 -24t-21.5 -11q-41 0 -56 83q-38 -47 -68 -47q-26 0 -43.5 22 t-17.5 42q0 14 10 14q21 0 67 30t46 39q0 11 11 11q25 0 31.5 -35.5t12 -71t27.5 -35.5z" glyph-name="hcircumflex" horiz-adv-x="431" unicode=""/><glyph d="M1221 926q27 0 49.5 -24.5t22.5 -44.5q0 -13 -13 -13q-63 0 -156 -93t-173.5 -218.5t-138 -260.5t-57.5 -213q0 -81 63 -81q17 0 17 -18q0 -29 -36.5 -62.5t-87.5 -33.5q-108 0 -108 128q0 25 7 69q-9 92 -49 169q-104 -178 -222.5 -299t-203.5 -121q-67 0 -101 43 t-34 91q0 40 20 40q4 0 27 -15t41 -15q71 0 180 110t214 270q-46 40 -87 40q-16 0 -36.5 -14t-25.5 -14q-20 0 -20 40q0 42 28 78t83 36q62 0 121 -64q123 209 123 298q0 41 -31 41q-46 0 -122 -47t-145.5 -112t-120.5 -139t-51 -123q0 -15 11.5 -34.5t11.5 -22.5 q0 -8 -13 -13.5t-31 -5.5q-41 0 -74.5 25t-33.5 77q0 65 58.5 148t142 152t182 116.5t173.5 47.5q112 0 112 -133q0 -144 -123 -385q25 -55 40 -113q59 155 161.5 320t216 279t189.5 114zM1015 620q18 0 33.5 -11.5t15.5 -20.5q0 -8 -13 -8q-5 0 -216 -11.5t-221 -11.5 q-29 0 -51 18t-22 35q0 15 20 15q14 0 230.5 -2.5t223.5 -2.5z" glyph-name="Hbar" horiz-adv-x="803" unicode=""/><glyph d="M481 502q20 -2 40 -23t20 -39q0 -7 -5 -12q-57 -57 -120 -143.5t-63 -120.5q0 -17 18 -17q14 0 40.5 23.5t57.5 58t33 36.5q6 6 14 6t14 -7t6 -15q0 -7 -4 -11q-3 -2 -31 -43t-60 -83t-76.5 -78t-79.5 -36q-70 0 -70 67q0 55 42.5 141t104.5 172q-97 -86 -188 -201.5 t-91 -165.5q-3 -11 -17 -11q-24 0 -50 22t-26 56q0 56 93 207.5t191 282t138 170.5q12 12 30 12q24 0 48 -18t24 -35q0 -7 -6 -13q-196 -196 -309 -371q81 81 158.5 135t123.5 54zM438 620q18 0 33.5 -11.5t15.5 -20.5q0 -8 -13 -8q-5 0 -86 -11.5t-91 -11.5q-29 0 -51 18 t-22 35q0 15 20 15q14 0 100.5 -2.5t93.5 -2.5z" glyph-name="hbar" horiz-adv-x="431" unicode=""/><glyph d="M625 844q112 0 112 -133q0 -101 -65 -258t-156.5 -298t-198 -243t-182.5 -102q-67 0 -101 43t-34 91q0 40 20 40q4 0 27 -15t41 -15q65 0 167.5 99t192 229.5t155 261t65.5 191.5q0 40 -31 40q-46 0 -122 -47t-145.5 -112t-120.5 -139t-51 -123q0 -15 11.5 -34.5 t11.5 -22.5q0 -8 -13 -13.5t-31 -5.5q-41 0 -74.5 25t-33.5 77q0 65 58.5 148t142 152t182 116.5t173.5 47.5zM140 -40q24 0 41 -17t17 -40q0 -24 -17 -41t-41 -17q-23 0 -40 17t-17 41q0 23 17 40t40 17zM614 948q-4 -4 -7 -4q-9 0 -9 21q0 28 15.5 53.5t45.5 25.5 q35 0 94.5 -28t77.5 -28q8 0 18.5 7t12.5 7q10 0 10 -25q0 -26 -14 -49t-41 -23q-21 0 -85 26.5t-89 26.5q-19 0 -29 -10z" glyph-name="Itilde" horiz-adv-x="577" unicode=""/><glyph d="M263 268q6 6 13 6q8 0 14 -7t6 -15q0 -7 -4 -11q-2 -2 -30.5 -43.5t-60 -83t-76.5 -77.5t-80 -36q-65 0 -65 59q0 46 45.5 134t109 161t106.5 73q26 0 26 -13q0 -6 -7 -12q-38 -38 -90.5 -120.5t-52.5 -116.5q0 -16 15 -16q14 0 40.5 23.5t57.5 58t33 36.5zM170 532 q-4 -4 -7 -4q-9 0 -9 21q0 28 15.5 53.5t45.5 25.5q35 0 94.5 -28t77.5 -28q8 0 18.5 7t12.5 7q10 0 10 -25q0 -26 -14 -49t-41 -23q-21 0 -85 26.5t-89 26.5q-19 0 -29 -10z" glyph-name="itilde" horiz-adv-x="188" unicode=""/><glyph d="M625 844q112 0 112 -133q0 -101 -65 -258t-156.5 -298t-198 -243t-182.5 -102q-67 0 -101 43t-34 91q0 40 20 40q4 0 27 -15t41 -15q65 0 167.5 99t192 229.5t155 261t65.5 191.5q0 40 -31 40q-46 0 -122 -47t-145.5 -112t-120.5 -139t-51 -123q0 -15 11.5 -34.5 t11.5 -22.5q0 -8 -13 -13.5t-31 -5.5q-41 0 -74.5 25t-33.5 77q0 65 58.5 148t142 152t182 116.5t173.5 47.5zM140 -40q24 0 41 -17t17 -40q0 -24 -17 -41t-41 -17q-23 0 -40 17t-17 41q0 23 17 40t40 17zM797 994q18 0 33.5 -11.5t15.5 -20.5q0 -8 -13 -8q-5 0 -86 -11.5 t-91 -11.5q-29 0 -51 18t-22 35q0 15 20 15q14 0 100.5 -2.5t93.5 -2.5z" glyph-name="Imacron" horiz-adv-x="577" unicode=""/><glyph d="M263 268q6 6 13 6q8 0 14 -7t6 -15q0 -7 -4 -11q-2 -2 -30.5 -43.5t-60 -83t-76.5 -77.5t-80 -36q-65 0 -65 59q0 46 45.5 134t109 161t106.5 73q26 0 26 -13q0 -6 -7 -12q-38 -38 -90.5 -120.5t-52.5 -116.5q0 -16 15 -16q14 0 40.5 23.5t57.5 58t33 36.5zM364 578 q18 0 33.5 -11.5t15.5 -20.5q0 -8 -13 -8q-5 0 -86 -11.5t-91 -11.5q-29 0 -51 18t-22 35q0 15 20 15q14 0 100.5 -2.5t93.5 -2.5z" glyph-name="imacron" horiz-adv-x="188" unicode=""/><glyph d="M625 844q112 0 112 -133q0 -101 -65 -258t-156.5 -298t-198 -243t-182.5 -102q-67 0 -101 43t-34 91q0 40 20 40q4 0 27 -15t41 -15q65 0 167.5 99t192 229.5t155 261t65.5 191.5q0 40 -31 40q-46 0 -122 -47t-145.5 -112t-120.5 -139t-51 -123q0 -15 11.5 -34.5 t11.5 -22.5q0 -8 -13 -13.5t-31 -5.5q-41 0 -74.5 25t-33.5 77q0 65 58.5 148t142 152t182 116.5t173.5 47.5zM140 -40q24 0 41 -17t17 -40q0 -24 -17 -41t-41 -17q-23 0 -40 17t-17 41q0 23 17 40t40 17zM886 986q-8 -46 -47.5 -78.5t-89.5 -32.5q-43 0 -69.5 27.5 t-26.5 72.5q0 61 48 85q25 13 32 4q1 -1 1 -3q-33 -118 41 -118q61 0 84 69q0 10 11 4q16 -10 16 -30z" glyph-name="Ibreve" horiz-adv-x="577" unicode=""/><glyph d="M263 268q6 6 13 6q8 0 14 -7t6 -15q0 -7 -4 -11q-2 -2 -30.5 -43.5t-60 -83t-76.5 -77.5t-80 -36q-65 0 -65 59q0 46 45.5 134t109 161t106.5 73q26 0 26 -13q0 -6 -7 -12q-38 -38 -90.5 -120.5t-52.5 -116.5q0 -16 15 -16q14 0 40.5 23.5t57.5 58t33 36.5zM442 610 q-8 -46 -47.5 -78.5t-89.5 -32.5q-43 0 -69.5 27.5t-26.5 72.5q0 61 48 85q25 13 32 4q1 -1 1 -3q-33 -118 41 -118q61 0 84 69q0 10 11 4q16 -10 16 -30z" glyph-name="ibreve" horiz-adv-x="188" unicode=""/><glyph d="M625 844q112 0 112 -133q0 -101 -65 -258t-156.5 -298t-198 -243t-182.5 -102q-67 0 -101 43t-34 91q0 40 20 40q4 0 27 -15t41 -15q65 0 167.5 99t192 229.5t155 261t65.5 191.5q0 40 -31 40q-46 0 -122 -47t-145.5 -112t-120.5 -139t-51 -123q0 -15 11.5 -34.5 t11.5 -22.5q0 -8 -13 -13.5t-31 -5.5q-41 0 -74.5 25t-33.5 77q0 65 58.5 148t142 152t182 116.5t173.5 47.5zM140 -40q24 0 41 -17t17 -40q0 -24 -17 -41t-41 -17q-23 0 -40 17t-17 41q0 23 17 40t40 17zM165 -170q17 -31 48 -64.5t44 -33.5q10 0 10 -14q0 -20 -17.5 -41.5 t-43.5 -21.5q-28 0 -62 63.5t-39 111.5h60z" glyph-name="Iogonek" horiz-adv-x="577" unicode=""/><glyph d="M370 704q36 0 57 -25t21 -53t-20 -28q-24 0 -62 -34t-38 -63q0 -12 -18 -12q-15 0 -28 10.5t-13 30.5q0 44 31 109t70 65zM263 268q6 6 13 6q8 0 14 -7t6 -15q0 -7 -4 -11q-2 -2 -30.5 -43.5t-60 -83t-76.5 -77.5t-80 -36q-65 0 -65 59q0 46 45.5 134t109 161t106.5 73 q26 0 26 -13q0 -6 -7 -12q-38 -38 -90.5 -120.5t-52.5 -116.5q0 -16 15 -16q14 0 40.5 23.5t57.5 58t33 36.5zM75 21q17 -31 48 -64.5t44 -33.5q10 0 10 -14q0 -20 -17.5 -41.5t-43.5 -21.5q-28 0 -62 63.5t-39 111.5h60z" glyph-name="iogonek" horiz-adv-x="188" unicode=""/><glyph d="M625 844q112 0 112 -133q0 -101 -65 -258t-156.5 -298t-198 -243t-182.5 -102q-67 0 -101 43t-34 91q0 40 20 40q4 0 27 -15t41 -15q65 0 167.5 99t192 229.5t155 261t65.5 191.5q0 40 -31 40q-46 0 -122 -47t-145.5 -112t-120.5 -139t-51 -123q0 -15 11.5 -34.5 t11.5 -22.5q0 -8 -13 -13.5t-31 -5.5q-41 0 -74.5 25t-33.5 77q0 65 58.5 148t142 152t182 116.5t173.5 47.5zM140 -40q24 0 41 -17t17 -40q0 -24 -17 -41t-41 -17q-23 0 -40 17t-17 41q0 23 17 40t40 17zM735 1044q24 0 41 -17t17 -40q0 -24 -17 -41t-41 -17q-23 0 -40 17 t-17 41q0 23 17 40t40 17z" glyph-name="Idotaccent" horiz-adv-x="577" unicode=""/><glyph d="M263 268q6 6 13 6q8 0 14 -7t6 -15q0 -7 -4 -11q-2 -2 -30.5 -43.5t-60 -83t-76.5 -77.5t-80 -36q-65 0 -65 59q0 46 45.5 134t109 161t106.5 73q26 0 26 -13q0 -6 -7 -12q-38 -38 -90.5 -120.5t-52.5 -116.5q0 -16 15 -16q14 0 40.5 23.5t57.5 58t33 36.5z" glyph-name="dotlessi" horiz-adv-x="188" unicode=""/><glyph d="M625 844q112 0 112 -133q0 -101 -65 -258t-156.5 -298t-198 -243t-182.5 -102q-67 0 -101 43t-34 91q0 40 20 40q4 0 27 -15t41 -15q65 0 167.5 99t192 229.5t155 261t65.5 191.5q0 40 -31 40q-46 0 -122 -47t-145.5 -112t-120.5 -139t-51 -123q0 -15 11.5 -34.5 t11.5 -22.5q0 -8 -13 -13.5t-31 -5.5q-41 0 -74.5 25t-33.5 77q0 65 58.5 148t142 152t182 116.5t173.5 47.5zM140 -40q24 0 41 -17t17 -40q0 -24 -17 -41t-41 -17q-23 0 -40 17t-17 41q0 23 17 40t40 17zM1328 400q23 0 37.5 -12t14.5 -24q0 -9 -16 -12.5t-44 -5t-37 -2.5 q-55 -101 -124.5 -195t-144.5 -170.5t-153 -122.5t-142 -46q-67 0 -104.5 35.5t-37.5 84.5q0 55 50.5 124.5t131 133.5t191 117.5t222.5 77.5q77 112 126 208.5t49 144.5q0 39 -33 39q-63 0 -169 -76t-188.5 -178t-82.5 -167q0 -14 11.5 -34t11.5 -22q0 -20 -44 -20 q-41 0 -74.5 25t-33.5 77q0 65 58.5 148t142 152t182.5 116.5t174 47.5q109 0 109 -125q0 -123 -99 -319h16zM784 -2q50 0 140 85.5t187 214.5q-142 -56 -253 -143.5t-111 -132.5q0 -24 37 -24z" glyph-name="IJ" horiz-adv-x="1231" unicode=""/><glyph d="M370 704q36 0 57 -25t21 -53t-20 -28q-24 0 -62 -34t-38 -63q0 -12 -18 -12q-15 0 -28 10.5t-13 30.5q0 44 31 109t70 65zM263 268q6 6 13 6q8 0 14 -7t6 -15q0 -7 -4 -11q-2 -2 -30.5 -43.5t-60 -83t-76.5 -77.5t-80 -36q-65 0 -65 59q0 46 45.5 134t109 161t106.5 73 q26 0 26 -13q0 -6 -7 -12q-38 -38 -90.5 -120.5t-52.5 -116.5q0 -16 15 -16q14 0 40.5 23.5t57.5 58t33 36.5zM351 402q25 25 60 25q26 0 26 -13q0 -6 -7 -12q-33 -34 -70 -99.5t-67 -135.5t-69 -145.5t-77 -134.5t-90.5 -97t-110.5 -38q-61 0 -89.5 42t-28.5 95 q0 25 6 41.5t15 16.5q5 0 9 -4q36 -36 76 -36q53 0 116.5 64.5t111.5 144.5t103 168t86 118zM559 705q36 0 57 -25t21 -53q0 -29 -21 -29q-23 0 -61.5 -33.5t-38.5 -62.5q0 -13 -19 -13q-15 0 -27.5 11t-12.5 31q0 25 12.5 65t37.5 74.5t52 34.5z" glyph-name="ij" horiz-adv-x="327" unicode=""/><glyph d="M751 400q23 0 37.5 -12t14.5 -24q0 -9 -16 -12.5t-44 -5t-37 -2.5q-55 -101 -124.5 -195t-144.5 -170.5t-153 -122.5t-142 -46q-67 0 -104.5 35.5t-37.5 84.5q0 55 50.5 124.5t131 133.5t191 117.5t222.5 77.5q77 112 126 208.5t49 144.5q0 39 -33 39q-63 0 -169 -76 t-188.5 -178t-82.5 -167q0 -14 11.5 -34t11.5 -22q0 -20 -44 -20q-41 0 -74.5 25t-33.5 77q0 65 58.5 148t142 152t182.5 116.5t174 47.5q109 0 109 -125q0 -123 -99 -319h16zM207 -2q50 0 140 85.5t187 214.5q-142 -56 -253 -143.5t-111 -132.5q0 -24 37 -24zM913 902 q9 0 9 -17q0 -13 -7.5 -24t-21.5 -11q-41 0 -56 83q-38 -47 -68 -47q-26 0 -43.5 22t-17.5 42q0 14 10 14q21 0 67 30t46 39q0 11 11 11q25 0 31.5 -35.5t12 -71t27.5 -35.5z" glyph-name="Jcircumflex" horiz-adv-x="654" unicode=""/><glyph d="M163 402q25 25 60 25q26 0 26 -13q0 -6 -7 -12q-33 -34 -70 -99.5t-67 -135.5t-69 -145.5t-77 -134.5t-90.5 -97t-110.5 -38q-61 0 -89.5 42t-28.5 95q0 25 6 41.5t15 16.5q5 0 9 -4q36 -36 76 -36q53 0 116.5 64.5t111.5 144.5t103 168t86 118zM362 558q9 0 9 -17 q0 -13 -7.5 -24t-21.5 -11q-41 0 -56 83q-38 -47 -68 -47q-26 0 -43.5 22t-17.5 42q0 14 10 14q21 0 67 30t46 39q0 11 11 11q25 0 31.5 -35.5t12 -71t27.5 -35.5z" glyph-name="jcircumflex" horiz-adv-x="139" unicode=""/><glyph d="M1093 844q50 0 82 -25.5t32 -49.5q0 -14 -15 -14q-70 0 -201.5 -87t-267 -213t-237.5 -251q61 -97 137 -173t122 -76q10 0 22.5 8.5t15.5 8.5q14 0 14 -34q0 -47 -32 -90.5t-95 -43.5q-62 0 -130.5 92.5t-120.5 219.5q-44 -65 -58 -100q-6 -15 -10 -39.5t-10.5 -33.5 t-25.5 -9q-36 0 -70 28t-34 80q0 61 154 266q0 31 13.5 57t28.5 26q9 0 9 -16q45 59 68.5 90.5t54 75.5t44 72t13.5 45q0 23 -28 23q-46 0 -122 -47t-145.5 -112t-120.5 -139t-51 -123q0 -15 11.5 -34.5t11.5 -22.5q0 -8 -13 -13.5t-32 -5.5q-40 0 -73.5 25t-33.5 76 q0 87 95 198t228 189t233 78q109 0 109 -92q0 -65 -60 -192q142 162 275.5 270t212.5 108zM449 -215q-21 0 -45 -29t-24 -40t-11 -11t-22 9.5t-11 20.5q0 41 16.5 84.5t45.5 43.5q26 0 43 -22t17 -42q0 -14 -9 -14z" glyph-name="uni0136" horiz-adv-x="677" unicode=""/><glyph d="M503 269q6 6 13 6q9 0 15 -7.5t6 -16.5q0 -7 -4 -11q-1 -1 -30 -43.5t-60.5 -83.5t-76.5 -77t-80 -36q-48 0 -83.5 52t-46.5 120q-73 -113 -73 -160q-1 0 -1 1q0 -12 -16 -12q-24 0 -50 22.5t-26 56.5q0 56 93 207.5t191 282t138 170.5q12 12 30 12q24 0 48 -18t24 -35 q0 -7 -6 -13q-130 -130 -229 -258q88 76 139 76q42 0 63 -21.5t21 -56.5q0 -66 -61 -139.5t-153 -98.5q15 -39 50 -39q15 0 33.5 8t33.5 18.5t33 26.5t28 26.5t23 25t14 15.5zM407 448q-20 0 -72 -52t-110 -127q63 24 126.5 85.5t63.5 86.5q0 7 -8 7zM194 -128 q-21 0 -45 -29t-24 -40t-11 -11t-22 9.5t-11 20.5q0 41 16.5 84.5t45.5 43.5q26 0 43 -22t17 -42q0 -14 -9 -14z" glyph-name="uni0137" horiz-adv-x="427" unicode=""/><glyph d="M503 269q6 6 13 6q9 0 15 -7.5t6 -16.5q0 -7 -4 -11q-1 -1 -30 -43.5t-60.5 -83.5t-76.5 -77t-80 -36q-48 0 -83.5 52t-46.5 120q-73 -113 -73 -160q-1 0 -1 1q0 -12 -16 -12q-24 0 -50 13.5t-26 34.5q0 54 89 214.5t143 214.5q12 12 30 12q17 0 35.5 -10t28.5 -23 q62 47 102 47q42 0 63 -21.5t21 -56.5q0 -66 -61 -139.5t-153 -98.5q15 -39 50 -39q15 0 33.5 8t33.5 18.5t33 26.5t28 26.5t23 25t14 15.5zM407 448q-20 0 -72 -52t-110 -127q63 24 126.5 85.5t63.5 86.5q0 7 -8 7z" glyph-name="kgreenlandic" horiz-adv-x="427" unicode=""/><glyph d="M851 -26q8 8 14 8q12 0 12 -24q0 -43 -36 -87.5t-104 -44.5q-26 0 -61 12.5t-81 40t-79 48.5t-90.5 60.5t-79.5 54.5q-123 -126 -228 -126q-56 0 -87 31.5t-31 76.5q0 62 53.5 110t150.5 48q43 0 90 -11q38 49 98.5 145t115 180t116 167t124 132t117.5 49q83 0 83 -118 q0 -83 -39 -192.5t-97 -189t-106 -79.5q-42 0 -69 30.5t-27 59.5q0 20 15 20q42 0 102 83.5t101 178t41 134.5q0 16 -9 16q-29 0 -93 -105.5t-164.5 -278t-183.5 -277.5q53 -24 138 -72t143 -74.5t97 -26.5q33 0 54 21zM187 83q22 0 49 24q-33 14 -48 14q-10 0 -17.5 -7 t-7.5 -16q0 -15 24 -15zM954 1044q26 0 43 -22t17 -42q0 -14 -10 -14q-20 0 -44 -29t-24 -40t-11 -11t-22 9.5t-11 20.5q0 41 16 84.5t46 43.5z" glyph-name="Lacute" horiz-adv-x="748" unicode=""/><glyph d="M408 738q12 12 30 12q24 0 48 -18t24 -35q0 -7 -6 -13q-118 -118 -247.5 -295.5t-129.5 -226.5q0 -13 12 -13q11 0 31.5 16.5t38 35t38 41t23.5 25.5q6 6 14 6t14 -7t6 -15q0 -7 -4 -11q-2 -2 -31 -43.5t-60.5 -83t-76 -77.5t-79.5 -36q-63 0 -63 60q0 58 56.5 167 t132 215t139.5 188t90 108zM517 950q26 0 43 -22t17 -42q0 -14 -10 -14q-20 0 -44 -29t-24 -40t-11 -11t-22 9.5t-11 20.5q0 41 16 84.5t46 43.5z" glyph-name="lacute" horiz-adv-x="200" unicode=""/><glyph d="M851 -26q8 8 14 8q12 0 12 -24q0 -43 -36 -87.5t-104 -44.5q-26 0 -61 12.5t-81 40t-79 48.5t-90.5 60.5t-79.5 54.5q-123 -126 -228 -126q-56 0 -87 31.5t-31 76.5q0 62 53.5 110t150.5 48q43 0 90 -11q38 49 98.5 145t115 180t116 167t124 132t117.5 49q83 0 83 -118 q0 -83 -39 -192.5t-97 -189t-106 -79.5q-42 0 -69 30.5t-27 59.5q0 20 15 20q42 0 102 83.5t101 178t41 134.5q0 16 -9 16q-29 0 -93 -105.5t-164.5 -278t-183.5 -277.5q53 -24 138 -72t143 -74.5t97 -26.5q33 0 54 21zM187 83q22 0 49 24q-33 14 -48 14q-10 0 -17.5 -7 t-7.5 -16q0 -15 24 -15zM441 -202q-21 0 -45 -29t-24 -40t-11 -11t-22 9.5t-11 20.5q0 41 16.5 84.5t45.5 43.5q26 0 43 -22t17 -42q0 -14 -9 -14z" glyph-name="uni013B" horiz-adv-x="748" unicode=""/><glyph d="M408 738q12 12 30 12q24 0 48 -18t24 -35q0 -7 -6 -13q-118 -118 -247.5 -295.5t-129.5 -226.5q0 -13 12 -13q11 0 31.5 16.5t38 35t38 41t23.5 25.5q6 6 14 6t14 -7t6 -15q0 -7 -4 -11q-2 -2 -31 -43.5t-60.5 -83t-76 -77.5t-79.5 -36q-63 0 -63 60q0 58 56.5 167 t132 215t139.5 188t90 108zM54 -108q-21 0 -45 -29t-24 -40t-11 -11t-22 9.5t-11 20.5q0 41 16.5 84.5t45.5 43.5q26 0 43 -22t17 -42q0 -14 -9 -14z" glyph-name="uni013C" horiz-adv-x="200" unicode=""/><glyph d="M851 -26q8 8 14 8q12 0 12 -24q0 -43 -36 -87.5t-104 -44.5q-26 0 -61 12.5t-81 40t-79 48.5t-90.5 60.5t-79.5 54.5q-123 -126 -228 -126q-56 0 -87 31.5t-31 76.5q0 62 53.5 110t150.5 48q43 0 90 -11q38 49 98.5 145t115 180t116 167t124 132t117.5 49q83 0 83 -118 q0 -83 -39 -192.5t-97 -189t-106 -79.5q-42 0 -69 30.5t-27 59.5q0 20 15 20q42 0 102 83.5t101 178t41 134.5q0 16 -9 16q-29 0 -93 -105.5t-164.5 -278t-183.5 -277.5q53 -24 138 -72t143 -74.5t97 -26.5q33 0 54 21zM187 83q22 0 49 24q-33 14 -48 14q-10 0 -17.5 -7 t-7.5 -16q0 -15 24 -15zM1017 824q-7 7 3 17q14 14 39.5 17.5t48.5 -14.5q21 -21 2 -63t-49 -72q-9 -8 -23 -6.5t-21 8.5q-7 9 0 16q8 8 11 43t-11 54z" glyph-name="Lcaron" horiz-adv-x="748" unicode=""/><glyph d="M408 738q12 12 30 12q24 0 48 -18t24 -35q0 -7 -6 -13q-118 -118 -247.5 -295.5t-129.5 -226.5q0 -13 12 -13q11 0 31.5 16.5t38 35t38 41t23.5 25.5q6 6 14 6t14 -7t6 -15q0 -7 -4 -11q-2 -2 -31 -43.5t-60.5 -83t-76 -77.5t-79.5 -36q-63 0 -63 60q0 58 56.5 167 t132 215t139.5 188t90 108zM524 745q-7 7 3 17q14 14 39.5 17.5t48.5 -14.5q21 -21 2 -63t-49 -72q-9 -8 -23 -6.5t-21 8.5q-7 9 0 16q8 8 11 43t-11 54z" glyph-name="lcaron" horiz-adv-x="200" unicode=""/><glyph d="M851 -26q8 8 14 8q12 0 12 -24q0 -43 -36 -87.5t-104 -44.5q-26 0 -61 12.5t-81 40t-79 48.5t-90.5 60.5t-79.5 54.5q-123 -126 -228 -126q-56 0 -87 31.5t-31 76.5q0 62 53.5 110t150.5 48q43 0 90 -11q38 49 98.5 145t115 180t116 167t124 132t117.5 49q83 0 83 -118 q0 -83 -39 -192.5t-97 -189t-106 -79.5q-42 0 -69 30.5t-27 59.5q0 20 15 20q42 0 102 83.5t101 178t41 134.5q0 16 -9 16q-29 0 -93 -105.5t-164.5 -278t-183.5 -277.5q53 -24 138 -72t143 -74.5t97 -26.5q33 0 54 21zM187 83q22 0 49 24q-33 14 -48 14q-10 0 -17.5 -7 t-7.5 -16q0 -15 24 -15zM617 244q26 0 44.5 -18t18.5 -44t-18.5 -44.5t-44.5 -18.5t-44 18.5t-18 44.5t18.5 44t43.5 18z" glyph-name="Ldot" horiz-adv-x="748" unicode=""/><glyph d="M408 738q12 12 30 12q24 0 48 -18t24 -35q0 -7 -6 -13q-118 -118 -247.5 -295.5t-129.5 -226.5q0 -13 12 -13q11 0 31.5 16.5t38 35t38 41t23.5 25.5q6 6 14 6t14 -7t6 -15q0 -7 -4 -11q-2 -2 -31 -43.5t-60.5 -83t-76 -77.5t-79.5 -36q-63 0 -63 60q0 58 56.5 167 t132 215t139.5 188t90 108zM357 438q26 0 44.5 -18t18.5 -44t-18.5 -44.5t-44.5 -18.5t-44 18.5t-18 44.5t18.5 44t43.5 18z" glyph-name="ldot" horiz-adv-x="200" unicode=""/><glyph d="M851 -26q8 8 14 8q12 0 12 -24q0 -43 -36 -87.5t-104 -44.5q-26 0 -61 12.5t-81 40t-79 48.5t-90.5 60.5t-79.5 54.5q-123 -126 -228 -126q-56 0 -87 31.5t-31 76.5q0 62 53.5 110t150.5 48q43 0 90 -11q38 49 98.5 145t115 180t116 167t124 132t117.5 49q83 0 83 -118 q0 -83 -39 -192.5t-97 -189t-106 -79.5q-42 0 -69 30.5t-27 59.5q0 20 15 20q42 0 102 83.5t101 178t41 134.5q0 16 -9 16q-29 0 -93 -105.5t-164.5 -278t-183.5 -277.5q53 -24 138 -72t143 -74.5t97 -26.5q33 0 54 21zM187 83q22 0 49 24q-33 14 -48 14q-10 0 -17.5 -7 t-7.5 -16q0 -15 24 -15zM749 519q53 24 66 -5q5 -11 -14 -19q-9 -4 -216.5 -100t-219.5 -101q-95 -43 -105 -22q-4 9 -1 18t11 13q15 7 240.5 108.5t238.5 107.5z" glyph-name="Lslash" horiz-adv-x="748" unicode=""/><glyph d="M408 738q12 12 30 12q24 0 48 -18t24 -35q0 -7 -6 -13q-118 -118 -247.5 -295.5t-129.5 -226.5q0 -13 12 -13q11 0 31.5 16.5t38 35t38 41t23.5 25.5q6 6 14 6t14 -7t6 -15q0 -7 -4 -11q-2 -2 -31 -43.5t-60.5 -83t-76 -77.5t-79.5 -36q-63 0 -63 60q0 58 56.5 167 t132 215t139.5 188t90 108zM439 519q53 24 66 -5q5 -11 -14 -19q-9 -4 -216.5 -100t-219.5 -101q-95 -43 -105 -22q-4 9 -1 18t11 13q15 7 240.5 108.5t238.5 107.5z" glyph-name="lslash" horiz-adv-x="200" unicode=""/><glyph d="M1054 844h5q21 0 42.5 -22t21.5 -40q0 -8 -4 -12q-107 -106 -252.5 -369t-145.5 -370q0 -22 9.5 -33.5t21 -13t21 -6t9.5 -13.5q0 -29 -53 -71t-104 -42q-32 0 -55.5 20.5t-23.5 63.5q0 109 117.5 333.5t256.5 417.5q-166 -156 -337.5 -356t-221.5 -317q-6 -15 -10.5 -39 t-11 -33t-24.5 -9q-36 0 -70 28t-34 80q0 42 60 134.5t132.5 182.5t132.5 178t60 121q0 23 -28 23q-46 0 -122 -47t-145.5 -112t-120.5 -139t-51 -123q0 -15 11.5 -34.5t11.5 -22.5q0 -8 -13 -13.5t-31 -5.5q-41 0 -74.5 25t-33.5 77q0 65 58 148t142 152t182.5 116.5 t173.5 47.5q109 0 109 -92q0 -70 -64 -200q143 159 274 273t179 114zM858 1044q26 0 43 -22t17 -42q0 -14 -10 -14q-20 0 -44 -29t-24 -40t-11 -11t-22 9.5t-11 20.5q0 41 16 84.5t46 43.5z" glyph-name="Nacute" horiz-adv-x="803" unicode=""/><glyph d="M479 506q20 -2 40 -23.5t20 -38.5q0 -8 -4 -12q-58 -58 -120.5 -143.5t-62.5 -120.5q0 -17 18 -17q14 0 40.5 23.5t57.5 58t33 36.5q6 6 13 6q8 0 14 -7t6 -15q0 -7 -4 -11q-2 -2 -30.5 -43.5t-60 -83t-76.5 -77.5t-80 -36q-70 0 -70 67q0 54 42.5 140t104.5 173 q-96 -86 -187 -201.5t-91 -165.5q0 -13 -16 -13q-24 0 -50 23t-26 57q0 72 86.5 201t156.5 198q25 25 59 25q26 0 26 -13q0 -2 -19.5 -27t-53 -71t-59.5 -90q83 85 164.5 143t128.5 58zM398 706q26 0 43 -22t17 -42q0 -14 -10 -14q-20 0 -44 -29t-24 -40t-11 -11t-22 9.5 t-11 20.5q0 41 16 84.5t46 43.5z" glyph-name="nacute" horiz-adv-x="429" unicode=""/><glyph d="M1054 844h5q21 0 42.5 -22t21.5 -40q0 -8 -4 -12q-107 -106 -252.5 -369t-145.5 -370q0 -22 9.5 -33.5t21 -13t21 -6t9.5 -13.5q0 -29 -53 -71t-104 -42q-32 0 -55.5 20.5t-23.5 63.5q0 109 117.5 333.5t256.5 417.5q-166 -156 -337.5 -356t-221.5 -317q-6 -15 -10.5 -39 t-11 -33t-24.5 -9q-36 0 -70 28t-34 80q0 42 60 134.5t132.5 182.5t132.5 178t60 121q0 23 -28 23q-46 0 -122 -47t-145.5 -112t-120.5 -139t-51 -123q0 -15 11.5 -34.5t11.5 -22.5q0 -8 -13 -13.5t-31 -5.5q-41 0 -74.5 25t-33.5 77q0 65 58 148t142 152t182.5 116.5 t173.5 47.5q109 0 109 -92q0 -70 -64 -200q143 159 274 273t179 114zM456 -226q-21 0 -45 -29t-24 -40t-11 -11t-22 9.5t-11 20.5q0 41 16.5 84.5t45.5 43.5q26 0 43 -22t17 -42q0 -14 -9 -14z" glyph-name="uni0145" horiz-adv-x="803" unicode=""/><glyph d="M479 506q20 -2 40 -23.5t20 -38.5q0 -8 -4 -12q-58 -58 -120.5 -143.5t-62.5 -120.5q0 -17 18 -17q14 0 40.5 23.5t57.5 58t33 36.5q6 6 13 6q8 0 14 -7t6 -15q0 -7 -4 -11q-2 -2 -30.5 -43.5t-60 -83t-76.5 -77.5t-80 -36q-70 0 -70 67q0 54 42.5 140t104.5 173 q-96 -86 -187 -201.5t-91 -165.5q0 -13 -16 -13q-24 0 -50 23t-26 57q0 72 86.5 201t156.5 198q25 25 59 25q26 0 26 -13q0 -2 -19.5 -27t-53 -71t-59.5 -90q83 85 164.5 143t128.5 58zM204 -136q-21 0 -45 -29t-24 -40t-11 -11t-22 9.5t-11 20.5q0 41 16.5 84.5t45.5 43.5 q26 0 43 -22t17 -42q0 -14 -9 -14z" glyph-name="uni0146" horiz-adv-x="429" unicode=""/><glyph d="M1054 844h5q21 0 42.5 -22t21.5 -40q0 -8 -4 -12q-107 -106 -252.5 -369t-145.5 -370q0 -22 9.5 -33.5t21 -13t21 -6t9.5 -13.5q0 -29 -53 -71t-104 -42q-32 0 -55.5 20.5t-23.5 63.5q0 109 117.5 333.5t256.5 417.5q-166 -156 -337.5 -356t-221.5 -317q-6 -15 -10.5 -39 t-11 -33t-24.5 -9q-36 0 -70 28t-34 80q0 42 60 134.5t132.5 182.5t132.5 178t60 121q0 23 -28 23q-46 0 -122 -47t-145.5 -112t-120.5 -139t-51 -123q0 -15 11.5 -34.5t11.5 -22.5q0 -8 -13 -13.5t-31 -5.5q-41 0 -74.5 25t-33.5 77q0 65 58 148t142 152t182.5 116.5 t173.5 47.5q109 0 109 -92q0 -70 -64 -200q143 159 274 273t179 114zM974 930q-13 13 -33.5 2.5t-39.5 -29.5t-41 -28.5t-36 4.5q-8 8 0 16q7 7 -4.5 60t-26.5 68q-8 8 3 17q14 14 40 17t48 -15q22 -22 15 -81q69 48 98 20q9 -12 7 -24t-11 -21q-12 -12 -19 -6z" glyph-name="Ncaron" horiz-adv-x="803" unicode=""/><glyph d="M479 506q20 -2 40 -23.5t20 -38.5q0 -8 -4 -12q-58 -58 -120.5 -143.5t-62.5 -120.5q0 -17 18 -17q14 0 40.5 23.5t57.5 58t33 36.5q6 6 13 6q8 0 14 -7t6 -15q0 -7 -4 -11q-2 -2 -30.5 -43.5t-60 -83t-76.5 -77.5t-80 -36q-70 0 -70 67q0 54 42.5 140t104.5 173 q-96 -86 -187 -201.5t-91 -165.5q0 -13 -16 -13q-24 0 -50 23t-26 57q0 72 86.5 201t156.5 198q25 25 59 25q26 0 26 -13q0 -2 -19.5 -27t-53 -71t-59.5 -90q83 85 164.5 143t128.5 58zM514 592q-13 13 -33.5 2.5t-39.5 -29.5t-41 -28.5t-36 4.5q-8 8 0 16q7 7 -4.5 60 t-26.5 68q-8 8 3 17q14 14 40 17t48 -15q22 -22 15 -81q69 48 98 20q9 -12 7 -24t-11 -21q-12 -12 -19 -6z" glyph-name="ncaron" horiz-adv-x="429" unicode=""/><glyph d="M479 506q20 -2 40 -23.5t20 -38.5q0 -8 -4 -12q-58 -58 -120.5 -143.5t-62.5 -120.5q0 -17 18 -17q14 0 40.5 23.5t57.5 58t33 36.5q6 6 13 6q8 0 14 -7t6 -15q0 -7 -4 -11q-2 -2 -30.5 -43.5t-60 -83t-76.5 -77.5t-80 -36q-70 0 -70 67q0 54 42.5 140t104.5 173 q-96 -86 -187 -201.5t-91 -165.5q0 -13 -16 -13q-24 0 -50 23t-26 57q0 72 86.5 201t156.5 198q25 25 59 25q26 0 26 -13q0 -2 -19.5 -27t-53 -71t-59.5 -90q83 85 164.5 143t128.5 58zM166 625q-7 7 3 17q14 14 39.5 17.5t48.5 -14.5q21 -21 2 -63t-49 -72q-9 -8 -23 -6.5 t-21 8.5q-7 9 0 16q8 8 11 43t-11 54z" glyph-name="napostrophe" horiz-adv-x="429" unicode=""/><glyph d="M1054 844h5q21 0 42.5 -22t21.5 -40q0 -6 -4 -12q-29 -40 -95 -176.5t-141 -289t-158.5 -303.5t-171 -250t-155.5 -99q-62 0 -100 44t-38 93q0 25 6 41.5t15 16.5q5 0 9 -4q36 -36 76 -36q32 0 77 42t96.5 117.5t101.5 157.5t104.5 184.5t91.5 174t76.5 151.5t46.5 93 q-170 -160 -359.5 -378t-239.5 -335q-6 -15 -10.5 -39t-11 -33t-24.5 -9q-36 0 -70 28t-34 80q0 42 60 134.5t132.5 182.5t132.5 178t60 121q0 23 -28 23q-46 0 -122 -47t-145.5 -112t-120.5 -139t-51 -123q0 -15 11.5 -34.5t11.5 -22.5q0 -8 -13 -13.5t-31 -5.5 q-41 0 -74.5 25t-33.5 77q0 65 58 148t142 152t182.5 116.5t173.5 47.5q109 0 109 -92q0 -70 -64 -200q143 159 274 273t179 114z" glyph-name="Eng" horiz-adv-x="861" unicode=""/><glyph d="M479 506q20 -2 40 -23.5t20 -38.5q0 -8 -4 -12q-31 -33 -68 -101.5t-68.5 -141.5t-72.5 -152.5t-81 -141.5t-92.5 -102.5t-108.5 -40.5q-61 0 -89.5 42t-28.5 95q0 25 6 41.5t15 16.5q5 0 9 -4q36 -36 76 -36q44 0 96 45.5t94 106.5t87 142.5t68.5 131t43.5 95.5h-1 q-105 -94 -221.5 -229.5t-116.5 -183.5q0 -13 -16 -13q-24 0 -50 23t-26 57q0 72 86.5 201t156.5 198q25 25 59 25q26 0 26 -13q0 -2 -19.5 -27t-53 -71t-59.5 -90q83 85 164.5 143t128.5 58z" glyph-name="eng" horiz-adv-x="440" unicode=""/><glyph d="M683 844q123 0 184.5 -76t61.5 -200q0 -88 -29.5 -186.5t-87 -192t-132.5 -169.5t-175 -122t-207 -46q-130 0 -214 78t-84 222q0 119 60 245.5t152.5 224t211.5 160t229 62.5q7 0 11 -1q7 1 19 1zM318 -4q86 0 169.5 44.5t147 116t113 156t75 168.5t25.5 151 q0 63 -24.5 99t-73.5 36q-64 0 -132.5 -46.5t-118 -113t-82 -140t-32.5 -126.5q0 -81 71 -81q77 0 153 97t76 175q0 66 -64 66q-18 0 -18 12q0 13 18.5 26.5t45.5 13.5q49 0 74.5 -35t25.5 -93q0 -47 -16 -100.5t-48.5 -105.5t-76 -94.5t-104 -68.5t-127.5 -26 q-81 0 -130 48t-49 125q0 86 46 181t120 177q-110 -93 -180 -218t-70 -234q0 -96 50.5 -153t135.5 -57zM895 994q18 0 33.5 -11.5t15.5 -20.5q0 -8 -13 -8q-5 0 -86 -11.5t-91 -11.5q-29 0 -51 18t-22 35q0 15 20 15q14 0 100.5 -2.5t93.5 -2.5z" glyph-name="Omacron" horiz-adv-x="829" unicode=""/><glyph d="M483 267q6 6 13 6q8 0 14 -7t6 -15q0 -7 -4 -11q-1 -1 -8.5 -9.5t-15 -16t-22 -19t-30 -20.5t-38 -17.5t-46.5 -13.5q-55 -65 -118.5 -105t-123.5 -40q-51 0 -75.5 26.5t-24.5 72.5q0 67 45 153.5t119 154.5t146 79q30 16 62 16q92 0 92 -92q0 -82 -69 -192q38 13 78 50z M374 446q-33 0 -65.5 -60.5t-32.5 -116.5q0 -32 14 -49q44 48 75.5 106.5t31.5 92.5q0 27 -23 27zM197 313q-51 -77 -51 -128q0 -37 31 -37q20 0 45 14q-34 31 -34 89q0 31 9 62zM525 651q18 0 33.5 -11.5t15.5 -20.5q0 -8 -13 -8q-5 0 -86 -11.5t-91 -11.5q-29 0 -51 18 t-22 35q0 15 20 15q14 0 100.5 -2.5t93.5 -2.5z" glyph-name="omacron" horiz-adv-x="416" unicode=""/><glyph d="M683 844q123 0 184.5 -76t61.5 -200q0 -88 -29.5 -186.5t-87 -192t-132.5 -169.5t-175 -122t-207 -46q-130 0 -214 78t-84 222q0 119 60 245.5t152.5 224t211.5 160t229 62.5q7 0 11 -1q7 1 19 1zM318 -4q86 0 169.5 44.5t147 116t113 156t75 168.5t25.5 151 q0 63 -24.5 99t-73.5 36q-64 0 -132.5 -46.5t-118 -113t-82 -140t-32.5 -126.5q0 -81 71 -81q77 0 153 97t76 175q0 66 -64 66q-18 0 -18 12q0 13 18.5 26.5t45.5 13.5q49 0 74.5 -35t25.5 -93q0 -47 -16 -100.5t-48.5 -105.5t-76 -94.5t-104 -68.5t-127.5 -26 q-81 0 -130 48t-49 125q0 86 46 181t120 177q-110 -93 -180 -218t-70 -234q0 -96 50.5 -153t135.5 -57zM984 986q-8 -46 -47.5 -78.5t-89.5 -32.5q-43 0 -69.5 27.5t-26.5 72.5q0 61 48 85q25 13 32 4q1 -1 1 -3q-33 -118 41 -118q61 0 84 69q0 10 11 4q16 -10 16 -30z" glyph-name="Obreve" horiz-adv-x="829" unicode=""/><glyph d="M483 267q6 6 13 6q8 0 14 -7t6 -15q0 -7 -4 -11q-1 -1 -8.5 -9.5t-15 -16t-22 -19t-30 -20.5t-38 -17.5t-46.5 -13.5q-55 -65 -118.5 -105t-123.5 -40q-51 0 -75.5 26.5t-24.5 72.5q0 67 45 153.5t119 154.5t146 79q30 16 62 16q92 0 92 -92q0 -82 -69 -192q38 13 78 50z M374 446q-33 0 -65.5 -60.5t-32.5 -116.5q0 -32 14 -49q44 48 75.5 106.5t31.5 92.5q0 27 -23 27zM197 313q-51 -77 -51 -128q0 -37 31 -37q20 0 45 14q-34 31 -34 89q0 31 9 62zM603 683q-8 -46 -47.5 -78.5t-89.5 -32.5q-43 0 -69.5 27.5t-26.5 72.5q0 61 48 85 q25 13 32 4q1 -1 1 -3q-33 -118 41 -118q61 0 84 69q0 10 11 4q16 -10 16 -30z" glyph-name="obreve" horiz-adv-x="416" unicode=""/><glyph d="M683 844q123 0 184.5 -76t61.5 -200q0 -88 -29.5 -186.5t-87 -192t-132.5 -169.5t-175 -122t-207 -46q-130 0 -214 78t-84 222q0 119 60 245.5t152.5 224t211.5 160t229 62.5q7 0 11 -1q7 1 19 1zM318 -4q86 0 169.5 44.5t147 116t113 156t75 168.5t25.5 151 q0 63 -24.5 99t-73.5 36q-64 0 -132.5 -46.5t-118 -113t-82 -140t-32.5 -126.5q0 -81 71 -81q77 0 153 97t76 175q0 66 -64 66q-18 0 -18 12q0 13 18.5 26.5t45.5 13.5q49 0 74.5 -35t25.5 -93q0 -47 -16 -100.5t-48.5 -105.5t-76 -94.5t-104 -68.5t-127.5 -26 q-81 0 -130 48t-49 125q0 86 46 181t120 177q-110 -93 -180 -218t-70 -234q0 -96 50.5 -153t135.5 -57zM805 1064q26 0 43 -22t17 -42q0 -14 -10 -14q-20 0 -44 -29t-24 -40t-11 -11t-22 9.5t-11 20.5q0 41 16 84.5t46 43.5zM917 1044q26 0 43 -22t17 -42q0 -14 -10 -14 q-20 0 -44 -29t-24 -40t-11 -11t-22 9.5t-11 20.5q0 41 16 84.5t46 43.5z" glyph-name="Ohungarumlaut" horiz-adv-x="829" unicode=""/><glyph d="M483 267q6 6 13 6q8 0 14 -7t6 -15q0 -7 -4 -11q-1 -1 -8.5 -9.5t-15 -16t-22 -19t-30 -20.5t-38 -17.5t-46.5 -13.5q-55 -65 -118.5 -105t-123.5 -40q-51 0 -75.5 26.5t-24.5 72.5q0 67 45 153.5t119 154.5t146 79q30 16 62 16q92 0 92 -92q0 -82 -69 -192q38 13 78 50z M374 446q-33 0 -65.5 -60.5t-32.5 -116.5q0 -32 14 -49q44 48 75.5 106.5t31.5 92.5q0 27 -23 27zM197 313q-51 -77 -51 -128q0 -37 31 -37q20 0 45 14q-34 31 -34 89q0 31 9 62zM424 721q26 0 43 -22t17 -42q0 -14 -10 -14q-20 0 -44 -29t-24 -40t-11 -11t-22 9.5t-11 20.5 q0 41 16 84.5t46 43.5zM536 701q26 0 43 -22t17 -42q0 -14 -10 -14q-20 0 -44 -29t-24 -40t-11 -11t-22 9.5t-11 20.5q0 41 16 84.5t46 43.5z" glyph-name="ohungarumlaut" horiz-adv-x="416" unicode=""/><glyph d="M683 844q123 0 184.5 -76t61.5 -200q0 -88 -29.5 -186.5t-87 -192t-132.5 -169.5t-175 -122t-207 -46q-130 0 -214 78t-84 222q0 119 60 245.5t152.5 224t211.5 160t229 62.5q7 0 11 -1q7 1 19 1zM318 -4q86 0 169.5 44.5t147 116t113 156t75 168.5t25.5 151 q0 63 -24.5 99t-73.5 36q-64 0 -132.5 -46.5t-118 -113t-82 -140t-32.5 -126.5q0 -81 71 -81q77 0 153 97t76 175q0 66 -64 66q-18 0 -18 12q0 13 18.5 26.5t45.5 13.5q49 0 74.5 -35t25.5 -93q0 -47 -16 -100.5t-48.5 -105.5t-76 -94.5t-104 -68.5t-127.5 -26 q-81 0 -130 48t-49 125q0 86 46 181t120 177q-110 -93 -180 -218t-70 -234q0 -96 50.5 -153t135.5 -57zM1211 489q69 0 143 84t74 153q0 67 -81 67q-65 0 -137 -53.5t-117.5 -127.5t-45.5 -132q0 -87 107 -87q39 0 39 -25q0 -14 -13.5 -26t-31.5 -12q-77 0 -145 -24.5 t-111.5 -61.5t-68.5 -80.5t-25 -82.5q0 -44 32 -71.5t95 -27.5q58 0 124 27t113.5 59.5t98.5 78.5t67.5 64t32.5 36l1 1q7 7 15 7t13.5 -6.5t5.5 -15.5q0 -7 -5 -12q-3 -3 -26 -36t-53 -73t-79.5 -89.5t-104 -88.5t-128.5 -66t-150 -27q-115 0 -177 55t-62 138 q0 105 95 203.5t264 136.5q-57 41 -57 115q0 56 34 119t89 115t132 86.5t156 34.5q99 0 145.5 -42.5t46.5 -111.5q0 -96 -74 -188t-160 -92q-34 0 -62.5 23t-28.5 42q0 14 20 14z" glyph-name="OE" horiz-adv-x="1289" unicode=""/><glyph d="M405 217l-53 -73q-55 -65 -118.5 -105t-123.5 -40q-51 0 -75.5 26.5t-24.5 72.5q0 67 45 153.5t119 154.5t146 79q30 16 62 16q92 0 92 -92q0 -82 -69 -192zM374 446q-33 0 -65.5 -60.5t-32.5 -116.5q0 -32 14 -49q44 48 75.5 106.5t31.5 92.5q0 27 -23 27zM197 313 q-51 -77 -51 -128q0 -37 31 -37q20 0 45 14q-34 31 -34 89q0 31 9 62zM679 266q6 6 13 6q8 0 14.5 -7t6.5 -15q0 -6 -5 -11l-17 -21q-17 -21 -38 -46t-55 -56.5t-68 -56.5t-76.5 -42.5t-81.5 -17.5q-96 0 -96 96q0 73 52 168.5t135.5 166.5t162.5 71q60 0 60 -59 q0 -46 -35 -104.5t-97 -103t-127 -45.5q7 -41 62 -41q14 0 29.5 4.5t29.5 11t30 17t27.5 19.5t25 20.5t21 18.5t17 16.5zM617 443q-31 0 -90 -63.5t-87 -126.5q62 9 123.5 77.5t61.5 102.5q0 10 -8 10z" glyph-name="oe" horiz-adv-x="603" unicode=""/><glyph d="M706 836q89 -19 132 -71t43 -127q0 -101 -68.5 -214t-183.5 -193t-234 -84q78 -89 154.5 -149t118.5 -60q10 0 21 7t13 7q14 0 14 -34q0 -47 -31.5 -90.5t-94.5 -43.5q-50 0 -115.5 59.5t-122 142t-104.5 176.5q-102 -199 -102 -299q0 -17 -27 -17q-40 0 -79.5 34 t-39.5 93q0 99 181 344q-16 48 -16 74q0 30 17.5 47.5t29.5 17.5q8 0 11 -9t5 -27t7 -31q141 181 330 387q-97 -24 -202.5 -96t-178.5 -167.5t-73 -174.5q0 -19 -17 -19q-28 0 -61 43.5t-33 108.5q0 40 30 90t86.5 100t129 91.5t168 67.5t192.5 26q4 0 12 -0.5t12 -0.5 q6 6 20.5 22.5t20 22l17.5 17.5t19 16.5t16.5 11t18.5 8.5t18 2q27 0 27 -14q0 -5 -13 -20.5t-35.5 -39t-32.5 -35.5zM369 290q91 0 188 66.5t157.5 157t60.5 163.5q0 45 -27.5 73.5t-85.5 33.5q-180 -218 -338 -485q25 -9 45 -9zM856 1102q26 0 43 -22t17 -42 q0 -14 -10 -14q-20 0 -44 -29t-24 -40t-11 -11t-22 9.5t-11 20.5q0 41 16 84.5t46 43.5z" glyph-name="Racute" horiz-adv-x="701" unicode=""/><glyph d="M373 495q8 8 20 8q20 0 41.5 -21.5t21.5 -40.5q0 -8 -4 -12q-58 -58 -120.5 -143.5t-62.5 -119.5q0 -17 18 -17q11 0 31.5 16.5t37 34t38 41.5t23.5 26q6 6 13 6q9 0 15 -7t6 -16q0 -7 -4 -11q-2 -2 -30.5 -43.5t-60 -83t-76.5 -77.5t-80 -36q-70 0 -70 67q0 59 49 153.5 t117 184.5q-21 -5 -50 -5q-26 0 -46 6q-25 -78 -72 -164.5t-92 -130.5q-6 -6 -14 -6q-15 0 -31 18.5t-16 32.5q0 6 3 9q170 168 170 299q0 16 17 29t34 13q18 0 18 -16t17 -25.5t42 -9.5q56 0 97 41zM327 705q26 0 43 -22t17 -42q0 -14 -10 -14q-20 0 -44 -29t-24 -40 t-11 -11t-22 9.5t-11 20.5q0 41 16 84.5t46 43.5z" glyph-name="racute" horiz-adv-x="346" unicode=""/><glyph d="M706 836q89 -19 132 -71t43 -127q0 -101 -68.5 -214t-183.5 -193t-234 -84q78 -89 154.5 -149t118.5 -60q10 0 21 7t13 7q14 0 14 -34q0 -47 -31.5 -90.5t-94.5 -43.5q-50 0 -115.5 59.5t-122 142t-104.5 176.5q-102 -199 -102 -299q0 -17 -27 -17q-40 0 -79.5 34 t-39.5 93q0 99 181 344q-16 48 -16 74q0 30 17.5 47.5t29.5 17.5q8 0 11 -9t5 -27t7 -31q141 181 330 387q-97 -24 -202.5 -96t-178.5 -167.5t-73 -174.5q0 -19 -17 -19q-28 0 -61 43.5t-33 108.5q0 40 30 90t86.5 100t129 91.5t168 67.5t192.5 26q4 0 12 -0.5t12 -0.5 q6 6 20.5 22.5t20 22l17.5 17.5t19 16.5t16.5 11t18.5 8.5t18 2q27 0 27 -14q0 -5 -13 -20.5t-35.5 -39t-32.5 -35.5zM369 290q91 0 188 66.5t157.5 157t60.5 163.5q0 45 -27.5 73.5t-85.5 33.5q-180 -218 -338 -485q25 -9 45 -9zM349 -243q-21 0 -45 -29t-24 -40t-11 -11 t-22 9.5t-11 20.5q0 41 16.5 84.5t45.5 43.5q26 0 43 -22t17 -42q0 -14 -9 -14z" glyph-name="uni0156" horiz-adv-x="701" unicode=""/><glyph d="M373 495q8 8 20 8q20 0 41.5 -21.5t21.5 -40.5q0 -8 -4 -12q-58 -58 -120.5 -143.5t-62.5 -119.5q0 -17 18 -17q11 0 31.5 16.5t37 34t38 41.5t23.5 26q6 6 13 6q9 0 15 -7t6 -16q0 -7 -4 -11q-2 -2 -30.5 -43.5t-60 -83t-76.5 -77.5t-80 -36q-70 0 -70 67q0 59 49 153.5 t117 184.5q-21 -5 -50 -5q-26 0 -46 6q-25 -78 -72 -164.5t-92 -130.5q-6 -6 -14 -6q-15 0 -31 18.5t-16 32.5q0 6 3 9q170 168 170 299q0 16 17 29t34 13q18 0 18 -16t17 -25.5t42 -9.5q56 0 97 41zM113 -78q-21 0 -45 -29t-24 -40t-11 -11t-22 9.5t-11 20.5 q0 41 16.5 84.5t45.5 43.5q26 0 43 -22t17 -42q0 -14 -9 -14z" glyph-name="uni0157" horiz-adv-x="346" unicode=""/><glyph d="M706 836q89 -19 132 -71t43 -127q0 -101 -68.5 -214t-183.5 -193t-234 -84q78 -89 154.5 -149t118.5 -60q10 0 21 7t13 7q14 0 14 -34q0 -47 -31.5 -90.5t-94.5 -43.5q-50 0 -115.5 59.5t-122 142t-104.5 176.5q-102 -199 -102 -299q0 -17 -27 -17q-40 0 -79.5 34 t-39.5 93q0 99 181 344q-16 48 -16 74q0 30 17.5 47.5t29.5 17.5q8 0 11 -9t5 -27t7 -31q141 181 330 387q-97 -24 -202.5 -96t-178.5 -167.5t-73 -174.5q0 -19 -17 -19q-28 0 -61 43.5t-33 108.5q0 40 30 90t86.5 100t129 91.5t168 67.5t192.5 26q4 0 12 -0.5t12 -0.5 q6 6 20.5 22.5t20 22l17.5 17.5t19 16.5t16.5 11t18.5 8.5t18 2q27 0 27 -14q0 -5 -13 -20.5t-35.5 -39t-32.5 -35.5zM369 290q91 0 188 66.5t157.5 157t60.5 163.5q0 45 -27.5 73.5t-85.5 33.5q-180 -218 -338 -485q25 -9 45 -9zM972 988q-13 13 -33.5 2.5t-39.5 -29.5 t-41 -28.5t-36 4.5q-8 8 0 16q7 7 -4.5 60t-26.5 68q-8 8 3 17q14 14 40 17t48 -15q22 -22 15 -81q69 48 98 20q9 -12 7 -24t-11 -21q-12 -12 -19 -6z" glyph-name="Rcaron" horiz-adv-x="701" unicode=""/><glyph d="M373 495q8 8 20 8q20 0 41.5 -21.5t21.5 -40.5q0 -8 -4 -12q-58 -58 -120.5 -143.5t-62.5 -119.5q0 -17 18 -17q11 0 31.5 16.5t37 34t38 41.5t23.5 26q6 6 13 6q9 0 15 -7t6 -16q0 -7 -4 -11q-2 -2 -30.5 -43.5t-60 -83t-76.5 -77.5t-80 -36q-70 0 -70 67q0 59 49 153.5 t117 184.5q-21 -5 -50 -5q-26 0 -46 6q-25 -78 -72 -164.5t-92 -130.5q-6 -6 -14 -6q-15 0 -31 18.5t-16 32.5q0 6 3 9q170 168 170 299q0 16 17 29t34 13q18 0 18 -16t17 -25.5t42 -9.5q56 0 97 41zM443 591q-13 13 -33.5 2.5t-39.5 -29.5t-41 -28.5t-36 4.5q-8 8 0 16 q7 7 -4.5 60t-26.5 68q-8 8 3 17q14 14 40 17t48 -15q22 -22 15 -81q69 48 98 20q9 -12 7 -24t-11 -21q-12 -12 -19 -6z" glyph-name="rcaron" horiz-adv-x="346" unicode=""/><glyph d="M515 844q94 0 137.5 -48t43.5 -126q0 -107 -67.5 -212.5t-140.5 -105.5q-42 0 -72.5 33t-30.5 63q0 23 22 23q58 0 106 41t72 95t24 104q0 37 -15.5 59.5t-45.5 22.5q-53 0 -121 -46t-117.5 -115.5t-49.5 -129.5q0 -39 15 -73.5t37 -58t48.5 -49t48.5 -48t37 -55 t15 -69.5q0 -72 -53 -136.5t-127 -99.5t-142 -35q-69 0 -104 41t-35 94q0 36 13.5 63t31.5 27q8 0 16 -8q50 -51 134 -51q71 0 129 34t58 76q0 20 -20 41.5t-50.5 40t-66 44.5t-66 54.5t-50.5 70.5t-20 91q0 80 63 162t158 134t185 52zM636 1044q26 0 43 -22t17 -42 q0 -14 -10 -14q-20 0 -44 -29t-24 -40t-11 -11t-22 9.5t-11 20.5q0 41 16 84.5t46 43.5z" glyph-name="Sacute" horiz-adv-x="496" unicode=""/><glyph d="M432 500q20 0 30 -12.5t10 -28.5q0 -27 -15 -27q-16 0 -32 -44.5t-33 -108t-40 -127t-63.5 -108t-93.5 -44.5q-37 0 -65 22t-42.5 52t-23.5 68.5t-11.5 65t-2.5 48.5q0 17 9.5 27t21.5 10q10 0 15 -8q79 62 193.5 138.5t142.5 76.5zM173 149q20 0 39 15t38 46t32.5 58 t34 71t30.5 65q-181 -117 -242 -174q17 -81 68 -81zM491 700q26 0 43 -22t17 -42q0 -14 -10 -14q-20 0 -44 -29t-24 -40t-11 -11t-22 9.5t-11 20.5q0 41 16 84.5t46 43.5z" glyph-name="sacute" horiz-adv-x="382" unicode=""/><glyph d="M515 844q94 0 137.5 -48t43.5 -126q0 -107 -67.5 -212.5t-140.5 -105.5q-42 0 -72.5 33t-30.5 63q0 23 22 23q58 0 106 41t72 95t24 104q0 37 -15.5 59.5t-45.5 22.5q-53 0 -121 -46t-117.5 -115.5t-49.5 -129.5q0 -39 15 -73.5t37 -58t48.5 -49t48.5 -48t37 -55 t15 -69.5q0 -72 -53 -136.5t-127 -99.5t-142 -35q-69 0 -104 41t-35 94q0 36 13.5 63t31.5 27q8 0 16 -8q50 -51 134 -51q71 0 129 34t58 76q0 20 -20 41.5t-50.5 40t-66 44.5t-66 54.5t-50.5 70.5t-20 91q0 80 63 162t158 134t185 52zM735 902q9 0 9 -17q0 -13 -7.5 -24 t-21.5 -11q-41 0 -56 83q-38 -47 -68 -47q-26 0 -43.5 22t-17.5 42q0 14 10 14q21 0 67 30t46 39q0 11 11 11q25 0 31.5 -35.5t12 -71t27.5 -35.5z" glyph-name="Scircumflex" horiz-adv-x="496" unicode=""/><glyph d="M432 500q20 0 30 -12.5t10 -28.5q0 -27 -15 -27q-16 0 -32 -44.5t-33 -108t-40 -127t-63.5 -108t-93.5 -44.5q-37 0 -65 22t-42.5 52t-23.5 68.5t-11.5 65t-2.5 48.5q0 17 9.5 27t21.5 10q10 0 15 -8q79 62 193.5 138.5t142.5 76.5zM173 149q20 0 39 15t38 46t32.5 58 t34 71t30.5 65q-181 -117 -242 -174q17 -81 68 -81zM590 558q9 0 9 -17q0 -13 -7.5 -24t-21.5 -11q-41 0 -56 83q-38 -47 -68 -47q-26 0 -43.5 22t-17.5 42q0 14 10 14q21 0 67 30t46 39q0 11 11 11q25 0 31.5 -35.5t12 -71t27.5 -35.5z" glyph-name="scircumflex" horiz-adv-x="382" unicode=""/><glyph d="M515 844q94 0 137.5 -48t43.5 -126q0 -107 -67.5 -212.5t-140.5 -105.5q-42 0 -72.5 33t-30.5 63q0 23 22 23q58 0 106 41t72 95t24 104q0 37 -15.5 59.5t-45.5 22.5q-53 0 -121 -46t-117.5 -115.5t-49.5 -129.5q0 -39 15 -73.5t37 -58t48.5 -49t48.5 -48t37 -55 t15 -69.5q0 -72 -53 -136.5t-127 -99.5t-142 -35q-69 0 -104 41t-35 94q0 36 13.5 63t31.5 27q8 0 16 -8q50 -51 134 -51q71 0 129 34t58 76q0 20 -20 41.5t-50.5 40t-66 44.5t-66 54.5t-50.5 70.5t-20 91q0 80 63 162t158 134t185 52zM109 -102h60q-2 -47 -37.5 -111 t-64.5 -64q-26 0 -43.5 21.5t-17.5 41.5q0 14 10 14q14 0 48.5 34.5t44.5 63.5z" glyph-name="Scedilla" horiz-adv-x="496" unicode=""/><glyph d="M432 500q20 0 30 -12.5t10 -28.5q0 -27 -15 -27q-16 0 -32 -44.5t-33 -108t-40 -127t-63.5 -108t-93.5 -44.5q-37 0 -65 22t-42.5 52t-23.5 68.5t-11.5 65t-2.5 48.5q0 17 9.5 27t21.5 10q10 0 15 -8q79 62 193.5 138.5t142.5 76.5zM173 149q20 0 39 15t38 46t32.5 58 t34 71t30.5 65q-181 -117 -242 -174q17 -81 68 -81zM165 20h60q-2 -47 -37.5 -111t-64.5 -64q-26 0 -43.5 21.5t-17.5 41.5q0 14 10 14q14 0 48.5 34.5t44.5 63.5z" glyph-name="scedilla" horiz-adv-x="382" unicode=""/><glyph d="M515 844q94 0 137.5 -48t43.5 -126q0 -107 -67.5 -212.5t-140.5 -105.5q-42 0 -72.5 33t-30.5 63q0 23 22 23q58 0 106 41t72 95t24 104q0 37 -15.5 59.5t-45.5 22.5q-53 0 -121 -46t-117.5 -115.5t-49.5 -129.5q0 -39 15 -73.5t37 -58t48.5 -49t48.5 -48t37 -55 t15 -69.5q0 -72 -53 -136.5t-127 -99.5t-142 -35q-69 0 -104 41t-35 94q0 36 13.5 63t31.5 27q8 0 16 -8q50 -51 134 -51q71 0 129 34t58 76q0 20 -20 41.5t-50.5 40t-66 44.5t-66 54.5t-50.5 70.5t-20 91q0 80 63 162t158 134t185 52zM752 930q-13 13 -33.5 2.5 t-39.5 -29.5t-41 -28.5t-36 4.5q-8 8 0 16q7 7 -4.5 60t-26.5 68q-8 8 3 17q14 14 40 17t48 -15q22 -22 15 -81q69 48 98 20q9 -12 7 -24t-11 -21q-12 -12 -19 -6z" glyph-name="Scaron" horiz-adv-x="496" unicode=""/><glyph d="M432 500q20 0 30 -12.5t10 -28.5q0 -27 -15 -27q-16 0 -32 -44.5t-33 -108t-40 -127t-63.5 -108t-93.5 -44.5q-37 0 -65 22t-42.5 52t-23.5 68.5t-11.5 65t-2.5 48.5q0 17 9.5 27t21.5 10q10 0 15 -8q79 62 193.5 138.5t142.5 76.5zM173 149q20 0 39 15t38 46t32.5 58 t34 71t30.5 65q-181 -117 -242 -174q17 -81 68 -81zM607 586q-13 13 -33.5 2.5t-39.5 -29.5t-41 -28.5t-36 4.5q-8 8 0 16q7 7 -4.5 60t-26.5 68q-8 8 3 17q14 14 40 17t48 -15q22 -22 15 -81q69 48 98 20q9 -12 7 -24t-11 -21q-12 -12 -19 -6z" glyph-name="scaron" horiz-adv-x="382" unicode=""/><glyph d="M1221 942q5 5 9 5q9 0 15 -16.5t6 -40.5q0 -53 -30 -96.5t-93 -43.5q-90 0 -316 48t-330 48q-147 0 -234 -65.5t-87 -145.5q0 -58 50 -96.5t143 -38.5q102 0 198.5 38t140.5 80q39 38 71 38q27 0 27 -15q0 -6 -7 -13q-152 -151 -319 -423t-167 -397q0 -14 -16 -14 q-32 0 -70.5 41t-38.5 104q0 136 387 542q-149 -64 -296 -64q-128 0 -196 55t-68 137q0 53 29 105t82.5 95.5t140 70.5t190.5 27q80 0 260 -13.5t260 -13.5q198 0 259 62zM238 -182h60q-2 -47 -37.5 -111t-64.5 -64q-26 0 -43.5 21.5t-17.5 41.5q0 14 10 14q14 0 48.5 34.5 t44.5 63.5z" glyph-name="uni0162" horiz-adv-x="511" unicode=""/><glyph d="M566 612q15 -15 15 -40q0 -29 -15 -29q-6 0 -12 7q-21 21 -69 21q-36 0 -94 -12q-103 -121 -183.5 -240t-80.5 -157q0 -13 12 -13q11 0 31.5 16.5t38 35t38 41t23.5 25.5q6 6 14 6t14 -7t6 -15q0 -7 -4 -11q-2 -2 -31 -43.5t-60.5 -83t-76 -77.5t-79.5 -36q-63 0 -63 60 q0 127 252 471q-13 -2 -37 -2q-51 0 -72.5 26.5t-21.5 66.5q0 20 5.5 33.5t13.5 13.5q4 0 8 -4q32 -32 124 -32q19 0 59 2q72 90 88 103q14 12 29 12q24 0 48 -18t24 -35q0 -5 -7.5 -14.5t-21.5 -23t-18 -18.5q76 -2 103 -29zM23 20h60q-2 -47 -37.5 -111t-64.5 -64 q-26 0 -43.5 21.5t-17.5 41.5q0 14 10 14q14 0 48.5 34.5t44.5 63.5z" glyph-name="uni0163" horiz-adv-x="201" unicode=""/><glyph d="M1221 942q5 5 9 5q9 0 15 -16.5t6 -40.5q0 -53 -30 -96.5t-93 -43.5q-90 0 -316 48t-330 48q-147 0 -234 -65.5t-87 -145.5q0 -58 50 -96.5t143 -38.5q102 0 198.5 38t140.5 80q39 38 71 38q27 0 27 -15q0 -6 -7 -13q-152 -151 -319 -423t-167 -397q0 -14 -16 -14 q-32 0 -70.5 41t-38.5 104q0 136 387 542q-149 -64 -296 -64q-128 0 -196 55t-68 137q0 53 29 105t82.5 95.5t140 70.5t190.5 27q80 0 260 -13.5t260 -13.5q198 0 259 62zM872 986q-13 13 -33.5 2.5t-39.5 -29.5t-41 -28.5t-36 4.5q-8 8 0 16q7 7 -4.5 60t-26.5 68 q-8 8 3 17q14 14 40 17t48 -15q22 -22 15 -81q69 48 98 20q9 -12 7 -24t-11 -21q-12 -12 -19 -6z" glyph-name="Tcaron" horiz-adv-x="511" unicode=""/><glyph d="M566 612q15 -15 15 -40q0 -29 -15 -29q-6 0 -12 7q-21 21 -69 21q-36 0 -94 -12q-103 -121 -183.5 -240t-80.5 -157q0 -13 12 -13q11 0 31.5 16.5t38 35t38 41t23.5 25.5q6 6 14 6t14 -7t6 -15q0 -7 -4 -11q-2 -2 -31 -43.5t-60.5 -83t-76 -77.5t-79.5 -36q-63 0 -63 60 q0 127 252 471q-13 -2 -37 -2q-51 0 -72.5 26.5t-21.5 66.5q0 20 5.5 33.5t13.5 13.5q4 0 8 -4q32 -32 124 -32q19 0 59 2q72 90 88 103q14 12 29 12q24 0 48 -18t24 -35q0 -5 -7.5 -14.5t-21.5 -23t-18 -18.5q76 -2 103 -29zM515 765q-7 7 3 17q14 14 39.5 17.5t48.5 -14.5 q21 -21 2 -63t-49 -72q-9 -8 -23 -6.5t-21 8.5q-7 9 0 16q8 8 11 43t-11 54z" glyph-name="tcaron" horiz-adv-x="201" unicode=""/><glyph d="M1221 942q5 5 9 5q9 0 15 -16.5t6 -40.5q0 -53 -30 -96.5t-93 -43.5q-90 0 -316 48t-330 48q-147 0 -234 -65.5t-87 -145.5q0 -58 50 -96.5t143 -38.5q102 0 198.5 38t140.5 80q39 38 71 38q27 0 27 -15q0 -6 -7 -13q-152 -151 -319 -423t-167 -397q0 -14 -16 -14 q-32 0 -70.5 41t-38.5 104q0 136 387 542q-149 -64 -296 -64q-128 0 -196 55t-68 137q0 53 29 105t82.5 95.5t140 70.5t190.5 27q80 0 260 -13.5t260 -13.5q198 0 259 62zM540 311q18 0 33.5 -11.5t15.5 -20.5q0 -8 -13 -8q-5 0 -111 -11.5t-116 -11.5q-29 0 -51 18t-22 35 q0 15 20 15q14 0 125.5 -2.5t118.5 -2.5z" glyph-name="Tbar" horiz-adv-x="511" unicode=""/><glyph d="M566 612q15 -15 15 -40q0 -29 -15 -29q-6 0 -12 7q-21 21 -69 21q-36 0 -94 -12q-103 -121 -183.5 -240t-80.5 -157q0 -13 12 -13q11 0 31.5 16.5t38 35t38 41t23.5 25.5q6 6 14 6t14 -7t6 -15q0 -7 -4 -11q-2 -2 -31 -43.5t-60.5 -83t-76 -77.5t-79.5 -36q-63 0 -63 60 q0 127 252 471q-13 -2 -37 -2q-51 0 -72.5 26.5t-21.5 66.5q0 20 5.5 33.5t13.5 13.5q4 0 8 -4q32 -32 124 -32q19 0 59 2q72 90 88 103q14 12 29 12q24 0 48 -18t24 -35q0 -5 -7.5 -14.5t-21.5 -23t-18 -18.5q76 -2 103 -29zM252 380q18 0 33.5 -11.5t15.5 -20.5 q0 -8 -13 -8q-5 0 -86 -11.5t-91 -11.5q-29 0 -51 18t-22 35q0 15 20 15q14 0 100.5 -2.5t93.5 -2.5z" glyph-name="tbar" horiz-adv-x="201" unicode=""/><glyph d="M1092 836q8 8 20 8q20 0 41.5 -21.5t21.5 -40.5q0 -8 -4 -12q-71 -71 -180 -222t-196.5 -308t-87.5 -221q0 -17 8.5 -25.5t19.5 -9.5t19.5 -5.5t8.5 -13.5q0 -29 -53 -71t-104 -42q-30 0 -53 18t-23 56q0 55 43 154q-146 -146 -237 -146q-51 0 -88 30.5t-37 86.5 q0 55 61.5 152.5t135.5 184.5t135.5 169.5t61.5 111.5q0 21 -27 21q-40 0 -114.5 -49t-146 -116t-125 -143t-53.5 -125q0 -15 11 -33t11 -21q0 -20 -47 -20q-43 0 -78.5 25t-35.5 77q0 64 63.5 147.5t152 152.5t186.5 116.5t164 47.5q107 0 107 -80q0 -53 -47.5 -145.5 t-104 -174t-104 -159.5t-47.5 -106q0 -21 23 -21q39 0 138 102.5t199 228.5t209.5 262.5t152.5 179.5zM725 853q-4 -4 -7 -4q-9 0 -9 21q0 28 15.5 53.5t45.5 25.5q35 0 94.5 -28t77.5 -28q8 0 18.5 7t12.5 7q10 0 10 -25q0 -26 -14 -49t-41 -23q-21 0 -85 26.5t-89 26.5 q-19 0 -29 -10z" glyph-name="Utilde" horiz-adv-x="805" unicode=""/><glyph d="M463 497q8 8 20 8q20 0 41.5 -21.5t21.5 -40.5q0 -8 -4 -12q-58 -58 -120.5 -143.5t-62.5 -120.5q0 -17 18 -17q14 0 40.5 23.5t57.5 58t33 36.5q6 6 13 6q8 0 14.5 -7t6.5 -15q0 -6 -5 -11q-2 -2 -30.5 -43.5t-60 -83t-76.5 -77.5t-80 -36q-70 0 -70 67q0 24 12 65 q-117 -131 -194 -131q-68 0 -68 55q0 70 92.5 200.5t172.5 211.5q25 25 60 25q26 0 26 -14q-8 -11 -22 -29t-49.5 -66t-62.5 -88t-49 -80t-22 -56q0 -10 8 -10q20 0 91.5 73t154 167.5t93.5 105.5zM282 609q-4 -4 -7 -4q-9 0 -9 21q0 28 15.5 53.5t45.5 25.5q35 0 94.5 -28 t77.5 -28q8 0 18.5 7t12.5 7q10 0 10 -25q0 -26 -14 -49t-41 -23q-21 0 -85 26.5t-89 26.5q-19 0 -29 -10z" glyph-name="utilde" horiz-adv-x="436" unicode=""/><glyph d="M1092 836q8 8 20 8q20 0 41.5 -21.5t21.5 -40.5q0 -8 -4 -12q-71 -71 -180 -222t-196.5 -308t-87.5 -221q0 -17 8.5 -25.5t19.5 -9.5t19.5 -5.5t8.5 -13.5q0 -29 -53 -71t-104 -42q-30 0 -53 18t-23 56q0 55 43 154q-146 -146 -237 -146q-51 0 -88 30.5t-37 86.5 q0 55 61.5 152.5t135.5 184.5t135.5 169.5t61.5 111.5q0 21 -27 21q-40 0 -114.5 -49t-146 -116t-125 -143t-53.5 -125q0 -15 11 -33t11 -21q0 -20 -47 -20q-43 0 -78.5 25t-35.5 77q0 64 63.5 147.5t152 152.5t186.5 116.5t164 47.5q107 0 107 -80q0 -53 -47.5 -145.5 t-104 -174t-104 -159.5t-47.5 -106q0 -21 23 -21q39 0 138 102.5t199 228.5t209.5 262.5t152.5 179.5zM908 899q18 0 33.5 -11.5t15.5 -20.5q0 -8 -13 -8q-5 0 -86 -11.5t-91 -11.5q-29 0 -51 18t-22 35q0 15 20 15q14 0 100.5 -2.5t93.5 -2.5z" glyph-name="Umacron" horiz-adv-x="805" unicode=""/><glyph d="M463 497q8 8 20 8q20 0 41.5 -21.5t21.5 -40.5q0 -8 -4 -12q-58 -58 -120.5 -143.5t-62.5 -120.5q0 -17 18 -17q14 0 40.5 23.5t57.5 58t33 36.5q6 6 13 6q8 0 14.5 -7t6.5 -15q0 -6 -5 -11q-2 -2 -30.5 -43.5t-60 -83t-76.5 -77.5t-80 -36q-70 0 -70 67q0 24 12 65 q-117 -131 -194 -131q-68 0 -68 55q0 70 92.5 200.5t172.5 211.5q25 25 60 25q26 0 26 -14q-8 -11 -22 -29t-49.5 -66t-62.5 -88t-49 -80t-22 -56q0 -10 8 -10q20 0 91.5 73t154 167.5t93.5 105.5zM476 655q18 0 33.5 -11.5t15.5 -20.5q0 -8 -13 -8q-5 0 -86 -11.5 t-91 -11.5q-29 0 -51 18t-22 35q0 15 20 15q14 0 100.5 -2.5t93.5 -2.5z" glyph-name="umacron" horiz-adv-x="436" unicode=""/><glyph d="M1092 836q8 8 20 8q20 0 41.5 -21.5t21.5 -40.5q0 -8 -4 -12q-71 -71 -180 -222t-196.5 -308t-87.5 -221q0 -17 8.5 -25.5t19.5 -9.5t19.5 -5.5t8.5 -13.5q0 -29 -53 -71t-104 -42q-30 0 -53 18t-23 56q0 55 43 154q-146 -146 -237 -146q-51 0 -88 30.5t-37 86.5 q0 55 61.5 152.5t135.5 184.5t135.5 169.5t61.5 111.5q0 21 -27 21q-40 0 -114.5 -49t-146 -116t-125 -143t-53.5 -125q0 -15 11 -33t11 -21q0 -20 -47 -20q-43 0 -78.5 25t-35.5 77q0 64 63.5 147.5t152 152.5t186.5 116.5t164 47.5q107 0 107 -80q0 -53 -47.5 -145.5 t-104 -174t-104 -159.5t-47.5 -106q0 -21 23 -21q39 0 138 102.5t199 228.5t209.5 262.5t152.5 179.5zM997 891q-8 -46 -47.5 -78.5t-89.5 -32.5q-43 0 -69.5 27.5t-26.5 72.5q0 61 48 85q25 13 32 4q1 -1 1 -3q-33 -118 41 -118q61 0 84 69q0 10 11 4q16 -10 16 -30z" glyph-name="Ubreve" horiz-adv-x="805" unicode=""/><glyph d="M463 497q8 8 20 8q20 0 41.5 -21.5t21.5 -40.5q0 -8 -4 -12q-58 -58 -120.5 -143.5t-62.5 -120.5q0 -17 18 -17q14 0 40.5 23.5t57.5 58t33 36.5q6 6 13 6q8 0 14.5 -7t6.5 -15q0 -6 -5 -11q-2 -2 -30.5 -43.5t-60 -83t-76.5 -77.5t-80 -36q-70 0 -70 67q0 24 12 65 q-117 -131 -194 -131q-68 0 -68 55q0 70 92.5 200.5t172.5 211.5q25 25 60 25q26 0 26 -14q-8 -11 -22 -29t-49.5 -66t-62.5 -88t-49 -80t-22 -56q0 -10 8 -10q20 0 91.5 73t154 167.5t93.5 105.5zM554 687q-8 -46 -47.5 -78.5t-89.5 -32.5q-43 0 -69.5 27.5t-26.5 72.5 q0 61 48 85q25 13 32 4q1 -1 1 -3q-33 -118 41 -118q61 0 84 69q0 10 11 4q16 -10 16 -30z" glyph-name="ubreve" horiz-adv-x="436" unicode=""/><glyph d="M1092 836q8 8 20 8q20 0 41.5 -21.5t21.5 -40.5q0 -8 -4 -12q-71 -71 -180 -222t-196.5 -308t-87.5 -221q0 -17 8.5 -25.5t19.5 -9.5t19.5 -5.5t8.5 -13.5q0 -29 -53 -71t-104 -42q-30 0 -53 18t-23 56q0 55 43 154q-146 -146 -237 -146q-51 0 -88 30.5t-37 86.5 q0 55 61.5 152.5t135.5 184.5t135.5 169.5t61.5 111.5q0 21 -27 21q-40 0 -114.5 -49t-146 -116t-125 -143t-53.5 -125q0 -15 11 -33t11 -21q0 -20 -47 -20q-43 0 -78.5 25t-35.5 77q0 64 63.5 147.5t152 152.5t186.5 116.5t164 47.5q107 0 107 -80q0 -53 -47.5 -145.5 t-104 -174t-104 -159.5t-47.5 -106q0 -21 23 -21q39 0 138 102.5t199 228.5t209.5 262.5t152.5 179.5zM720 867q0 62 48.5 107t115.5 45q48 0 78 -25.5t30 -72.5q0 -62 -48 -107.5t-115 -45.5q-48 0 -78.5 25.5t-30.5 73.5zM794 876q0 -47 45 -47q32 0 55.5 24.5t23.5 56.5 q0 22 -12.5 35t-33.5 13q-32 0 -55 -24.5t-23 -57.5z" glyph-name="Uring" horiz-adv-x="805" unicode=""/><glyph d="M463 497q8 8 20 8q20 0 41.5 -21.5t21.5 -40.5q0 -8 -4 -12q-58 -58 -120.5 -143.5t-62.5 -120.5q0 -17 18 -17q14 0 40.5 23.5t57.5 58t33 36.5q6 6 13 6q8 0 14.5 -7t6.5 -15q0 -6 -5 -11q-2 -2 -30.5 -43.5t-60 -83t-76.5 -77.5t-80 -36q-70 0 -70 67q0 24 12 65 q-117 -131 -194 -131q-68 0 -68 55q0 70 92.5 200.5t172.5 211.5q25 25 60 25q26 0 26 -14q-8 -11 -22 -29t-49.5 -66t-62.5 -88t-49 -80t-22 -56q0 -10 8 -10q20 0 91.5 73t154 167.5t93.5 105.5zM277 623q0 62 48.5 107t115.5 45q48 0 78 -25.5t30 -72.5q0 -62 -48 -107.5 t-115 -45.5q-48 0 -78.5 25.5t-30.5 73.5zM351 632q0 -47 45 -47q32 0 55.5 24.5t23.5 56.5q0 22 -12.5 35t-33.5 13q-32 0 -55 -24.5t-23 -57.5z" glyph-name="uring" horiz-adv-x="436" unicode=""/><glyph d="M1092 836q8 8 20 8q20 0 41.5 -21.5t21.5 -40.5q0 -8 -4 -12q-71 -71 -180 -222t-196.5 -308t-87.5 -221q0 -17 8.5 -25.5t19.5 -9.5t19.5 -5.5t8.5 -13.5q0 -29 -53 -71t-104 -42q-30 0 -53 18t-23 56q0 55 43 154q-146 -146 -237 -146q-51 0 -88 30.5t-37 86.5 q0 55 61.5 152.5t135.5 184.5t135.5 169.5t61.5 111.5q0 21 -27 21q-40 0 -114.5 -49t-146 -116t-125 -143t-53.5 -125q0 -15 11 -33t11 -21q0 -20 -47 -20q-43 0 -78.5 25t-35.5 77q0 64 63.5 147.5t152 152.5t186.5 116.5t164 47.5q107 0 107 -80q0 -53 -47.5 -145.5 t-104 -174t-104 -159.5t-47.5 -106q0 -21 23 -21q39 0 138 102.5t199 228.5t209.5 262.5t152.5 179.5zM818 969q26 0 43 -22t17 -42q0 -14 -10 -14q-20 0 -44 -29t-24 -40t-11 -11t-22 9.5t-11 20.5q0 41 16 84.5t46 43.5zM930 949q26 0 43 -22t17 -42q0 -14 -10 -14 q-20 0 -44 -29t-24 -40t-11 -11t-22 9.5t-11 20.5q0 41 16 84.5t46 43.5z" glyph-name="Uhungarumlaut" horiz-adv-x="805" unicode=""/><glyph d="M463 497q8 8 20 8q20 0 41.5 -21.5t21.5 -40.5q0 -8 -4 -12q-58 -58 -120.5 -143.5t-62.5 -120.5q0 -17 18 -17q14 0 40.5 23.5t57.5 58t33 36.5q6 6 13 6q8 0 14.5 -7t6.5 -15q0 -6 -5 -11q-2 -2 -30.5 -43.5t-60 -83t-76.5 -77.5t-80 -36q-70 0 -70 67q0 24 12 65 q-117 -131 -194 -131q-68 0 -68 55q0 70 92.5 200.5t172.5 211.5q25 25 60 25q26 0 26 -14q-8 -11 -22 -29t-49.5 -66t-62.5 -88t-49 -80t-22 -56q0 -10 8 -10q20 0 91.5 73t154 167.5t93.5 105.5zM375 725q26 0 43 -22t17 -42q0 -14 -10 -14q-20 0 -44 -29t-24 -40t-11 -11 t-22 9.5t-11 20.5q0 41 16 84.5t46 43.5zM487 705q26 0 43 -22t17 -42q0 -14 -10 -14q-20 0 -44 -29t-24 -40t-11 -11t-22 9.5t-11 20.5q0 41 16 84.5t46 43.5z" glyph-name="uhungarumlaut" horiz-adv-x="436" unicode=""/><glyph d="M1092 836q8 8 20 8q20 0 41.5 -21.5t21.5 -40.5q0 -8 -4 -12q-71 -71 -180 -222t-196.5 -308t-87.5 -221q0 -17 8.5 -25.5t19.5 -9.5t19.5 -5.5t8.5 -13.5q0 -29 -53 -71t-104 -42q-30 0 -53 18t-23 56q0 55 43 154q-146 -146 -237 -146q-51 0 -88 30.5t-37 86.5 q0 55 61.5 152.5t135.5 184.5t135.5 169.5t61.5 111.5q0 21 -27 21q-40 0 -114.5 -49t-146 -116t-125 -143t-53.5 -125q0 -15 11 -33t11 -21q0 -20 -47 -20q-43 0 -78.5 25t-35.5 77q0 64 63.5 147.5t152 152.5t186.5 116.5t164 47.5q107 0 107 -80q0 -53 -47.5 -145.5 t-104 -174t-104 -159.5t-47.5 -106q0 -21 23 -21q39 0 138 102.5t199 228.5t209.5 262.5t152.5 179.5zM636 -128q17 -31 48 -64.5t44 -33.5q10 0 10 -14q0 -20 -17.5 -41.5t-43.5 -21.5q-28 0 -62 63.5t-39 111.5h60z" glyph-name="Uogonek" horiz-adv-x="805" unicode=""/><glyph d="M463 497q8 8 20 8q20 0 41.5 -21.5t21.5 -40.5q0 -8 -4 -12q-58 -58 -120.5 -143.5t-62.5 -120.5q0 -17 18 -17q14 0 40.5 23.5t57.5 58t33 36.5q6 6 13 6q8 0 14.5 -7t6.5 -15q0 -6 -5 -11q-2 -2 -30.5 -43.5t-60 -83t-76.5 -77.5t-80 -36q-70 0 -70 67q0 24 12 65 q-117 -131 -194 -131q-68 0 -68 55q0 70 92.5 200.5t172.5 211.5q25 25 60 25q26 0 26 -14q-8 -11 -22 -29t-49.5 -66t-62.5 -88t-49 -80t-22 -56q0 -10 8 -10q20 0 91.5 73t154 167.5t93.5 105.5zM320 21q17 -31 48 -64.5t44 -33.5q10 0 10 -14q0 -20 -17.5 -41.5 t-43.5 -21.5q-28 0 -62 63.5t-39 111.5h60z" glyph-name="uogonek" horiz-adv-x="436" unicode=""/><glyph d="M1460 844q50 0 83.5 -25.5t33.5 -48.5q0 -15 -18 -15q-52 0 -118 -48.5t-131.5 -126.5t-135.5 -172t-138.5 -188t-132 -172t-124.5 -126.5t-108 -48.5q-50 0 -82.5 30.5t-32.5 87.5q0 62 60 190t137 254q-134 -126 -266.5 -276t-132.5 -189q0 -16 -29 -16q-36 0 -70 28 t-34 80q0 41 58.5 131t129 176.5t129 171.5t58.5 117q0 23 -28 23q-46 0 -122 -47t-145.5 -112t-120.5 -139t-51 -123q0 -15 11.5 -34.5t11.5 -22.5q0 -8 -13 -13.5t-31 -5.5q-41 0 -74.5 25t-33.5 77q0 65 58 148t142 152t182.5 116.5t173.5 47.5q110 0 110 -83 q0 -37 -24 -96t-49.5 -105t-76 -132.5t-70.5 -122.5q125 142 256 257.5t181 115.5q27 0 51 -13t24 -28q0 -7 -6 -13q-41 -42 -140 -237t-99 -259q0 -22 15 -22q23 0 74 61.5t112 154t136.5 200.5t145.5 200.5t141.5 154t122.5 61.5zM1134 808q9 0 9 -17q0 -13 -7.5 -24 t-21.5 -11q-41 0 -56 83q-38 -47 -68 -47q-26 0 -43.5 22t-17.5 42q0 14 10 14q21 0 67 30t46 39q0 11 11 11q25 0 31.5 -35.5t12 -71t27.5 -35.5z" glyph-name="Wcircumflex" horiz-adv-x="1077" unicode=""/><glyph d="M571 492q0 24 27 24q23 0 45 -16.5t22 -37.5q0 -19 -22 -70.5t-62 -117t-87.5 -127t-106.5 -103.5t-111 -42q-68 0 -73 69q-55 -70 -114 -70q-79 0 -79 78t69.5 202t141.5 196q25 25 60 25q26 0 26 -13q0 -6 -7 -12q-51 -51 -110.5 -157t-59.5 -150q0 -20 15 -20 q24 0 51 37t70.5 104t87.5 112q27 27 63 27q26 0 26 -13q0 -6 -7 -12q-43 -44 -75 -116t-32 -113q0 -25 14 -25q26 0 81.5 69.5t101 152.5t45.5 119zM539 560q9 0 9 -17q0 -13 -7.5 -24t-21.5 -11q-41 0 -56 83q-38 -47 -68 -47q-26 0 -43.5 22t-17.5 42q0 14 10 14 q21 0 67 30t46 39q0 11 11 11q25 0 31.5 -35.5t12 -71t27.5 -35.5z" glyph-name="wcircumflex" horiz-adv-x="565" unicode=""/><glyph d="M1015 836q8 8 20 8q20 0 41.5 -21.5t21.5 -40.5q0 -8 -4 -12q-71 -71 -180 -222t-196.5 -308t-87.5 -221q0 -17 9 -25.5t19 -9.5t19 -5.5t9 -13.5q0 -29 -53 -71t-104 -42q-30 0 -53 18t-23 56q0 99 134 327q-135 -125 -220 -125q-49 0 -82 31t-33 87q0 39 30.5 93.5 t74 106.5t87 100t74 86.5t30.5 54.5q0 13 -20 13q-62 0 -157.5 -64t-166 -147t-70.5 -134q0 -12 9 -26t9 -17q0 -8 -13 -13.5t-31 -5.5q-41 0 -74.5 25t-33.5 77q0 73 91.5 158t213.5 140.5t211 55.5q98 0 98 -65q0 -38 -32.5 -100.5t-72 -117t-72 -109t-32.5 -78.5 q0 -22 29 -22q38 0 121.5 75.5t163.5 167t171.5 197.5t124.5 139zM854 807q9 0 9 -17q0 -13 -7.5 -24t-21.5 -11q-41 0 -56 83q-38 -47 -68 -47q-26 0 -43.5 22t-17.5 42q0 14 10 14q21 0 67 30t46 39q0 11 11 11q25 0 31.5 -35.5t12 -71t27.5 -35.5z" glyph-name="Ycircumflex" horiz-adv-x="728" unicode=""/><glyph d="M446 475q25 25 60 25q26 0 26 -13q0 -6 -6 -12q-54 -54 -110 -152t-101.5 -192t-95.5 -183t-111.5 -143.5t-129.5 -54.5q-61 0 -89.5 42t-28.5 95q0 25 6 41.5t15 16.5q5 0 9 -4q34 -35 76 -35q92 0 225 185q-95 -91 -160 -91q-68 0 -68 55q0 70 92.5 200.5t172.5 211.5 q24 24 59 24q27 0 27 -13q-8 -11 -22 -29t-49.5 -66t-62.5 -88t-49 -80t-22 -56q0 -10 8 -10q27 0 89.5 62t141 153t98.5 111zM475 549q9 0 9 -17q0 -13 -7.5 -24t-21.5 -11q-41 0 -56 83q-38 -47 -68 -47q-26 0 -43.5 22t-17.5 42q0 14 10 14q21 0 67 30t46 39q0 11 11 11 q25 0 31.5 -35.5t12 -71t27.5 -35.5z" glyph-name="ycircumflex" horiz-adv-x="382" unicode=""/><glyph d="M1015 836q8 8 20 8q20 0 41.5 -21.5t21.5 -40.5q0 -8 -4 -12q-71 -71 -180 -222t-196.5 -308t-87.5 -221q0 -17 9 -25.5t19 -9.5t19 -5.5t9 -13.5q0 -29 -53 -71t-104 -42q-30 0 -53 18t-23 56q0 99 134 327q-135 -125 -220 -125q-49 0 -82 31t-33 87q0 39 30.5 93.5 t74 106.5t87 100t74 86.5t30.5 54.5q0 13 -20 13q-62 0 -157.5 -64t-166 -147t-70.5 -134q0 -12 9 -26t9 -17q0 -8 -13 -13.5t-31 -5.5q-41 0 -74.5 25t-33.5 77q0 73 91.5 158t213.5 140.5t211 55.5q98 0 98 -65q0 -38 -32.5 -100.5t-72 -117t-72 -109t-32.5 -78.5 q0 -22 29 -22q38 0 121.5 75.5t163.5 167t171.5 197.5t124.5 139zM665 949q24 0 41 -17t17 -40q0 -24 -17 -41t-41 -17q-23 0 -40 17t-17 41q0 23 17 40t40 17zM806 929q24 0 41 -17t17 -40q0 -24 -17 -41t-41 -17q-23 0 -40 17t-17 41q0 23 17 40t40 17z" glyph-name="Ydieresis" horiz-adv-x="728" unicode=""/><glyph d="M959 740q0 -40 -40 -80t-96.5 -71t-113.5 -57.5t-97 -50.5t-40 -40t26 -35q90 21 167 21q23 0 37 -11.5t14 -24.5q0 -14 -16 -14q-70 0 -149 -19q10 -18 10 -42q0 -62 -48 -149.5t-120 -166.5t-168.5 -134.5t-182.5 -55.5q-67 0 -104.5 35.5t-37.5 84.5q0 98 143 230.5 t335 207.5q-32 13 -50.5 30.5t-18.5 46.5q0 37 49 78t119.5 74t140.5 63.5t119 56.5t49 43q0 14 -40 14q-69 0 -194.5 -33t-233 -88t-107.5 -104q0 -9 12 -26.5t12 -21.5q0 -8 -13 -13.5t-32 -5.5q-40 0 -73.5 25t-33.5 76q0 62 58 113.5t147.5 82.5t188 48t187.5 17 q88 0 141.5 -29t53.5 -75zM565 305q0 15 -10 24q-153 -56 -272.5 -152.5t-119.5 -148.5q0 -29 44 -29q48 0 136 64.5t155 138.5t67 103zM823 1044q26 0 43 -22t17 -42q0 -14 -10 -14q-20 0 -44 -29t-24 -40t-11 -11t-22 9.5t-11 20.5q0 41 16 84.5t46 43.5z" glyph-name="Zacute" horiz-adv-x="649" unicode=""/><glyph d="M473 425q-13 -13 -43.5 -42.5t-49 -48.5t-40.5 -42t-33 -38.5t-11 -23.5q0 -6 9 -6q24 0 61.5 31.5t42.5 31.5q8 0 14.5 -7.5t6.5 -15.5q0 -6 -5 -11q-32 -32 -66.5 -98.5t-64.5 -132.5t-66.5 -129.5t-87.5 -103t-112 -39.5t-89.5 42t-28.5 95q0 25 6 41.5t15 16.5 q5 0 9 -4q44 -44 91 -44q55 0 108.5 51t116.5 142q-32 -15 -57 -15q-63 0 -63 48q0 84 172 276q-28 -5 -50 -5q-31 0 -57 8q-24 -78 -71.5 -165t-92.5 -132q-6 -6 -13 -6q-15 0 -31.5 18.5t-16.5 33.5q0 5 3 8q170 170 170 300q0 16 17 29t34 13q18 0 18 -16q0 -15 20 -25 t50 -10q65 0 106 41q8 8 19 8q21 0 42.5 -22t21.5 -40q0 -8 -4 -12zM329 701q26 0 43 -22t17 -42q0 -14 -10 -14q-20 0 -44 -29t-24 -40t-11 -11t-22 9.5t-11 20.5q0 41 16 84.5t46 43.5z" glyph-name="zacute" horiz-adv-x="397" unicode=""/><glyph d="M959 740q0 -40 -40 -80t-96.5 -71t-113.5 -57.5t-97 -50.5t-40 -40t26 -35q90 21 167 21q23 0 37 -11.5t14 -24.5q0 -14 -16 -14q-70 0 -149 -19q10 -18 10 -42q0 -62 -48 -149.5t-120 -166.5t-168.5 -134.5t-182.5 -55.5q-67 0 -104.5 35.5t-37.5 84.5q0 98 143 230.5 t335 207.5q-32 13 -50.5 30.5t-18.5 46.5q0 37 49 78t119.5 74t140.5 63.5t119 56.5t49 43q0 14 -40 14q-69 0 -194.5 -33t-233 -88t-107.5 -104q0 -9 12 -26.5t12 -21.5q0 -8 -13 -13.5t-32 -5.5q-40 0 -73.5 25t-33.5 76q0 62 58 113.5t147.5 82.5t188 48t187.5 17 q88 0 141.5 -29t53.5 -75zM565 305q0 15 -10 24q-153 -56 -272.5 -152.5t-119.5 -148.5q0 -29 44 -29q48 0 136 64.5t155 138.5t67 103zM824 1044q24 0 41 -17t17 -40q0 -24 -17 -41t-41 -17q-23 0 -40 17t-17 41q0 23 17 40t40 17z" glyph-name="Zdotaccent" horiz-adv-x="649" unicode=""/><glyph d="M473 425q-13 -13 -43.5 -42.5t-49 -48.5t-40.5 -42t-33 -38.5t-11 -23.5q0 -6 9 -6q24 0 61.5 31.5t42.5 31.5q8 0 14.5 -7.5t6.5 -15.5q0 -6 -5 -11q-32 -32 -66.5 -98.5t-64.5 -132.5t-66.5 -129.5t-87.5 -103t-112 -39.5t-89.5 42t-28.5 95q0 25 6 41.5t15 16.5 q5 0 9 -4q44 -44 91 -44q55 0 108.5 51t116.5 142q-32 -15 -57 -15q-63 0 -63 48q0 84 172 276q-28 -5 -50 -5q-31 0 -57 8q-24 -78 -71.5 -165t-92.5 -132q-6 -6 -13 -6q-15 0 -31.5 18.5t-16.5 33.5q0 5 3 8q170 170 170 300q0 16 17 29t34 13q18 0 18 -16q0 -15 20 -25 t50 -10q65 0 106 41q8 8 19 8q21 0 42.5 -22t21.5 -40q0 -8 -4 -12zM330 691q24 0 41 -17t17 -40q0 -24 -17 -41t-41 -17q-23 0 -40 17t-17 41q0 23 17 40t40 17z" glyph-name="zdotaccent" horiz-adv-x="397" unicode=""/><glyph d="M959 740q0 -40 -40 -80t-96.5 -71t-113.5 -57.5t-97 -50.5t-40 -40t26 -35q90 21 167 21q23 0 37 -11.5t14 -24.5q0 -14 -16 -14q-70 0 -149 -19q10 -18 10 -42q0 -62 -48 -149.5t-120 -166.5t-168.5 -134.5t-182.5 -55.5q-67 0 -104.5 35.5t-37.5 84.5q0 98 143 230.5 t335 207.5q-32 13 -50.5 30.5t-18.5 46.5q0 37 49 78t119.5 74t140.5 63.5t119 56.5t49 43q0 14 -40 14q-69 0 -194.5 -33t-233 -88t-107.5 -104q0 -9 12 -26.5t12 -21.5q0 -8 -13 -13.5t-32 -5.5q-40 0 -73.5 25t-33.5 76q0 62 58 113.5t147.5 82.5t188 48t187.5 17 q88 0 141.5 -29t53.5 -75zM565 305q0 15 -10 24q-153 -56 -272.5 -152.5t-119.5 -148.5q0 -29 44 -29q48 0 136 64.5t155 138.5t67 103zM939 930q-13 13 -33.5 2.5t-39.5 -29.5t-41 -28.5t-36 4.5q-8 8 0 16q7 7 -4.5 60t-26.5 68q-8 8 3 17q14 14 40 17t48 -15 q22 -22 15 -81q69 48 98 20q9 -12 7 -24t-11 -21q-12 -12 -19 -6z" glyph-name="Zcaron" horiz-adv-x="649" unicode=""/><glyph d="M473 425q-13 -13 -43.5 -42.5t-49 -48.5t-40.5 -42t-33 -38.5t-11 -23.5q0 -6 9 -6q24 0 61.5 31.5t42.5 31.5q8 0 14.5 -7.5t6.5 -15.5q0 -6 -5 -11q-32 -32 -66.5 -98.5t-64.5 -132.5t-66.5 -129.5t-87.5 -103t-112 -39.5t-89.5 42t-28.5 95q0 25 6 41.5t15 16.5 q5 0 9 -4q44 -44 91 -44q55 0 108.5 51t116.5 142q-32 -15 -57 -15q-63 0 -63 48q0 84 172 276q-28 -5 -50 -5q-31 0 -57 8q-24 -78 -71.5 -165t-92.5 -132q-6 -6 -13 -6q-15 0 -31.5 18.5t-16.5 33.5q0 5 3 8q170 170 170 300q0 16 17 29t34 13q18 0 18 -16q0 -15 20 -25 t50 -10q65 0 106 41q8 8 19 8q21 0 42.5 -22t21.5 -40q0 -8 -4 -12zM445 587q-13 13 -33.5 2.5t-39.5 -29.5t-41 -28.5t-36 4.5q-8 8 0 16q7 7 -4.5 60t-26.5 68q-8 8 3 17q14 14 40 17t48 -15q22 -22 15 -81q69 48 98 20q9 -12 7 -24t-11 -21q-12 -12 -19 -6z" glyph-name="zcaron" horiz-adv-x="397" unicode=""/><glyph d="M594 586q-38 -20 -79.5 -102t-83.5 -189t-89 -217.5t-111.5 -205.5t-135.5 -134q-52 -29 -83 26q-13 31 -10.5 67t18.5 82.5t32.5 82.5t32 66.5t16.5 34.5q1 5 7 9q7 4 16 2t13 -9q5 -7 2 -15q-1 -4 -8.5 -25.5t-13 -38.5t-12.5 -43t-7.5 -39t2.5 -26q6 -10 17 -4 q49 26 171 310l21 48q-42 4 -73 31.5t-31 52.5q0 24 32 24q22 0 63.5 -3.5t52.5 -3.5q147 324 263 389q52 29 83 -26q13 -31 10.5 -67t-18.5 -82.5t-32.5 -82.5t-32 -66.5t-16.5 -34.5q-1 -5 -7 -9q-7 -4 -16 -2t-13 9q-5 7 -2 15q1 4 8.5 25.5t13 38.5t12.5 43t7.5 39 t-2.5 26q-6 10 -17 4z" glyph-name="longs" horiz-adv-x="501" unicode=""/><glyph d="M594 586q-57 -30 -130 -217q88 -2 89 -2q28 0 53 -18.5t25 -33.5q0 -12 -21 -12q-1 0 -185 -23q-31 -79 -44 -109.5t-44 -102t-53 -109t-54 -87.5t-65.5 -82t-69.5 -52q-52 -29 -83 26q-13 31 -10.5 67t18.5 82.5t32.5 82.5t32 66.5t16.5 34.5q1 5 7 9q7 4 16 2t13 -9 q5 -7 2 -15q-1 -4 -8.5 -25.5t-13 -38.5t-12.5 -43t-7.5 -39t2.5 -26q6 -10 17 -4q18 10 37.5 35t48 83.5t42 89t51.5 120.5q9 20 13 30q-45 0 -79.5 28.5t-34.5 55.5q0 24 32 24q7 0 26 -0.5t48.5 -1.5t54.5 -1q144 319 260 385q52 29 83 -26q13 -31 10.5 -67t-18.5 -82.5 t-32.5 -82.5t-32 -66.5t-16.5 -34.5q-1 -5 -7 -9q-7 -4 -16 -2t-13 9q-5 7 -2 15q1 4 8.5 25.5t13 38.5t12.5 43t7.5 39t-2.5 26q-6 10 -17 4z" glyph-name="florin" horiz-adv-x="501" unicode=""/><glyph d="M1213 844h5q20 0 42 -22t22 -40q0 -8 -4 -12q-107 -106 -252.5 -369t-145.5 -370q0 -22 9.5 -33.5t21 -13t21 -6t9.5 -13.5q0 -29 -53 -71t-104 -42q-32 0 -55.5 20.5t-23.5 63.5q0 109 117.5 333.5t256.5 417.5q-133 -125 -305.5 -335.5t-253.5 -337.5 q-102 -159 -207 -260.5t-195 -101.5q-61 0 -89.5 42t-28.5 95q0 25 6 41.5t15 16.5q5 0 9 -4q36 -36 76 -36q64 0 154 83.5t173.5 203t157.5 243.5t119 214.5t45 105.5q0 23 -28 23q-46 0 -122 -47t-145.5 -112t-120.5 -139t-51 -123q0 -15 11.5 -34.5t11.5 -22.5 q0 -8 -13 -13.5t-31 -5.5q-41 0 -74.5 25t-33.5 77q0 65 58 148t142 152t182.5 116.5t173.5 47.5q109 0 109 -92q0 -70 -64 -200q143 159 274 273t179 114z" glyph-name="uni019D" horiz-adv-x="962" unicode=""/><glyph d="M647 399q25 25 60 25q26 0 26 -14q0 -4 -17 -26q-22 -29 -43 -56q-29 -47 -69 -133.5t-74 -156.5t-77 -139.5t-96.5 -109.5t-114.5 -40t-89.5 44t-28.5 99q0 26 6 43.5t15 17.5q5 0 9 -4q36 -36 77 -36q85 0 202 166q-116 -85 -214 -85q-92 0 -155.5 57.5t-63.5 171.5 q0 97 54 208t138.5 202t198.5 151t224 60q72 0 106.5 -35.5t34.5 -96.5q0 -83 -54.5 -183.5t-143 -173.5t-173.5 -73q-41 0 -66.5 32t-25.5 66q0 39 30 39q82 0 169.5 62.5t140 139.5t52.5 128q0 44 -45 44q-60 0 -144.5 -51t-160 -127t-129 -172.5t-53.5 -177.5 q0 -65 32 -102.5t98 -37.5q55 0 120.5 40t107.5 82.5t89 96.5zM820 930q-13 13 -33.5 2.5t-39.5 -29.5t-41 -28.5t-36 4.5q-8 8 0 16q7 7 -4.5 60t-26.5 68q-8 8 3 17q14 14 40 17t48 -15q22 -22 15 -81q69 48 98 20q9 -12 7 -24t-11 -21q-12 -12 -19 -6z" glyph-name="Gcaron" horiz-adv-x="626" unicode=""/><glyph d="M451 421q17 6 32 6q26 0 26 -13q0 -5 -7 -12q-33 -34 -70 -99.5t-67 -135.5t-69 -145.5t-77 -134.5t-90.5 -97t-110.5 -38q-61 0 -89.5 42t-28.5 95q0 25 6 41.5t15 16.5q5 0 9 -4q36 -36 76 -36q81 0 192 156q-72 -63 -126 -63q-69 0 -69 75q0 69 53.5 170t134.5 178 t150 77q84 0 110 -79zM158 149q15 0 38.5 14.5t50.5 39.5t46.5 44.5t42.5 44.5l22 25q29 44 45 63q-5 23 -21 40.5t-35 17.5q-30 0 -80 -54t-87.5 -119t-37.5 -97q0 -19 16 -19zM536 586q-13 13 -33.5 2.5t-39.5 -29.5t-41 -28.5t-36 4.5q-8 8 0 16q7 7 -4.5 60t-26.5 68 q-8 8 3 17q14 14 40 17t48 -15q22 -22 15 -81q69 48 98 20q9 -12 7 -24t-11 -21q-12 -12 -19 -6z" glyph-name="gcaron" horiz-adv-x="399" unicode=""/><glyph d="M683 844q123 0 184.5 -76t61.5 -200q0 -88 -29.5 -186.5t-87 -192t-132.5 -169.5t-175 -122t-207 -46q-130 0 -214 78t-84 222q0 119 60 245.5t152.5 224t211.5 160t229 62.5q7 0 11 -1q7 1 19 1zM318 -4q86 0 169.5 44.5t147 116t113 156t75 168.5t25.5 151 q0 63 -24.5 99t-73.5 36q-64 0 -132.5 -46.5t-118 -113t-82 -140t-32.5 -126.5q0 -81 71 -81q77 0 153 97t76 175q0 66 -64 66q-18 0 -18 12q0 13 18.5 26.5t45.5 13.5q49 0 74.5 -35t25.5 -93q0 -47 -16 -100.5t-48.5 -105.5t-76 -94.5t-104 -68.5t-127.5 -26 q-81 0 -130 48t-49 125q0 86 46 181t120 177q-110 -93 -180 -218t-70 -234q0 -96 50.5 -153t135.5 -57zM328 -128q17 -31 48 -64.5t44 -33.5q10 0 10 -14q0 -20 -17.5 -41.5t-43.5 -21.5q-28 0 -62 63.5t-39 111.5h60z" glyph-name="uni01EA" horiz-adv-x="829" unicode=""/><glyph d="M483 267q6 6 13 6q8 0 14 -7t6 -15q0 -7 -4 -11q-1 -1 -8.5 -9.5t-15 -16t-22 -19t-30 -20.5t-38 -17.5t-46.5 -13.5q-55 -65 -118.5 -105t-123.5 -40q-51 0 -75.5 26.5t-24.5 72.5q0 67 45 153.5t119 154.5t146 79q30 16 62 16q92 0 92 -92q0 -82 -69 -192q38 13 78 50z M374 446q-33 0 -65.5 -60.5t-32.5 -116.5q0 -32 14 -49q44 48 75.5 106.5t31.5 92.5q0 27 -23 27zM197 313q-51 -77 -51 -128q0 -37 31 -37q20 0 45 14q-34 31 -34 89q0 31 9 62zM140 19q17 -31 48 -64.5t44 -33.5q10 0 10 -14q0 -20 -17.5 -41.5t-43.5 -21.5 q-28 0 -62 63.5t-39 111.5h60z" glyph-name="uni01EB" horiz-adv-x="416" unicode=""/></font>
</defs>
</svg>
